<svg width="52" height="52" viewBox="0 0 52 52" fill="none" xmlns="http://www.w3.org/2000/svg">
<rect x="1" y="1" width="50" height="50" rx="4" stroke="black" stroke-width="2"/>
<path fill-rule="evenodd" clip-rule="evenodd" d="M29.3828 13.132C29.3828 11.9546 30.3373 11 31.5148 11H38.868C40.0455 11 41 11.9546 41 13.132V38.868C41 40.0455 40.0455 41 38.868 41H13.132C11.9546 41 11 40.0455 11 38.868V33.0468C11 31.8692 11.9546 30.9147 13.132 30.9147H20.1914V22.3234C20.1914 21.146 21.146 20.1914 22.3234 20.1914H29.3828V13.132ZM29.3828 22.6172H22.6172V38.5743H29.3828V22.6172ZM31.8086 38.5743H38.5743V13.4257H31.8086V38.5743ZM20.1914 38.5743V33.3405H13.4257V38.5743H20.1914Z" fill="black"/>
</svg>
