<svg width="230" height="52" viewBox="0 0 230 52" fill="none" xmlns="http://www.w3.org/2000/svg">
<rect x="1" y="1" width="228" height="50" rx="4" fill="#4BBF90" stroke="black" stroke-width="2"/>
<path d="M54.5889 20.696L48.9489 34.424C48.8849 34.616 48.7729 34.768 48.6129 34.88C48.4529 34.992 48.2849 35.048 48.1089 35.048C47.8049 35.048 47.5809 34.968 47.4369 34.808C47.2929 34.648 47.2209 34.456 47.2209 34.232C47.2049 34.12 47.2209 34 47.2689 33.872L53.4849 18.752C53.5649 18.528 53.6849 18.368 53.8449 18.272C54.0209 18.16 54.2129 18.112 54.4209 18.128C54.6289 18.128 54.8129 18.184 54.9729 18.296C55.1489 18.408 55.2689 18.56 55.3329 18.752L61.5249 33.728C61.5729 33.856 61.5969 33.984 61.5969 34.112C61.5969 34.4 61.5009 34.632 61.3089 34.808C61.1169 34.968 60.9009 35.048 60.6609 35.048C60.4689 35.048 60.2929 34.992 60.1329 34.88C59.9729 34.768 59.8529 34.608 59.7729 34.4L54.0609 20.672L54.5889 20.696ZM50.1489 30.512L50.9649 28.64H58.0929L58.4529 30.512H50.1489ZM74.1143 17.24C74.3863 17.24 74.6103 17.336 74.7863 17.528C74.9783 17.704 75.0743 17.928 75.0743 18.2V34.016C75.0743 34.288 74.9783 34.52 74.7863 34.712C74.6103 34.904 74.3863 35 74.1143 35C73.8263 35 73.5943 34.904 73.4183 34.712C73.2423 34.52 73.1543 34.288 73.1543 34.016V31.736L73.6103 31.568C73.6103 31.952 73.4903 32.36 73.2503 32.792C73.0103 33.208 72.6823 33.6 72.2663 33.968C71.8503 34.336 71.3543 34.64 70.7783 34.88C70.2183 35.12 69.6103 35.24 68.9543 35.24C67.8823 35.24 66.9063 34.96 66.0263 34.4C65.1623 33.84 64.4743 33.072 63.9623 32.096C63.4663 31.12 63.2183 30.008 63.2183 28.76C63.2183 27.496 63.4663 26.376 63.9623 25.4C64.4743 24.424 65.1623 23.664 66.0263 23.12C66.8903 22.56 67.8503 22.28 68.9063 22.28C69.5783 22.28 70.2103 22.392 70.8023 22.616C71.3943 22.84 71.9063 23.144 72.3383 23.528C72.7863 23.912 73.1383 24.336 73.3943 24.8C73.6503 25.264 73.7783 25.728 73.7783 26.192L73.1543 26.048V18.2C73.1543 17.928 73.2423 17.704 73.4183 17.528C73.5943 17.336 73.8263 17.24 74.1143 17.24ZM69.1703 33.464C69.9703 33.464 70.6743 33.264 71.2823 32.864C71.9063 32.448 72.3863 31.888 72.7223 31.184C73.0743 30.464 73.2503 29.656 73.2503 28.76C73.2503 27.848 73.0743 27.04 72.7223 26.336C72.3863 25.632 71.9063 25.08 71.2823 24.68C70.6743 24.264 69.9703 24.056 69.1703 24.056C68.3863 24.056 67.6823 24.264 67.0583 24.68C66.4503 25.08 65.9703 25.632 65.6183 26.336C65.2663 27.04 65.0903 27.848 65.0903 28.76C65.0903 29.64 65.2663 30.44 65.6183 31.16C65.9703 31.864 66.4503 32.424 67.0583 32.84C67.6823 33.256 68.3863 33.464 69.1703 33.464ZM88.8564 17.24C89.1284 17.24 89.3524 17.336 89.5284 17.528C89.7204 17.704 89.8164 17.928 89.8164 18.2V34.016C89.8164 34.288 89.7204 34.52 89.5284 34.712C89.3524 34.904 89.1284 35 88.8564 35C88.5684 35 88.3364 34.904 88.1604 34.712C87.9844 34.52 87.8964 34.288 87.8964 34.016V31.736L88.3524 31.568C88.3524 31.952 88.2324 32.36 87.9924 32.792C87.7524 33.208 87.4244 33.6 87.0084 33.968C86.5924 34.336 86.0964 34.64 85.5204 34.88C84.9604 35.12 84.3524 35.24 83.6964 35.24C82.6244 35.24 81.6484 34.96 80.7684 34.4C79.9044 33.84 79.2164 33.072 78.7044 32.096C78.2084 31.12 77.9604 30.008 77.9604 28.76C77.9604 27.496 78.2084 26.376 78.7044 25.4C79.2164 24.424 79.9044 23.664 80.7684 23.12C81.6324 22.56 82.5924 22.28 83.6484 22.28C84.3204 22.28 84.9524 22.392 85.5444 22.616C86.1364 22.84 86.6484 23.144 87.0804 23.528C87.5284 23.912 87.8804 24.336 88.1364 24.8C88.3924 25.264 88.5204 25.728 88.5204 26.192L87.8964 26.048V18.2C87.8964 17.928 87.9844 17.704 88.1604 17.528C88.3364 17.336 88.5684 17.24 88.8564 17.24ZM83.9124 33.464C84.7124 33.464 85.4164 33.264 86.0244 32.864C86.6484 32.448 87.1284 31.888 87.4644 31.184C87.8164 30.464 87.9924 29.656 87.9924 28.76C87.9924 27.848 87.8164 27.04 87.4644 26.336C87.1284 25.632 86.6484 25.08 86.0244 24.68C85.4164 24.264 84.7124 24.056 83.9124 24.056C83.1284 24.056 82.4244 24.264 81.8004 24.68C81.1924 25.08 80.7124 25.632 80.3604 26.336C80.0084 27.04 79.8324 27.848 79.8324 28.76C79.8324 29.64 80.0084 30.44 80.3604 31.16C80.7124 31.864 81.1924 32.424 81.8004 32.84C82.4244 33.256 83.1284 33.464 83.9124 33.464ZM105.72 35.24C104.44 35.24 103.32 34.968 102.36 34.424C101.4 33.88 100.648 33.136 100.104 32.192C99.576 31.232 99.312 30.128 99.312 28.88C99.312 27.488 99.584 26.304 100.128 25.328C100.688 24.336 101.408 23.584 102.288 23.072C103.184 22.544 104.128 22.28 105.12 22.28C105.856 22.28 106.568 22.416 107.256 22.688C107.944 22.96 108.552 23.36 109.08 23.888C109.608 24.4 110.032 25.024 110.352 25.76C110.672 26.48 110.84 27.288 110.856 28.184C110.856 28.44 110.76 28.656 110.568 28.832C110.376 29.008 110.152 29.096 109.896 29.096H100.416L99.984 27.44H109.224L108.84 27.776V27.248C108.776 26.592 108.552 26.032 108.168 25.568C107.8 25.088 107.344 24.72 106.8 24.464C106.272 24.208 105.712 24.08 105.12 24.08C104.64 24.08 104.16 24.168 103.68 24.344C103.216 24.504 102.792 24.776 102.408 25.16C102.04 25.528 101.736 26.008 101.496 26.6C101.272 27.192 101.16 27.904 101.16 28.736C101.16 29.664 101.344 30.48 101.712 31.184C102.096 31.888 102.624 32.448 103.296 32.864C103.968 33.264 104.752 33.464 105.648 33.464C106.208 33.464 106.696 33.392 107.112 33.248C107.528 33.104 107.888 32.928 108.192 32.72C108.496 32.496 108.752 32.272 108.96 32.048C109.168 31.904 109.368 31.832 109.56 31.832C109.8 31.832 109.992 31.912 110.136 32.072C110.296 32.232 110.376 32.424 110.376 32.648C110.376 32.92 110.248 33.16 109.992 33.368C109.544 33.864 108.936 34.304 108.168 34.688C107.4 35.056 106.584 35.24 105.72 35.24ZM113.505 22.448C113.809 22.448 114.065 22.584 114.273 22.856L122.625 33.512C122.753 33.688 122.817 33.88 122.817 34.088C122.817 34.36 122.721 34.592 122.529 34.784C122.337 34.976 122.113 35.072 121.857 35.072C121.553 35.072 121.289 34.928 121.065 34.64L112.713 24.008C112.585 23.832 112.521 23.64 112.521 23.432C112.521 23.144 112.617 22.912 112.809 22.736C113.017 22.544 113.249 22.448 113.505 22.448ZM113.505 35.048C113.297 35.048 113.089 34.968 112.881 34.808C112.673 34.648 112.569 34.44 112.569 34.184C112.569 33.976 112.649 33.776 112.809 33.584L116.745 28.616L117.753 30.2L114.273 34.664C114.081 34.92 113.825 35.048 113.505 35.048ZM121.857 22.448C122.129 22.448 122.345 22.536 122.505 22.712C122.681 22.888 122.769 23.088 122.769 23.312C122.769 23.408 122.745 23.512 122.697 23.624C122.665 23.736 122.609 23.84 122.529 23.936L118.617 28.952L117.609 27.488L121.065 22.88C121.289 22.592 121.553 22.448 121.857 22.448ZM127.121 34.016C127.121 34.288 127.025 34.52 126.833 34.712C126.657 34.904 126.433 35 126.161 35C125.873 35 125.641 34.904 125.465 34.712C125.289 34.52 125.201 34.288 125.201 34.016V23.36C125.201 23.088 125.289 22.864 125.465 22.688C125.657 22.496 125.889 22.4 126.161 22.4C126.433 22.4 126.657 22.496 126.833 22.688C127.025 22.864 127.121 23.088 127.121 23.36V34.016ZM126.161 20.792C125.761 20.792 125.465 20.712 125.273 20.552C125.081 20.392 124.985 20.144 124.985 19.808V19.472C124.985 19.136 125.089 18.888 125.297 18.728C125.505 18.568 125.801 18.488 126.185 18.488C126.569 18.488 126.857 18.568 127.049 18.728C127.241 18.888 127.337 19.136 127.337 19.472V19.808C127.337 20.144 127.233 20.392 127.025 20.552C126.833 20.712 126.545 20.792 126.161 20.792ZM129.874 33.032C129.73 32.824 129.666 32.608 129.682 32.384C129.698 32.144 129.834 31.936 130.09 31.76C130.25 31.648 130.434 31.6 130.642 31.616C130.866 31.632 131.066 31.736 131.242 31.928C131.69 32.456 132.202 32.88 132.778 33.2C133.354 33.504 134.058 33.656 134.89 33.656C135.274 33.64 135.658 33.576 136.042 33.464C136.426 33.352 136.746 33.16 137.002 32.888C137.274 32.6 137.41 32.224 137.41 31.76C137.41 31.312 137.274 30.96 137.002 30.704C136.73 30.432 136.378 30.216 135.946 30.056C135.514 29.88 135.042 29.728 134.53 29.6C134.002 29.456 133.482 29.296 132.97 29.12C132.458 28.928 131.994 28.696 131.578 28.424C131.178 28.136 130.85 27.784 130.594 27.368C130.354 26.936 130.234 26.416 130.234 25.808C130.234 25.088 130.426 24.464 130.81 23.936C131.21 23.408 131.738 23 132.394 22.712C133.066 22.424 133.794 22.28 134.578 22.28C135.026 22.28 135.49 22.336 135.97 22.448C136.466 22.544 136.946 22.72 137.41 22.976C137.874 23.216 138.282 23.552 138.634 23.984C138.778 24.144 138.858 24.344 138.874 24.584C138.89 24.824 138.786 25.04 138.562 25.232C138.386 25.36 138.186 25.416 137.962 25.4C137.754 25.384 137.578 25.304 137.434 25.16C137.098 24.76 136.674 24.456 136.162 24.248C135.666 24.024 135.114 23.912 134.506 23.912C134.122 23.912 133.746 23.968 133.378 24.08C133.01 24.192 132.698 24.384 132.442 24.656C132.202 24.912 132.082 25.272 132.082 25.736C132.098 26.168 132.242 26.52 132.514 26.792C132.786 27.064 133.154 27.288 133.618 27.464C134.082 27.624 134.594 27.784 135.154 27.944C135.666 28.072 136.154 28.224 136.618 28.4C137.098 28.56 137.53 28.776 137.914 29.048C138.298 29.32 138.602 29.672 138.826 30.104C139.05 30.52 139.162 31.048 139.162 31.688C139.162 32.424 138.954 33.064 138.538 33.608C138.122 34.136 137.57 34.544 136.882 34.832C136.21 35.104 135.482 35.24 134.698 35.24C133.818 35.24 132.946 35.072 132.082 34.736C131.234 34.4 130.498 33.832 129.874 33.032ZM141.457 22.664H147.097C147.353 22.664 147.561 22.752 147.721 22.928C147.897 23.104 147.985 23.312 147.985 23.552C147.985 23.808 147.897 24.024 147.721 24.2C147.561 24.36 147.353 24.44 147.097 24.44H141.457C141.217 24.44 141.009 24.352 140.833 24.176C140.657 24 140.569 23.784 140.569 23.528C140.569 23.288 140.657 23.088 140.833 22.928C141.009 22.752 141.217 22.664 141.457 22.664ZM143.977 19.4C144.249 19.4 144.473 19.496 144.649 19.688C144.825 19.864 144.913 20.088 144.913 20.36V31.952C144.913 32.336 144.969 32.624 145.081 32.816C145.193 33.008 145.337 33.144 145.513 33.224C145.705 33.288 145.889 33.32 146.065 33.32C146.225 33.32 146.361 33.296 146.473 33.248C146.601 33.184 146.745 33.152 146.905 33.152C147.065 33.152 147.209 33.232 147.337 33.392C147.481 33.536 147.553 33.728 147.553 33.968C147.553 34.256 147.385 34.504 147.049 34.712C146.713 34.904 146.337 35 145.921 35C145.697 35 145.417 34.984 145.081 34.952C144.761 34.92 144.441 34.816 144.121 34.64C143.801 34.464 143.529 34.176 143.305 33.776C143.097 33.36 142.993 32.784 142.993 32.048V20.36C142.993 20.088 143.089 19.864 143.281 19.688C143.473 19.496 143.705 19.4 143.977 19.4ZM152.504 34.016C152.504 34.288 152.408 34.52 152.216 34.712C152.04 34.904 151.816 35 151.544 35C151.256 35 151.024 34.904 150.848 34.712C150.672 34.52 150.584 34.288 150.584 34.016V23.36C150.584 23.088 150.672 22.864 150.848 22.688C151.04 22.496 151.272 22.4 151.544 22.4C151.816 22.4 152.04 22.496 152.216 22.688C152.408 22.864 152.504 23.088 152.504 23.36V34.016ZM151.544 20.792C151.144 20.792 150.848 20.712 150.656 20.552C150.464 20.392 150.368 20.144 150.368 19.808V19.472C150.368 19.136 150.472 18.888 150.68 18.728C150.888 18.568 151.184 18.488 151.568 18.488C151.952 18.488 152.24 18.568 152.432 18.728C152.624 18.888 152.72 19.136 152.72 19.472V19.808C152.72 20.144 152.616 20.392 152.408 20.552C152.216 20.712 151.928 20.792 151.544 20.792ZM162.121 22.28C163.209 22.28 164.065 22.504 164.689 22.952C165.313 23.4 165.753 24 166.009 24.752C166.281 25.504 166.417 26.344 166.417 27.272V34.016C166.417 34.288 166.321 34.52 166.129 34.712C165.953 34.904 165.729 35 165.457 35C165.185 35 164.953 34.904 164.761 34.712C164.585 34.52 164.497 34.288 164.497 34.016V27.32C164.497 26.712 164.401 26.168 164.209 25.688C164.033 25.192 163.729 24.8 163.297 24.512C162.881 24.208 162.305 24.056 161.569 24.056C160.897 24.056 160.281 24.208 159.721 24.512C159.161 24.8 158.713 25.192 158.377 25.688C158.041 26.168 157.873 26.712 157.873 27.32V34.016C157.873 34.288 157.777 34.52 157.585 34.712C157.409 34.904 157.185 35 156.913 35C156.641 35 156.409 34.904 156.217 34.712C156.041 34.52 155.953 34.288 155.953 34.016V23.552C155.953 23.28 156.041 23.056 156.217 22.88C156.409 22.688 156.641 22.592 156.913 22.592C157.201 22.592 157.433 22.688 157.609 22.88C157.785 23.056 157.873 23.28 157.873 23.552V25.256L157.393 25.784C157.473 25.368 157.657 24.952 157.945 24.536C158.233 24.104 158.593 23.72 159.025 23.384C159.457 23.048 159.937 22.784 160.465 22.592C160.993 22.384 161.545 22.28 162.121 22.28ZM175.176 22.28C175.864 22.28 176.504 22.4 177.096 22.64C177.688 22.864 178.2 23.16 178.632 23.528C179.08 23.896 179.424 24.28 179.664 24.68C179.92 25.08 180.048 25.456 180.048 25.808L179.592 25.52V23.432C179.592 23.16 179.68 22.936 179.856 22.76C180.032 22.568 180.264 22.472 180.552 22.472C180.824 22.472 181.048 22.568 181.224 22.76C181.416 22.936 181.512 23.16 181.512 23.432V33.944C181.512 35.256 181.232 36.344 180.672 37.208C180.128 38.072 179.392 38.72 178.464 39.152C177.536 39.584 176.496 39.8 175.344 39.8C174.864 39.8 174.336 39.736 173.76 39.608C173.184 39.48 172.672 39.32 172.224 39.128C171.776 38.952 171.488 38.768 171.36 38.576C171.12 38.416 170.968 38.232 170.904 38.024C170.856 37.832 170.896 37.648 171.024 37.472C171.168 37.248 171.352 37.136 171.576 37.136C171.816 37.136 172.112 37.208 172.464 37.352C172.608 37.4 172.832 37.48 173.136 37.592C173.456 37.704 173.808 37.8 174.192 37.88C174.592 37.976 174.984 38.024 175.368 38.024C176.728 38.024 177.768 37.664 178.488 36.944C179.224 36.24 179.592 35.304 179.592 34.136V31.904L179.856 32.024C179.76 32.472 179.56 32.888 179.256 33.272C178.968 33.656 178.608 34 178.176 34.304C177.76 34.592 177.296 34.824 176.784 35C176.272 35.16 175.752 35.24 175.224 35.24C174.104 35.24 173.096 34.96 172.2 34.4C171.304 33.84 170.592 33.072 170.064 32.096C169.552 31.12 169.296 30.008 169.296 28.76C169.296 27.496 169.552 26.376 170.064 25.4C170.592 24.424 171.296 23.664 172.176 23.12C173.072 22.56 174.072 22.28 175.176 22.28ZM175.416 24.056C174.6 24.056 173.864 24.264 173.208 24.68C172.568 25.08 172.064 25.632 171.696 26.336C171.344 27.04 171.168 27.848 171.168 28.76C171.168 29.64 171.344 30.44 171.696 31.16C172.064 31.864 172.568 32.424 173.208 32.84C173.864 33.256 174.6 33.464 175.416 33.464C176.248 33.464 176.984 33.264 177.624 32.864C178.264 32.448 178.768 31.888 179.136 31.184C179.504 30.48 179.688 29.672 179.688 28.76C179.688 27.832 179.504 27.016 179.136 26.312C178.768 25.608 178.264 25.056 177.624 24.656C176.984 24.256 176.248 24.056 175.416 24.056Z" fill="black"/>
</svg>
