<?xml version="1.0" standalone="no"?>
<!DOCTYPE svg PUBLIC "-//W3C//DTD SVG 20010904//EN"
 "http://www.w3.org/TR/2001/REC-SVG-20010904/DTD/svg10.dtd">
<svg version="1.0" xmlns="http://www.w3.org/2000/svg"
 width="220.000000pt" height="220.000000pt" viewBox="0 0 220.000000 220.000000"
 preserveAspectRatio="xMidYMid meet">

<g transform="translate(0.000000,220.000000) scale(0.100000,-0.100000)"
fill="#65447C" stroke="none">
<path d="M875 2174 c-442 -98 -761 -423 -851 -867 -23 -112 -15 -370 15 -478
106 -387 395 -675 785 -782 70 -19 106 -22 271 -22 167 0 200 3 270 23 400
113 680 392 788 786 19 70 22 106 22 271 0 167 -3 200 -23 270 -96 342 -323
605 -632 735 -137 58 -215 72 -400 76 -132 3 -192 0 -245 -12z m428 -233 c314
-81 555 -327 634 -648 22 -92 22 -284 0 -376 -79 -320 -316 -563 -635 -649
-108 -29 -306 -29 -414 0 -319 86 -556 329 -635 649 -22 92 -22 284 0 376 86
352 367 611 722 667 84 13 237 4 328 -19z"/>
<path d="M1018 1621 l-33 -29 -3 -186 -3 -185 -185 -3 -186 -3 -29 -33 c-41
-46 -41 -108 0 -154 l29 -33 186 -3 185 -3 3 -185 3 -186 33 -29 c46 -41 108
-41 154 0 l33 29 3 186 3 185 185 3 186 3 29 33 c41 46 41 108 0 154 l-29 33
-186 3 -185 3 -3 185 -3 186 -33 29 c-25 23 -42 29 -77 29 -35 0 -52 -6 -77
-29z"/>
</g>
</svg>
