<svg width="52" height="52" viewBox="0 0 52 52" fill="none" xmlns="http://www.w3.org/2000/svg">
<path d="M26 0C20.8577 0 15.8309 1.52487 11.5552 4.38179C7.27951 7.23871 3.94702 11.2993 1.97914 16.0502C0.0112653 20.8011 -0.503621 26.0288 0.499594 31.0723C1.50281 36.1158 3.97907 40.7486 7.61523 44.3848C11.2514 48.0209 15.8842 50.4972 20.9277 51.5004C25.9712 52.5036 31.1989 51.9887 35.9498 50.0209C40.7007 48.053 44.7613 44.7205 47.6182 40.4448C50.4751 36.1691 52 31.1423 52 26C52 22.5856 51.3275 19.2047 50.0209 16.0502C48.7142 12.8958 46.7991 10.0295 44.3848 7.61522C41.9705 5.2009 39.1042 3.28575 35.9498 1.97913C32.7953 0.67251 29.4144 0 26 0ZM26 46.8C21.8862 46.8 17.8647 45.5801 14.4441 43.2946C11.0236 41.009 8.35762 37.7605 6.78332 33.9598C5.20901 30.1591 4.7971 25.9769 5.59968 21.9421C6.40225 17.9073 8.38326 14.2011 11.2922 11.2922C14.2011 8.38325 17.9073 6.40224 21.9421 5.59967C25.9769 4.79709 30.1591 5.209 33.9598 6.78331C37.7605 8.35761 41.009 11.0236 43.2946 14.4441C45.5801 17.8647 46.8 21.8861 46.8 26C46.8 31.5165 44.6086 36.8071 40.7078 40.7078C36.8071 44.6086 31.5165 46.8 26 46.8ZM36.4 23.4H28.6V15.6C28.6 14.9104 28.3261 14.2491 27.8385 13.7615C27.3509 13.2739 26.6896 13 26 13C25.3104 13 24.6491 13.2739 24.1615 13.7615C23.6739 14.2491 23.4 14.9104 23.4 15.6V23.4H15.6C14.9104 23.4 14.2491 23.6739 13.7615 24.1615C13.2739 24.6491 13 25.3104 13 26C13 26.6896 13.2739 27.3509 13.7615 27.8385C14.2491 28.3261 14.9104 28.6 15.6 28.6H23.4V36.4C23.4 37.0896 23.6739 37.7509 24.1615 38.2385C24.6491 38.7261 25.3104 39 26 39C26.6896 39 27.3509 38.7261 27.8385 38.2385C28.3261 37.7509 28.6 37.0896 28.6 36.4V28.6H36.4C37.0896 28.6 37.7509 28.3261 38.2385 27.8385C38.7261 27.3509 39 26.6896 39 26C39 25.3104 38.7261 24.6491 38.2385 24.1615C37.7509 23.6739 37.0896 23.4 36.4 23.4Z" fill="#545FDF"/>
</svg>
