<svg width="55" height="32" viewBox="0 0 55 32" fill="none" xmlns="http://www.w3.org/2000/svg">
<path fill-rule="evenodd" clip-rule="evenodd" d="M39.8359 31.3231C40.7372 32.2256 42.1984 32.2256 43.0997 31.3231L53.8695 20.5387C54.7708 19.6363 54.7708 18.173 53.8695 17.2706C52.9682 16.3681 51.507 16.3681 50.6058 17.2706L43.7756 24.1099L43.7756 2.31094C43.7756 1.03464 42.7424 1.11578e-07 41.4678 0C40.1932 -1.11578e-07 39.16 1.03464 39.16 2.31094V24.1099L32.3298 17.2706C31.4286 16.3681 29.9673 16.3681 29.0661 17.2706C28.1648 18.173 28.1648 19.6362 29.0661 20.5387L39.8359 31.3231ZM14.7095 0.676861C13.8083 -0.225619 12.347 -0.225619 11.4458 0.676861L0.675945 11.4613C-0.225315 12.3637 -0.225315 13.827 0.675945 14.7294C1.57721 15.6319 3.03844 15.6319 3.9397 14.7294L10.7698 7.89006V29.6891C10.7698 30.9654 11.8031 32 13.0777 32C14.3522 32 15.3855 30.9654 15.3855 29.6891V7.89006L22.2156 14.7294C23.1169 15.6319 24.5781 15.6319 25.4794 14.7294C26.3806 13.827 26.3806 12.3637 25.4794 11.4613L14.7095 0.676861Z" fill="black"/>
</svg>
