<svg width="35" height="32" viewBox="0 0 35 32" fill="none" xmlns="http://www.w3.org/2000/svg">
<path fill-rule="evenodd" clip-rule="evenodd" d="M4.47674 2.46154C3.35291 2.46154 2.44186 3.37993 2.44186 4.51282V6.56412H32.5581V4.51282C32.5581 3.37992 31.6471 2.46154 30.5233 2.46154H4.47674ZM0 4.51282V7.79489V27.4872C0 29.9796 2.00432 32 4.47674 32H30.5233C32.9957 32 35 29.9796 35 27.4872V7.79489V4.51282C35 2.02047 32.9958 0 30.5233 0H4.47674C2.00431 0 0 2.02046 0 4.51282ZM32.5581 27.4872V9.02566H2.44186V27.4872C2.44186 28.6201 3.3529 29.5385 4.47674 29.5385H30.5233C31.6471 29.5385 32.5581 28.6201 32.5581 27.4872ZM7.02865 5.33446C7.47976 4.82924 7.43917 4.05104 6.93798 3.59629C6.4368 3.14155 5.66482 3.18247 5.21371 3.68769L5.19743 3.70593C4.74632 4.21115 4.78692 4.98935 5.2881 5.44409C5.78928 5.89884 6.56126 5.85792 7.01237 5.35269L7.02865 5.33446ZM11.8213 3.59629C12.3225 4.05104 12.3631 4.82924 11.912 5.33446L11.8957 5.35269C11.4446 5.85792 10.6726 5.89884 10.1714 5.44409C9.67025 4.98935 9.62966 4.21115 10.0808 3.70593L10.097 3.68769C10.5482 3.18247 11.3201 3.14155 11.8213 3.59629ZM16.796 5.33446C17.2471 4.82924 17.2065 4.05104 16.7053 3.59629C16.2041 3.14155 15.4321 3.18247 14.981 3.68769L14.9647 3.70593C14.5136 4.21115 14.5542 4.98935 15.0554 5.44409C15.5566 5.89884 16.3286 5.85792 16.7797 5.35269L16.796 5.33446Z" fill="black"/>
</svg>
