<svg width="478" height="43" viewBox="0 0 478 43" fill="none" xmlns="http://www.w3.org/2000/svg">
<rect x="1" y="1" width="476" height="41" rx="9" fill="#EBCFC7" stroke="black" stroke-width="2" stroke-linejoin="round"/>
<path d="M154.437 16.68C154.783 16.8533 154.983 17.1267 155.037 17.5C155.103 17.8733 155.01 18.2133 154.757 18.52C154.583 18.76 154.357 18.8933 154.077 18.92C153.81 18.9467 153.537 18.8933 153.257 18.76C152.937 18.6133 152.597 18.5 152.237 18.42C151.89 18.34 151.523 18.3 151.137 18.3C150.417 18.3 149.77 18.4133 149.197 18.64C148.637 18.8667 148.157 19.1933 147.757 19.62C147.357 20.0333 147.05 20.5267 146.837 21.1C146.637 21.6733 146.537 22.3067 146.537 23C146.537 23.8133 146.65 24.52 146.877 25.12C147.117 25.72 147.443 26.22 147.857 26.62C148.27 27.02 148.757 27.32 149.317 27.52C149.877 27.7067 150.483 27.8 151.137 27.8C151.497 27.8 151.857 27.7667 152.217 27.7C152.577 27.6333 152.923 27.5133 153.257 27.34C153.537 27.2067 153.81 27.16 154.077 27.2C154.357 27.24 154.59 27.38 154.777 27.62C155.043 27.9533 155.137 28.3 155.057 28.66C154.99 29.0067 154.79 29.26 154.457 29.42C154.11 29.5933 153.75 29.74 153.377 29.86C153.017 29.9667 152.65 30.0467 152.277 30.1C151.903 30.1667 151.523 30.2 151.137 30.2C150.177 30.2 149.263 30.0467 148.397 29.74C147.543 29.4333 146.777 28.98 146.097 28.38C145.43 27.78 144.903 27.0333 144.517 26.14C144.13 25.2333 143.937 24.1867 143.937 23C143.937 21.9733 144.11 21.0267 144.457 20.16C144.817 19.2933 145.317 18.5467 145.957 17.92C146.61 17.28 147.377 16.7867 148.257 16.44C149.137 16.08 150.097 15.9 151.137 15.9C151.723 15.9 152.297 15.9667 152.857 16.1C153.417 16.2333 153.943 16.4267 154.437 16.68ZM165.736 19.1C166.082 19.1 166.369 19.2133 166.596 19.44C166.822 19.6667 166.936 19.96 166.936 20.32V28.78C166.936 29.1267 166.822 29.42 166.596 29.66C166.369 29.8867 166.082 30 165.736 30C165.389 30 165.102 29.8867 164.876 29.66C164.649 29.42 164.536 29.1267 164.536 28.78V27.8L164.976 27.98C164.976 28.1533 164.882 28.3667 164.696 28.62C164.509 28.86 164.256 29.1 163.936 29.34C163.616 29.58 163.236 29.7867 162.796 29.96C162.369 30.12 161.902 30.2 161.396 30.2C160.476 30.2 159.642 29.9667 158.896 29.5C158.149 29.02 157.556 28.3667 157.116 27.54C156.689 26.7 156.476 25.74 156.476 24.66C156.476 23.5667 156.689 22.6067 157.116 21.78C157.556 20.94 158.142 20.2867 158.876 19.82C159.609 19.34 160.422 19.1 161.316 19.1C161.889 19.1 162.416 19.1867 162.896 19.36C163.376 19.5333 163.789 19.7533 164.136 20.02C164.496 20.2867 164.769 20.56 164.956 20.84C165.156 21.1067 165.256 21.3333 165.256 21.52L164.536 21.78V20.32C164.536 19.9733 164.649 19.6867 164.876 19.46C165.102 19.22 165.389 19.1 165.736 19.1ZM161.696 28C162.282 28 162.796 27.8533 163.236 27.56C163.676 27.2667 164.016 26.8667 164.256 26.36C164.509 25.8533 164.636 25.2867 164.636 24.66C164.636 24.02 164.509 23.4467 164.256 22.94C164.016 22.4333 163.676 22.0333 163.236 21.74C162.796 21.4467 162.282 21.3 161.696 21.3C161.122 21.3 160.616 21.4467 160.176 21.74C159.736 22.0333 159.389 22.4333 159.136 22.94C158.896 23.4467 158.776 24.02 158.776 24.66C158.776 25.2867 158.896 25.8533 159.136 26.36C159.389 26.8667 159.736 27.2667 160.176 27.56C160.616 27.8533 161.122 28 161.696 28ZM175.254 19.1C176.241 19.1 176.988 19.3067 177.494 19.72C178.014 20.1333 178.368 20.6867 178.554 21.38C178.754 22.06 178.854 22.82 178.854 23.66V28.78C178.854 29.1267 178.741 29.42 178.514 29.66C178.288 29.8867 178.001 30 177.654 30C177.308 30 177.021 29.8867 176.794 29.66C176.568 29.42 176.454 29.1267 176.454 28.78V23.66C176.454 23.22 176.394 22.8267 176.274 22.48C176.168 22.12 175.968 21.8333 175.674 21.62C175.381 21.4067 174.961 21.3 174.414 21.3C173.881 21.3 173.428 21.4067 173.054 21.62C172.694 21.8333 172.414 22.12 172.214 22.48C172.028 22.8267 171.934 23.22 171.934 23.66V28.78C171.934 29.1267 171.821 29.42 171.594 29.66C171.368 29.8867 171.081 30 170.734 30C170.388 30 170.101 29.8867 169.874 29.66C169.648 29.42 169.534 29.1267 169.534 28.78V20.52C169.534 20.1733 169.648 19.8867 169.874 19.66C170.101 19.42 170.388 19.3 170.734 19.3C171.081 19.3 171.368 19.42 171.594 19.66C171.821 19.8867 171.934 20.1733 171.934 20.52V21.38L171.634 21.32C171.754 21.0933 171.928 20.8533 172.154 20.6C172.381 20.3333 172.648 20.0867 172.954 19.86C173.261 19.6333 173.608 19.4533 173.994 19.32C174.381 19.1733 174.801 19.1 175.254 19.1ZM186.208 19.1C186.968 19.1 187.628 19.18 188.188 19.34C188.762 19.5 189.202 19.7267 189.508 20.02C189.828 20.3 189.988 20.64 189.988 21.04C189.988 21.3067 189.908 21.56 189.748 21.8C189.588 22.0267 189.355 22.14 189.048 22.14C188.835 22.14 188.655 22.1133 188.508 22.06C188.375 21.9933 188.255 21.9133 188.148 21.82C188.042 21.7267 187.915 21.64 187.768 21.56C187.635 21.48 187.428 21.42 187.148 21.38C186.882 21.3267 186.682 21.3 186.548 21.3C185.868 21.3 185.288 21.4467 184.808 21.74C184.342 22.0333 183.982 22.4333 183.728 22.94C183.475 23.4333 183.348 24.0067 183.348 24.66C183.348 25.3 183.475 25.8733 183.728 26.38C183.995 26.8733 184.355 27.2667 184.808 27.56C185.275 27.8533 185.808 28 186.408 28C186.742 28 187.028 27.98 187.268 27.94C187.508 27.9 187.708 27.84 187.868 27.76C188.055 27.6533 188.222 27.54 188.368 27.42C188.515 27.3 188.735 27.24 189.028 27.24C189.375 27.24 189.642 27.3533 189.828 27.58C190.015 27.7933 190.108 28.06 190.108 28.38C190.108 28.7133 189.922 29.02 189.548 29.3C189.175 29.5667 188.682 29.7867 188.068 29.96C187.468 30.12 186.815 30.2 186.108 30.2C185.055 30.2 184.142 29.96 183.368 29.48C182.595 28.9867 181.995 28.32 181.568 27.48C181.155 26.64 180.948 25.7 180.948 24.66C180.948 23.5667 181.168 22.6067 181.608 21.78C182.062 20.94 182.682 20.2867 183.468 19.82C184.268 19.34 185.182 19.1 186.208 19.1ZM196.879 30.2C195.746 30.2 194.759 29.9667 193.919 29.5C193.092 29.02 192.452 28.3733 191.999 27.56C191.559 26.7467 191.339 25.8267 191.339 24.8C191.339 23.6 191.579 22.58 192.059 21.74C192.552 20.8867 193.192 20.2333 193.979 19.78C194.766 19.3267 195.599 19.1 196.479 19.1C197.159 19.1 197.799 19.24 198.399 19.52C199.012 19.8 199.552 20.1867 200.019 20.68C200.486 21.16 200.852 21.72 201.119 22.36C201.399 23 201.539 23.68 201.539 24.4C201.526 24.72 201.399 24.98 201.159 25.18C200.919 25.38 200.639 25.48 200.319 25.48H192.679L192.079 23.48H199.419L198.979 23.88V23.34C198.952 22.9533 198.812 22.6067 198.559 22.3C198.319 21.9933 198.012 21.7533 197.639 21.58C197.279 21.3933 196.892 21.3 196.479 21.3C196.079 21.3 195.706 21.3533 195.359 21.46C195.012 21.5667 194.712 21.7467 194.459 22C194.206 22.2533 194.006 22.5933 193.859 23.02C193.712 23.4467 193.639 23.9867 193.639 24.64C193.639 25.36 193.786 25.9733 194.079 26.48C194.386 26.9733 194.772 27.3533 195.239 27.62C195.719 27.8733 196.226 28 196.759 28C197.252 28 197.646 27.96 197.939 27.88C198.232 27.8 198.466 27.7067 198.639 27.6C198.826 27.48 198.992 27.38 199.139 27.3C199.379 27.18 199.606 27.12 199.819 27.12C200.112 27.12 200.352 27.22 200.539 27.42C200.739 27.62 200.839 27.8533 200.839 28.12C200.839 28.48 200.652 28.8067 200.279 29.1C199.932 29.3933 199.446 29.6533 198.819 29.88C198.192 30.0933 197.546 30.2 196.879 30.2ZM206.236 28.78C206.236 29.1267 206.116 29.42 205.876 29.66C205.649 29.8867 205.363 30 205.016 30C204.683 30 204.403 29.8867 204.176 29.66C203.949 29.42 203.836 29.1267 203.836 28.78V16.42C203.836 16.0733 203.949 15.7867 204.176 15.56C204.416 15.32 204.709 15.2 205.056 15.2C205.403 15.2 205.683 15.32 205.896 15.56C206.123 15.7867 206.236 16.0733 206.236 16.42V28.78ZM219.332 30.2C218.399 30.2 217.559 30.0867 216.812 29.86C216.065 29.62 215.352 29.2067 214.672 28.62C214.499 28.4733 214.365 28.3067 214.272 28.12C214.179 27.9333 214.132 27.7467 214.132 27.56C214.132 27.2533 214.239 26.9867 214.452 26.76C214.679 26.52 214.959 26.4 215.292 26.4C215.545 26.4 215.772 26.48 215.972 26.64C216.479 27.0533 216.979 27.3667 217.472 27.58C217.979 27.7933 218.599 27.9 219.332 27.9C219.825 27.9 220.279 27.8267 220.692 27.68C221.105 27.52 221.439 27.3133 221.692 27.06C221.945 26.7933 222.072 26.4933 222.072 26.16C222.072 25.76 221.952 25.42 221.712 25.14C221.472 24.86 221.105 24.6267 220.612 24.44C220.119 24.24 219.492 24.0867 218.732 23.98C218.012 23.8733 217.379 23.7133 216.832 23.5C216.285 23.2733 215.825 22.9933 215.452 22.66C215.092 22.3133 214.819 21.9133 214.632 21.46C214.445 20.9933 214.352 20.4733 214.352 19.9C214.352 19.0333 214.572 18.2933 215.012 17.68C215.465 17.0667 216.072 16.6 216.832 16.28C217.592 15.96 218.432 15.8 219.352 15.8C220.219 15.8 221.019 15.9333 221.752 16.2C222.499 16.4533 223.105 16.78 223.572 17.18C223.959 17.4867 224.152 17.84 224.152 18.24C224.152 18.5333 224.039 18.8 223.812 19.04C223.585 19.28 223.319 19.4 223.012 19.4C222.812 19.4 222.632 19.34 222.472 19.22C222.259 19.0333 221.972 18.86 221.612 18.7C221.252 18.5267 220.872 18.3867 220.472 18.28C220.072 18.16 219.699 18.1 219.352 18.1C218.779 18.1 218.292 18.1733 217.892 18.32C217.505 18.4667 217.212 18.6667 217.012 18.92C216.812 19.1733 216.712 19.4667 216.712 19.8C216.712 20.2 216.825 20.5333 217.052 20.8C217.292 21.0533 217.632 21.26 218.072 21.42C218.512 21.5667 219.039 21.7 219.652 21.82C220.452 21.9667 221.152 22.14 221.752 22.34C222.365 22.54 222.872 22.8 223.272 23.12C223.672 23.4267 223.972 23.82 224.172 24.3C224.372 24.7667 224.472 25.34 224.472 26.02C224.472 26.8867 224.232 27.6333 223.752 28.26C223.272 28.8867 222.639 29.3667 221.852 29.7C221.079 30.0333 220.239 30.2 219.332 30.2ZM234.506 19.3C234.852 19.3 235.139 19.42 235.366 19.66C235.592 19.8867 235.706 20.1733 235.706 20.52V25.6C235.706 27.0133 235.312 28.1333 234.526 28.96C233.739 29.7867 232.606 30.2 231.126 30.2C229.646 30.2 228.512 29.7867 227.726 28.96C226.952 28.1333 226.566 27.0133 226.566 25.6V20.52C226.566 20.1733 226.679 19.8867 226.906 19.66C227.132 19.42 227.419 19.3 227.766 19.3C228.112 19.3 228.399 19.42 228.626 19.66C228.852 19.8867 228.966 20.1733 228.966 20.52V25.6C228.966 26.4133 229.146 27.02 229.506 27.42C229.866 27.8067 230.406 28 231.126 28C231.859 28 232.406 27.8067 232.766 27.42C233.126 27.02 233.306 26.4133 233.306 25.6V20.52C233.306 20.1733 233.419 19.8867 233.646 19.66C233.872 19.42 234.159 19.3 234.506 19.3ZM243.844 19.1C244.777 19.1 245.611 19.34 246.344 19.82C247.091 20.2867 247.677 20.9333 248.104 21.76C248.544 22.5867 248.764 23.5467 248.764 24.64C248.764 25.7333 248.544 26.7 248.104 27.54C247.677 28.3667 247.097 29.02 246.364 29.5C245.644 29.9667 244.831 30.2 243.924 30.2C243.391 30.2 242.891 30.1133 242.424 29.94C241.957 29.7667 241.544 29.5467 241.184 29.28C240.837 29.0133 240.564 28.7467 240.364 28.48C240.177 28.2 240.084 27.9667 240.084 27.78L240.704 27.52V28.98C240.704 29.3267 240.591 29.62 240.364 29.86C240.137 30.0867 239.851 30.2 239.504 30.2C239.157 30.2 238.871 30.0867 238.644 29.86C238.417 29.6333 238.304 29.34 238.304 28.98V16.42C238.304 16.0733 238.417 15.7867 238.644 15.56C238.871 15.32 239.157 15.2 239.504 15.2C239.851 15.2 240.137 15.32 240.364 15.56C240.591 15.7867 240.704 16.0733 240.704 16.42V21.5L240.364 21.32C240.364 21.1467 240.457 20.94 240.644 20.7C240.831 20.4467 241.084 20.2 241.404 19.96C241.724 19.7067 242.091 19.5 242.504 19.34C242.931 19.18 243.377 19.1 243.844 19.1ZM243.544 21.3C242.957 21.3 242.444 21.4467 242.004 21.74C241.564 22.0333 241.217 22.4333 240.964 22.94C240.724 23.4333 240.604 24 240.604 24.64C240.604 25.2667 240.724 25.84 240.964 26.36C241.217 26.8667 241.564 27.2667 242.004 27.56C242.444 27.8533 242.957 28 243.544 28C244.131 28 244.637 27.8533 245.064 27.56C245.504 27.2667 245.844 26.8667 246.084 26.36C246.337 25.84 246.464 25.2667 246.464 24.64C246.464 24 246.337 23.4333 246.084 22.94C245.844 22.4333 245.504 22.0333 245.064 21.74C244.637 21.4467 244.131 21.3 243.544 21.3ZM250.243 28.34C250.109 28.1533 250.049 27.9133 250.063 27.62C250.076 27.3267 250.249 27.0733 250.583 26.86C250.796 26.7267 251.023 26.6733 251.263 26.7C251.503 26.7133 251.736 26.8333 251.963 27.06C252.349 27.4467 252.756 27.7467 253.183 27.96C253.609 28.1733 254.143 28.28 254.783 28.28C254.983 28.2667 255.203 28.24 255.442 28.2C255.683 28.1467 255.889 28.04 256.063 27.88C256.249 27.7067 256.343 27.4467 256.343 27.1C256.343 26.8067 256.243 26.5733 256.043 26.4C255.843 26.2267 255.576 26.08 255.243 25.96C254.923 25.84 254.563 25.7267 254.163 25.62C253.749 25.5 253.323 25.3667 252.883 25.22C252.456 25.0733 252.063 24.8867 251.703 24.66C251.343 24.42 251.049 24.1067 250.823 23.72C250.596 23.3333 250.483 22.8467 250.483 22.26C250.483 21.5933 250.669 21.0267 251.043 20.56C251.416 20.0933 251.896 19.7333 252.483 19.48C253.083 19.2267 253.709 19.1 254.363 19.1C254.776 19.1 255.209 19.1533 255.663 19.26C256.116 19.3533 256.549 19.5133 256.963 19.74C257.376 19.9533 257.723 20.24 258.003 20.6C258.149 20.8 258.236 21.04 258.263 21.32C258.289 21.6 258.163 21.8533 257.883 22.08C257.683 22.24 257.449 22.3133 257.183 22.3C256.916 22.2733 256.696 22.18 256.523 22.02C256.296 21.7267 255.989 21.4933 255.603 21.32C255.229 21.1467 254.796 21.06 254.303 21.06C254.103 21.06 253.883 21.0867 253.643 21.14C253.416 21.18 253.216 21.28 253.043 21.44C252.869 21.5867 252.783 21.8267 252.783 22.16C252.783 22.4667 252.883 22.7133 253.083 22.9C253.283 23.0733 253.549 23.22 253.883 23.34C254.229 23.4467 254.596 23.5533 254.983 23.66C255.383 23.7667 255.789 23.8933 256.203 24.04C256.616 24.1867 256.996 24.38 257.343 24.62C257.689 24.86 257.969 25.1733 258.183 25.56C258.396 25.9333 258.503 26.4133 258.503 27C258.503 27.68 258.303 28.26 257.903 28.74C257.503 29.22 257.003 29.5867 256.403 29.84C255.803 30.08 255.189 30.2 254.562 30.2C253.776 30.2 252.989 30.0667 252.202 29.8C251.416 29.52 250.763 29.0333 250.243 28.34ZM265.271 19.1C266.031 19.1 266.691 19.18 267.251 19.34C267.824 19.5 268.264 19.7267 268.571 20.02C268.891 20.3 269.051 20.64 269.051 21.04C269.051 21.3067 268.971 21.56 268.811 21.8C268.651 22.0267 268.418 22.14 268.111 22.14C267.898 22.14 267.718 22.1133 267.571 22.06C267.438 21.9933 267.318 21.9133 267.211 21.82C267.104 21.7267 266.978 21.64 266.831 21.56C266.698 21.48 266.491 21.42 266.211 21.38C265.944 21.3267 265.744 21.3 265.611 21.3C264.931 21.3 264.351 21.4467 263.871 21.74C263.404 22.0333 263.044 22.4333 262.791 22.94C262.538 23.4333 262.411 24.0067 262.411 24.66C262.411 25.3 262.538 25.8733 262.791 26.38C263.058 26.8733 263.418 27.2667 263.871 27.56C264.338 27.8533 264.871 28 265.471 28C265.804 28 266.091 27.98 266.331 27.94C266.571 27.9 266.771 27.84 266.931 27.76C267.118 27.6533 267.284 27.54 267.431 27.42C267.578 27.3 267.798 27.24 268.091 27.24C268.438 27.24 268.704 27.3533 268.891 27.58C269.078 27.7933 269.171 28.06 269.171 28.38C269.171 28.7133 268.984 29.02 268.611 29.3C268.238 29.5667 267.744 29.7867 267.131 29.96C266.531 30.12 265.878 30.2 265.171 30.2C264.118 30.2 263.204 29.96 262.431 29.48C261.658 28.9867 261.058 28.32 260.631 27.48C260.218 26.64 260.011 25.7 260.011 24.66C260.011 23.5667 260.231 22.6067 260.671 21.78C261.124 20.94 261.744 20.2867 262.531 19.82C263.331 19.34 264.244 19.1 265.271 19.1ZM272.102 30C271.755 30 271.468 29.8867 271.242 29.66C271.015 29.42 270.902 29.1267 270.902 28.78V20.52C270.902 20.1733 271.015 19.8867 271.242 19.66C271.468 19.42 271.755 19.3 272.102 19.3C272.448 19.3 272.735 19.42 272.962 19.66C273.188 19.8867 273.302 20.1733 273.302 20.52V22.4L273.162 21.06C273.308 20.74 273.495 20.46 273.722 20.22C273.962 19.9667 274.228 19.76 274.522 19.6C274.815 19.4267 275.128 19.3 275.462 19.22C275.795 19.14 276.128 19.1 276.462 19.1C276.862 19.1 277.195 19.2133 277.462 19.44C277.742 19.6667 277.882 19.9333 277.882 20.24C277.882 20.68 277.768 21 277.542 21.2C277.315 21.3867 277.068 21.48 276.802 21.48C276.548 21.48 276.315 21.4333 276.102 21.34C275.902 21.2467 275.668 21.2 275.402 21.2C275.162 21.2 274.915 21.26 274.662 21.38C274.422 21.4867 274.195 21.66 273.982 21.9C273.782 22.14 273.615 22.44 273.482 22.8C273.362 23.1467 273.302 23.56 273.302 24.04V28.78C273.302 29.1267 273.188 29.42 272.962 29.66C272.735 29.8867 272.448 30 272.102 30ZM281.833 28.78C281.833 29.1267 281.72 29.42 281.493 29.66C281.267 29.8867 280.98 30 280.633 30C280.287 30 280 29.8867 279.773 29.66C279.547 29.42 279.433 29.1267 279.433 28.78V20.52C279.433 20.1733 279.547 19.8867 279.773 19.66C280 19.42 280.287 19.3 280.633 19.3C280.98 19.3 281.267 19.42 281.493 19.66C281.72 19.8867 281.833 20.1733 281.833 20.52V28.78ZM280.613 18C280.16 18 279.84 17.9267 279.653 17.78C279.467 17.6333 279.373 17.3733 279.373 17V16.62C279.373 16.2333 279.473 15.9733 279.673 15.84C279.887 15.6933 280.207 15.62 280.633 15.62C281.1 15.62 281.427 15.6933 281.613 15.84C281.8 15.9867 281.893 16.2467 281.893 16.62V17C281.893 17.3867 281.793 17.6533 281.593 17.8C281.393 17.9333 281.067 18 280.613 18ZM289.84 19.1C290.773 19.1 291.607 19.34 292.34 19.82C293.087 20.2867 293.673 20.9333 294.1 21.76C294.54 22.5867 294.76 23.5467 294.76 24.64C294.76 25.7333 294.54 26.7 294.1 27.54C293.673 28.3667 293.093 29.02 292.36 29.5C291.64 29.9667 290.827 30.2 289.92 30.2C289.387 30.2 288.887 30.1133 288.42 29.94C287.953 29.7667 287.54 29.5467 287.18 29.28C286.833 29.0133 286.56 28.7467 286.36 28.48C286.173 28.2 286.08 27.9667 286.08 27.78L286.7 27.52V32.78C286.7 33.1267 286.587 33.4133 286.36 33.64C286.133 33.88 285.847 34 285.5 34C285.153 34 284.867 33.8867 284.64 33.66C284.413 33.4333 284.3 33.14 284.3 32.78V20.52C284.3 20.1733 284.413 19.8867 284.64 19.66C284.867 19.42 285.153 19.3 285.5 19.3C285.847 19.3 286.133 19.42 286.36 19.66C286.587 19.8867 286.7 20.1733 286.7 20.52V21.5L286.36 21.32C286.36 21.1467 286.453 20.94 286.64 20.7C286.827 20.4467 287.08 20.2 287.4 19.96C287.72 19.7067 288.087 19.5 288.5 19.34C288.927 19.18 289.373 19.1 289.84 19.1ZM289.54 21.3C288.953 21.3 288.44 21.4467 288 21.74C287.56 22.0333 287.213 22.4333 286.96 22.94C286.72 23.4333 286.6 24 286.6 24.64C286.6 25.2667 286.72 25.84 286.96 26.36C287.213 26.8667 287.56 27.2667 288 27.56C288.44 27.8533 288.953 28 289.54 28C290.127 28 290.633 27.8533 291.06 27.56C291.5 27.2667 291.84 26.8667 292.08 26.36C292.333 25.84 292.46 25.2667 292.46 24.64C292.46 24 292.333 23.4333 292.08 22.94C291.84 22.4333 291.5 22.0333 291.06 21.74C290.633 21.4467 290.127 21.3 289.54 21.3ZM296.979 19.5H301.719C302.039 19.5 302.305 19.6067 302.519 19.82C302.732 20.0333 302.839 20.3 302.839 20.62C302.839 20.9267 302.732 21.1867 302.519 21.4C302.305 21.6 302.039 21.7 301.719 21.7H296.979C296.659 21.7 296.392 21.5933 296.179 21.38C295.965 21.1667 295.859 20.9 295.859 20.58C295.859 20.2733 295.965 20.02 296.179 19.82C296.392 19.6067 296.659 19.5 296.979 19.5ZM299.119 17C299.465 17 299.745 17.12 299.959 17.36C300.185 17.5867 300.299 17.8733 300.299 18.22V27.12C300.299 27.3067 300.332 27.46 300.399 27.58C300.479 27.7 300.579 27.7867 300.699 27.84C300.832 27.8933 300.972 27.92 301.119 27.92C301.279 27.92 301.425 27.8933 301.559 27.84C301.692 27.7733 301.845 27.74 302.019 27.74C302.205 27.74 302.372 27.8267 302.519 28C302.679 28.1733 302.759 28.4133 302.759 28.72C302.759 29.0933 302.552 29.4 302.139 29.64C301.739 29.88 301.305 30 300.839 30C300.559 30 300.245 29.98 299.899 29.94C299.565 29.8867 299.245 29.7733 298.939 29.6C298.645 29.4133 298.399 29.1333 298.199 28.76C297.999 28.3867 297.899 27.8733 297.899 27.22V18.22C297.899 17.8733 298.012 17.5867 298.239 17.36C298.479 17.12 298.772 17 299.119 17ZM307.302 28.78C307.302 29.1267 307.189 29.42 306.962 29.66C306.736 29.8867 306.449 30 306.102 30C305.756 30 305.469 29.8867 305.242 29.66C305.016 29.42 304.902 29.1267 304.902 28.78V20.52C304.902 20.1733 305.016 19.8867 305.242 19.66C305.469 19.42 305.756 19.3 306.102 19.3C306.449 19.3 306.736 19.42 306.962 19.66C307.189 19.8867 307.302 20.1733 307.302 20.52V28.78ZM306.082 18C305.629 18 305.309 17.9267 305.122 17.78C304.936 17.6333 304.842 17.3733 304.842 17V16.62C304.842 16.2333 304.942 15.9733 305.142 15.84C305.356 15.6933 305.676 15.62 306.102 15.62C306.569 15.62 306.896 15.6933 307.082 15.84C307.269 15.9867 307.362 16.2467 307.362 16.62V17C307.362 17.3867 307.262 17.6533 307.062 17.8C306.862 17.9333 306.536 18 306.082 18ZM320.149 24.66C320.149 25.7533 319.902 26.72 319.409 27.56C318.929 28.3867 318.275 29.0333 317.449 29.5C316.635 29.9667 315.722 30.2 314.709 30.2C313.695 30.2 312.775 29.9667 311.949 29.5C311.135 29.0333 310.482 28.3867 309.989 27.56C309.509 26.72 309.269 25.7533 309.269 24.66C309.269 23.5667 309.509 22.6067 309.989 21.78C310.482 20.94 311.135 20.2867 311.949 19.82C312.775 19.34 313.695 19.1 314.709 19.1C315.722 19.1 316.635 19.34 317.449 19.82C318.275 20.2867 318.929 20.94 319.409 21.78C319.902 22.6067 320.149 23.5667 320.149 24.66ZM317.749 24.66C317.749 23.98 317.609 23.3933 317.329 22.9C317.062 22.3933 316.695 22 316.229 21.72C315.775 21.44 315.269 21.3 314.709 21.3C314.149 21.3 313.635 21.44 313.169 21.72C312.715 22 312.349 22.3933 312.069 22.9C311.802 23.3933 311.669 23.98 311.669 24.66C311.669 25.3267 311.802 25.9133 312.069 26.42C312.349 26.9133 312.715 27.3 313.169 27.58C313.635 27.86 314.149 28 314.709 28C315.269 28 315.775 27.86 316.229 27.58C316.695 27.3 317.062 26.9133 317.329 26.42C317.609 25.9133 317.749 25.3267 317.749 24.66ZM327.969 19.1C328.956 19.1 329.703 19.3067 330.209 19.72C330.729 20.1333 331.083 20.6867 331.269 21.38C331.469 22.06 331.569 22.82 331.569 23.66V28.78C331.569 29.1267 331.456 29.42 331.229 29.66C331.003 29.8867 330.716 30 330.369 30C330.023 30 329.736 29.8867 329.509 29.66C329.283 29.42 329.169 29.1267 329.169 28.78V23.66C329.169 23.22 329.109 22.8267 328.989 22.48C328.883 22.12 328.683 21.8333 328.389 21.62C328.096 21.4067 327.676 21.3 327.129 21.3C326.596 21.3 326.143 21.4067 325.769 21.62C325.409 21.8333 325.129 22.12 324.929 22.48C324.743 22.8267 324.649 23.22 324.649 23.66V28.78C324.649 29.1267 324.536 29.42 324.309 29.66C324.083 29.8867 323.796 30 323.449 30C323.103 30 322.816 29.8867 322.589 29.66C322.363 29.42 322.249 29.1267 322.249 28.78V20.52C322.249 20.1733 322.363 19.8867 322.589 19.66C322.816 19.42 323.103 19.3 323.449 19.3C323.796 19.3 324.083 19.42 324.309 19.66C324.536 19.8867 324.649 20.1733 324.649 20.52V21.38L324.349 21.32C324.469 21.0933 324.643 20.8533 324.869 20.6C325.096 20.3333 325.363 20.0867 325.669 19.86C325.976 19.6333 326.323 19.4533 326.709 19.32C327.096 19.1733 327.516 19.1 327.969 19.1Z" fill="#5B5B5B"/>
</svg>
