<svg width="478" height="43" viewBox="0 0 478 43" fill="none" xmlns="http://www.w3.org/2000/svg">
<rect x="1" y="1" width="476" height="41" rx="9" fill="#545FDF" stroke="black" stroke-width="2" stroke-linejoin="round"/>
<path d="M163.538 16.68C163.885 16.8533 164.085 17.1267 164.138 17.5C164.205 17.8733 164.112 18.2133 163.858 18.52C163.685 18.76 163.458 18.8933 163.178 18.92C162.912 18.9467 162.638 18.8933 162.358 18.76C162.038 18.6133 161.698 18.5 161.338 18.42C160.992 18.34 160.625 18.3 160.238 18.3C159.518 18.3 158.872 18.4133 158.298 18.64C157.738 18.8667 157.258 19.1933 156.858 19.62C156.458 20.0333 156.152 20.5267 155.938 21.1C155.738 21.6733 155.638 22.3067 155.638 23C155.638 23.8133 155.752 24.52 155.978 25.12C156.218 25.72 156.545 26.22 156.958 26.62C157.372 27.02 157.858 27.32 158.418 27.52C158.978 27.7067 159.585 27.8 160.238 27.8C160.598 27.8 160.958 27.7667 161.318 27.7C161.678 27.6333 162.025 27.5133 162.358 27.34C162.638 27.2067 162.912 27.16 163.178 27.2C163.458 27.24 163.692 27.38 163.878 27.62C164.145 27.9533 164.238 28.3 164.158 28.66C164.092 29.0067 163.892 29.26 163.558 29.42C163.212 29.5933 162.852 29.74 162.478 29.86C162.118 29.9667 161.752 30.0467 161.378 30.1C161.005 30.1667 160.625 30.2 160.238 30.2C159.278 30.2 158.365 30.0467 157.498 29.74C156.645 29.4333 155.878 28.98 155.198 28.38C154.532 27.78 154.005 27.0333 153.618 26.14C153.232 25.2333 153.038 24.1867 153.038 23C153.038 21.9733 153.212 21.0267 153.558 20.16C153.918 19.2933 154.418 18.5467 155.058 17.92C155.712 17.28 156.478 16.7867 157.358 16.44C158.238 16.08 159.198 15.9 160.238 15.9C160.825 15.9 161.398 15.9667 161.958 16.1C162.518 16.2333 163.045 16.4267 163.538 16.68ZM171.697 19.1C172.657 19.1 173.384 19.3067 173.877 19.72C174.384 20.1333 174.731 20.6867 174.917 21.38C175.104 22.06 175.197 22.82 175.197 23.66V28.78C175.197 29.1267 175.084 29.42 174.857 29.66C174.631 29.8867 174.344 30 173.997 30C173.651 30 173.364 29.8867 173.137 29.66C172.911 29.42 172.797 29.1267 172.797 28.78V23.66C172.797 23.22 172.744 22.8267 172.637 22.48C172.531 22.12 172.337 21.8333 172.057 21.62C171.777 21.4067 171.377 21.3 170.857 21.3C170.351 21.3 169.917 21.4067 169.557 21.62C169.197 21.8333 168.924 22.12 168.737 22.48C168.564 22.8267 168.477 23.22 168.477 23.66V28.78C168.477 29.1267 168.364 29.42 168.137 29.66C167.911 29.8867 167.624 30 167.277 30C166.931 30 166.644 29.8867 166.417 29.66C166.191 29.42 166.077 29.1267 166.077 28.78V16.42C166.077 16.0733 166.191 15.7867 166.417 15.56C166.644 15.32 166.931 15.2 167.277 15.2C167.624 15.2 167.911 15.32 168.137 15.56C168.364 15.7867 168.477 16.0733 168.477 16.42V21.38L168.177 21.32C168.297 21.0933 168.464 20.8533 168.677 20.6C168.891 20.3333 169.151 20.0867 169.457 19.86C169.764 19.6333 170.104 19.4533 170.477 19.32C170.851 19.1733 171.257 19.1 171.697 19.1ZM186.556 19.1C186.903 19.1 187.189 19.2133 187.416 19.44C187.643 19.6667 187.756 19.96 187.756 20.32V28.78C187.756 29.1267 187.643 29.42 187.416 29.66C187.189 29.8867 186.903 30 186.556 30C186.209 30 185.923 29.8867 185.696 29.66C185.469 29.42 185.356 29.1267 185.356 28.78V27.8L185.796 27.98C185.796 28.1533 185.703 28.3667 185.516 28.62C185.329 28.86 185.076 29.1 184.756 29.34C184.436 29.58 184.056 29.7867 183.616 29.96C183.189 30.12 182.723 30.2 182.216 30.2C181.296 30.2 180.463 29.9667 179.716 29.5C178.969 29.02 178.376 28.3667 177.936 27.54C177.509 26.7 177.296 25.74 177.296 24.66C177.296 23.5667 177.509 22.6067 177.936 21.78C178.376 20.94 178.963 20.2867 179.696 19.82C180.429 19.34 181.243 19.1 182.136 19.1C182.709 19.1 183.236 19.1867 183.716 19.36C184.196 19.5333 184.609 19.7533 184.956 20.02C185.316 20.2867 185.589 20.56 185.776 20.84C185.976 21.1067 186.076 21.3333 186.076 21.52L185.356 21.78V20.32C185.356 19.9733 185.469 19.6867 185.696 19.46C185.923 19.22 186.209 19.1 186.556 19.1ZM182.516 28C183.103 28 183.616 27.8533 184.056 27.56C184.496 27.2667 184.836 26.8667 185.076 26.36C185.329 25.8533 185.456 25.2867 185.456 24.66C185.456 24.02 185.329 23.4467 185.076 22.94C184.836 22.4333 184.496 22.0333 184.056 21.74C183.616 21.4467 183.103 21.3 182.516 21.3C181.943 21.3 181.436 21.4467 180.996 21.74C180.556 22.0333 180.209 22.4333 179.956 22.94C179.716 23.4467 179.596 24.02 179.596 24.66C179.596 25.2867 179.716 25.8533 179.956 26.36C180.209 26.8667 180.556 27.2667 180.996 27.56C181.436 27.8533 181.943 28 182.516 28ZM196.075 19.1C197.061 19.1 197.808 19.3067 198.315 19.72C198.835 20.1333 199.188 20.6867 199.375 21.38C199.575 22.06 199.675 22.82 199.675 23.66V28.78C199.675 29.1267 199.561 29.42 199.335 29.66C199.108 29.8867 198.821 30 198.475 30C198.128 30 197.841 29.8867 197.615 29.66C197.388 29.42 197.275 29.1267 197.275 28.78V23.66C197.275 23.22 197.215 22.8267 197.095 22.48C196.988 22.12 196.788 21.8333 196.495 21.62C196.201 21.4067 195.781 21.3 195.235 21.3C194.701 21.3 194.248 21.4067 193.875 21.62C193.515 21.8333 193.235 22.12 193.035 22.48C192.848 22.8267 192.755 23.22 192.755 23.66V28.78C192.755 29.1267 192.641 29.42 192.415 29.66C192.188 29.8867 191.901 30 191.555 30C191.208 30 190.921 29.8867 190.695 29.66C190.468 29.42 190.355 29.1267 190.355 28.78V20.52C190.355 20.1733 190.468 19.8867 190.695 19.66C190.921 19.42 191.208 19.3 191.555 19.3C191.901 19.3 192.188 19.42 192.415 19.66C192.641 19.8867 192.755 20.1733 192.755 20.52V21.38L192.455 21.32C192.575 21.0933 192.748 20.8533 192.975 20.6C193.201 20.3333 193.468 20.0867 193.775 19.86C194.081 19.6333 194.428 19.4533 194.815 19.32C195.201 19.1733 195.621 19.1 196.075 19.1ZM206.709 19.1C207.269 19.1 207.782 19.1867 208.249 19.36C208.715 19.5333 209.115 19.7533 209.449 20.02C209.795 20.2867 210.062 20.56 210.249 20.84C210.449 21.1067 210.549 21.3333 210.549 21.52L210.029 21.78V20.32C210.029 19.9733 210.142 19.6867 210.369 19.46C210.595 19.22 210.882 19.1 211.229 19.1C211.575 19.1 211.862 19.2133 212.089 19.44C212.315 19.6667 212.429 19.96 212.429 20.32V29.22C212.429 30.38 212.175 31.3067 211.669 32C211.175 32.7067 210.522 33.2133 209.709 33.52C208.895 33.84 208.022 34 207.089 34C206.822 34 206.475 33.9667 206.049 33.9C205.622 33.8333 205.215 33.7533 204.829 33.66C204.442 33.5667 204.149 33.48 203.949 33.4C203.549 33.2267 203.269 33.0067 203.109 32.74C202.962 32.4867 202.935 32.2133 203.029 31.92C203.149 31.5333 203.342 31.2667 203.609 31.12C203.875 30.9867 204.155 30.9733 204.449 31.08C204.582 31.12 204.802 31.2 205.109 31.32C205.415 31.44 205.749 31.5467 206.109 31.64C206.482 31.7467 206.809 31.8 207.089 31.8C208.089 31.8 208.829 31.6 209.309 31.2C209.789 30.8 210.029 30.2467 210.029 29.54V27.8L210.269 27.98C210.269 28.1533 210.175 28.3667 209.989 28.62C209.815 28.86 209.569 29.1 209.249 29.34C208.942 29.58 208.575 29.7867 208.149 29.96C207.722 30.12 207.269 30.2 206.789 30.2C205.842 30.2 204.989 29.9667 204.229 29.5C203.469 29.02 202.869 28.3667 202.429 27.54C201.989 26.7 201.769 25.74 201.769 24.66C201.769 23.5667 201.989 22.6067 202.429 21.78C202.869 20.94 203.462 20.2867 204.209 19.82C204.955 19.34 205.789 19.1 206.709 19.1ZM207.089 21.3C206.489 21.3 205.962 21.4467 205.509 21.74C205.055 22.0333 204.702 22.4333 204.449 22.94C204.195 23.4467 204.069 24.02 204.069 24.66C204.069 25.2867 204.195 25.8533 204.449 26.36C204.702 26.8667 205.055 27.2667 205.509 27.56C205.962 27.8533 206.489 28 207.089 28C207.702 28 208.235 27.8533 208.689 27.56C209.142 27.2667 209.495 26.8667 209.749 26.36C210.002 25.8533 210.129 25.2867 210.129 24.66C210.129 24.02 210.002 23.4467 209.749 22.94C209.495 22.4333 209.142 22.0333 208.689 21.74C208.235 21.4467 207.702 21.3 207.089 21.3ZM219.672 30.2C218.539 30.2 217.552 29.9667 216.712 29.5C215.885 29.02 215.245 28.3733 214.792 27.56C214.352 26.7467 214.132 25.8267 214.132 24.8C214.132 23.6 214.372 22.58 214.852 21.74C215.345 20.8867 215.985 20.2333 216.772 19.78C217.559 19.3267 218.392 19.1 219.272 19.1C219.952 19.1 220.592 19.24 221.192 19.52C221.805 19.8 222.345 20.1867 222.812 20.68C223.279 21.16 223.645 21.72 223.912 22.36C224.192 23 224.332 23.68 224.332 24.4C224.319 24.72 224.192 24.98 223.952 25.18C223.712 25.38 223.432 25.48 223.112 25.48H215.472L214.872 23.48H222.212L221.772 23.88V23.34C221.745 22.9533 221.605 22.6067 221.352 22.3C221.112 21.9933 220.805 21.7533 220.432 21.58C220.072 21.3933 219.685 21.3 219.272 21.3C218.872 21.3 218.499 21.3533 218.152 21.46C217.805 21.5667 217.505 21.7467 217.252 22C216.999 22.2533 216.799 22.5933 216.652 23.02C216.505 23.4467 216.432 23.9867 216.432 24.64C216.432 25.36 216.579 25.9733 216.872 26.48C217.179 26.9733 217.565 27.3533 218.032 27.62C218.512 27.8733 219.019 28 219.552 28C220.045 28 220.439 27.96 220.732 27.88C221.025 27.8 221.259 27.7067 221.432 27.6C221.619 27.48 221.785 27.38 221.932 27.3C222.172 27.18 222.399 27.12 222.612 27.12C222.905 27.12 223.145 27.22 223.332 27.42C223.532 27.62 223.632 27.8533 223.632 28.12C223.632 28.48 223.445 28.8067 223.072 29.1C222.725 29.3933 222.239 29.6533 221.612 29.88C220.985 30.0933 220.339 30.2 219.672 30.2ZM237.574 19.1C238.508 19.1 239.341 19.34 240.074 19.82C240.821 20.2867 241.408 20.9333 241.834 21.76C242.274 22.5867 242.494 23.5467 242.494 24.64C242.494 25.7333 242.274 26.7 241.834 27.54C241.408 28.3667 240.828 29.02 240.094 29.5C239.374 29.9667 238.561 30.2 237.654 30.2C237.121 30.2 236.621 30.1133 236.154 29.94C235.688 29.7667 235.274 29.5467 234.914 29.28C234.568 29.0133 234.294 28.7467 234.094 28.48C233.908 28.2 233.814 27.9667 233.814 27.78L234.434 27.52V32.78C234.434 33.1267 234.321 33.4133 234.094 33.64C233.868 33.88 233.581 34 233.234 34C232.888 34 232.601 33.8867 232.374 33.66C232.148 33.4333 232.034 33.14 232.034 32.78V20.52C232.034 20.1733 232.148 19.8867 232.374 19.66C232.601 19.42 232.888 19.3 233.234 19.3C233.581 19.3 233.868 19.42 234.094 19.66C234.321 19.8867 234.434 20.1733 234.434 20.52V21.5L234.094 21.32C234.094 21.1467 234.188 20.94 234.374 20.7C234.561 20.4467 234.814 20.2 235.134 19.96C235.454 19.7067 235.821 19.5 236.234 19.34C236.661 19.18 237.108 19.1 237.574 19.1ZM237.274 21.3C236.688 21.3 236.174 21.4467 235.734 21.74C235.294 22.0333 234.948 22.4333 234.694 22.94C234.454 23.4333 234.334 24 234.334 24.64C234.334 25.2667 234.454 25.84 234.694 26.36C234.948 26.8667 235.294 27.2667 235.734 27.56C236.174 27.8533 236.688 28 237.274 28C237.861 28 238.368 27.8533 238.794 27.56C239.234 27.2667 239.574 26.8667 239.814 26.36C240.068 25.84 240.194 25.2667 240.194 24.64C240.194 24 240.068 23.4333 239.814 22.94C239.574 22.4333 239.234 22.0333 238.794 21.74C238.368 21.4467 237.861 21.3 237.274 21.3ZM253.353 19.1C253.7 19.1 253.986 19.2133 254.213 19.44C254.44 19.6667 254.553 19.96 254.553 20.32V28.78C254.553 29.1267 254.44 29.42 254.213 29.66C253.986 29.8867 253.7 30 253.353 30C253.006 30 252.72 29.8867 252.493 29.66C252.266 29.42 252.153 29.1267 252.153 28.78V27.8L252.593 27.98C252.593 28.1533 252.5 28.3667 252.313 28.62C252.126 28.86 251.873 29.1 251.553 29.34C251.233 29.58 250.853 29.7867 250.413 29.96C249.986 30.12 249.52 30.2 249.013 30.2C248.093 30.2 247.26 29.9667 246.513 29.5C245.766 29.02 245.173 28.3667 244.733 27.54C244.306 26.7 244.093 25.74 244.093 24.66C244.093 23.5667 244.306 22.6067 244.733 21.78C245.173 20.94 245.76 20.2867 246.493 19.82C247.226 19.34 248.04 19.1 248.933 19.1C249.506 19.1 250.033 19.1867 250.513 19.36C250.993 19.5333 251.406 19.7533 251.753 20.02C252.113 20.2867 252.386 20.56 252.573 20.84C252.773 21.1067 252.873 21.3333 252.873 21.52L252.153 21.78V20.32C252.153 19.9733 252.266 19.6867 252.493 19.46C252.72 19.22 253.006 19.1 253.353 19.1ZM249.313 28C249.9 28 250.413 27.8533 250.853 27.56C251.293 27.2667 251.633 26.8667 251.873 26.36C252.126 25.8533 252.253 25.2867 252.253 24.66C252.253 24.02 252.126 23.4467 251.873 22.94C251.633 22.4333 251.293 22.0333 250.853 21.74C250.413 21.4467 249.9 21.3 249.313 21.3C248.74 21.3 248.233 21.4467 247.793 21.74C247.353 22.0333 247.006 22.4333 246.753 22.94C246.513 23.4467 246.393 24.02 246.393 24.66C246.393 25.2867 246.513 25.8533 246.753 26.36C247.006 26.8667 247.353 27.2667 247.793 27.56C248.233 27.8533 248.74 28 249.313 28ZM256.532 28.34C256.398 28.1533 256.338 27.9133 256.352 27.62C256.365 27.3267 256.538 27.0733 256.872 26.86C257.085 26.7267 257.312 26.6733 257.552 26.7C257.792 26.7133 258.025 26.8333 258.252 27.06C258.638 27.4467 259.045 27.7467 259.472 27.96C259.898 28.1733 260.432 28.28 261.072 28.28C261.272 28.2667 261.492 28.24 261.732 28.2C261.972 28.1467 262.178 28.04 262.352 27.88C262.538 27.7067 262.632 27.4467 262.632 27.1C262.632 26.8067 262.532 26.5733 262.332 26.4C262.132 26.2267 261.865 26.08 261.532 25.96C261.212 25.84 260.852 25.7267 260.452 25.62C260.038 25.5 259.612 25.3667 259.172 25.22C258.745 25.0733 258.352 24.8867 257.992 24.66C257.632 24.42 257.338 24.1067 257.112 23.72C256.885 23.3333 256.772 22.8467 256.772 22.26C256.772 21.5933 256.958 21.0267 257.332 20.56C257.705 20.0933 258.185 19.7333 258.772 19.48C259.372 19.2267 259.998 19.1 260.652 19.1C261.065 19.1 261.498 19.1533 261.952 19.26C262.405 19.3533 262.838 19.5133 263.252 19.74C263.665 19.9533 264.012 20.24 264.292 20.6C264.438 20.8 264.525 21.04 264.552 21.32C264.578 21.6 264.452 21.8533 264.172 22.08C263.972 22.24 263.738 22.3133 263.472 22.3C263.205 22.2733 262.985 22.18 262.812 22.02C262.585 21.7267 262.278 21.4933 261.892 21.32C261.518 21.1467 261.085 21.06 260.592 21.06C260.392 21.06 260.172 21.0867 259.932 21.14C259.705 21.18 259.505 21.28 259.332 21.44C259.158 21.5867 259.072 21.8267 259.072 22.16C259.072 22.4667 259.172 22.7133 259.372 22.9C259.572 23.0733 259.838 23.22 260.172 23.34C260.518 23.4467 260.885 23.5533 261.272 23.66C261.672 23.7667 262.078 23.8933 262.492 24.04C262.905 24.1867 263.285 24.38 263.632 24.62C263.978 24.86 264.258 25.1733 264.472 25.56C264.685 25.9333 264.792 26.4133 264.792 27C264.792 27.68 264.592 28.26 264.192 28.74C263.792 29.22 263.292 29.5867 262.692 29.84C262.092 30.08 261.478 30.2 260.852 30.2C260.065 30.2 259.278 30.0667 258.492 29.8C257.705 29.52 257.052 29.0333 256.532 28.34ZM266.18 28.34C266.047 28.1533 265.987 27.9133 266 27.62C266.013 27.3267 266.187 27.0733 266.52 26.86C266.733 26.7267 266.96 26.6733 267.2 26.7C267.44 26.7133 267.673 26.8333 267.9 27.06C268.287 27.4467 268.693 27.7467 269.12 27.96C269.547 28.1733 270.08 28.28 270.72 28.28C270.92 28.2667 271.14 28.24 271.38 28.2C271.62 28.1467 271.827 28.04 272 27.88C272.187 27.7067 272.28 27.4467 272.28 27.1C272.28 26.8067 272.18 26.5733 271.98 26.4C271.78 26.2267 271.513 26.08 271.18 25.96C270.86 25.84 270.5 25.7267 270.1 25.62C269.687 25.5 269.26 25.3667 268.82 25.22C268.393 25.0733 268 24.8867 267.64 24.66C267.28 24.42 266.987 24.1067 266.76 23.72C266.533 23.3333 266.42 22.8467 266.42 22.26C266.42 21.5933 266.607 21.0267 266.98 20.56C267.353 20.0933 267.833 19.7333 268.42 19.48C269.02 19.2267 269.647 19.1 270.3 19.1C270.713 19.1 271.147 19.1533 271.6 19.26C272.053 19.3533 272.487 19.5133 272.9 19.74C273.313 19.9533 273.66 20.24 273.94 20.6C274.087 20.8 274.173 21.04 274.2 21.32C274.227 21.6 274.1 21.8533 273.82 22.08C273.62 22.24 273.387 22.3133 273.12 22.3C272.853 22.2733 272.633 22.18 272.46 22.02C272.233 21.7267 271.927 21.4933 271.54 21.32C271.167 21.1467 270.733 21.06 270.24 21.06C270.04 21.06 269.82 21.0867 269.58 21.14C269.353 21.18 269.153 21.28 268.98 21.44C268.807 21.5867 268.72 21.8267 268.72 22.16C268.72 22.4667 268.82 22.7133 269.02 22.9C269.22 23.0733 269.487 23.22 269.82 23.34C270.167 23.4467 270.533 23.5533 270.92 23.66C271.32 23.7667 271.727 23.8933 272.14 24.04C272.553 24.1867 272.933 24.38 273.28 24.62C273.627 24.86 273.907 25.1733 274.12 25.56C274.333 25.9333 274.44 26.4133 274.44 27C274.44 27.68 274.24 28.26 273.84 28.74C273.44 29.22 272.94 29.5867 272.34 29.84C271.74 30.08 271.127 30.2 270.5 30.2C269.713 30.2 268.927 30.0667 268.14 29.8C267.353 29.52 266.7 29.0333 266.18 28.34ZM288.768 19.3C289.075 19.3 289.342 19.42 289.568 19.66C289.795 19.8867 289.908 20.18 289.908 20.54C289.908 20.6333 289.902 20.72 289.888 20.8C289.875 20.8667 289.855 20.9333 289.828 21L286.768 29.24C286.675 29.5067 286.508 29.7133 286.268 29.86C286.028 29.9933 285.775 30.04 285.508 30C285.055 29.9733 284.715 29.72 284.488 29.24L282.508 23.54L283.028 23.56L281.168 29.24C280.942 29.72 280.602 29.9733 280.148 30C279.895 30.04 279.642 29.9933 279.388 29.86C279.148 29.7133 278.982 29.5067 278.888 29.24L275.828 21C275.775 20.8533 275.748 20.7 275.748 20.54C275.748 20.22 275.855 19.9333 276.068 19.68C276.282 19.4267 276.575 19.3 276.948 19.3C277.202 19.3 277.428 19.36 277.628 19.48C277.828 19.6 277.968 19.7933 278.048 20.06L280.468 26.62L279.968 26.58L281.788 21.64C282.002 21.1467 282.368 20.9 282.888 20.9C283.182 20.9 283.402 20.9667 283.548 21.1C283.708 21.22 283.835 21.4 283.928 21.64L285.748 26.58L285.148 26.66L287.608 20.06C287.768 19.5533 288.155 19.3 288.768 19.3ZM302.18 24.66C302.18 25.7533 301.933 26.72 301.44 27.56C300.96 28.3867 300.307 29.0333 299.48 29.5C298.667 29.9667 297.753 30.2 296.74 30.2C295.727 30.2 294.807 29.9667 293.98 29.5C293.167 29.0333 292.513 28.3867 292.02 27.56C291.54 26.72 291.3 25.7533 291.3 24.66C291.3 23.5667 291.54 22.6067 292.02 21.78C292.513 20.94 293.167 20.2867 293.98 19.82C294.807 19.34 295.727 19.1 296.74 19.1C297.753 19.1 298.667 19.34 299.48 19.82C300.307 20.2867 300.96 20.94 301.44 21.78C301.933 22.6067 302.18 23.5667 302.18 24.66ZM299.78 24.66C299.78 23.98 299.64 23.3933 299.36 22.9C299.093 22.3933 298.727 22 298.26 21.72C297.807 21.44 297.3 21.3 296.74 21.3C296.18 21.3 295.667 21.44 295.2 21.72C294.747 22 294.38 22.3933 294.1 22.9C293.833 23.3933 293.7 23.98 293.7 24.66C293.7 25.3267 293.833 25.9133 294.1 26.42C294.38 26.9133 294.747 27.3 295.2 27.58C295.667 27.86 296.18 28 296.74 28C297.3 28 297.807 27.86 298.26 27.58C298.727 27.3 299.093 26.9133 299.36 26.42C299.64 25.9133 299.78 25.3267 299.78 24.66ZM305.48 30C305.134 30 304.847 29.8867 304.62 29.66C304.394 29.42 304.28 29.1267 304.28 28.78V20.52C304.28 20.1733 304.394 19.8867 304.62 19.66C304.847 19.42 305.134 19.3 305.48 19.3C305.827 19.3 306.114 19.42 306.34 19.66C306.567 19.8867 306.68 20.1733 306.68 20.52V22.4L306.54 21.06C306.687 20.74 306.874 20.46 307.1 20.22C307.34 19.9667 307.607 19.76 307.9 19.6C308.194 19.4267 308.507 19.3 308.84 19.22C309.174 19.14 309.507 19.1 309.84 19.1C310.24 19.1 310.574 19.2133 310.84 19.44C311.12 19.6667 311.26 19.9333 311.26 20.24C311.26 20.68 311.147 21 310.92 21.2C310.694 21.3867 310.447 21.48 310.18 21.48C309.927 21.48 309.694 21.4333 309.48 21.34C309.28 21.2467 309.047 21.2 308.78 21.2C308.54 21.2 308.294 21.26 308.04 21.38C307.8 21.4867 307.574 21.66 307.36 21.9C307.16 22.14 306.994 22.44 306.86 22.8C306.74 23.1467 306.68 23.56 306.68 24.04V28.78C306.68 29.1267 306.567 29.42 306.34 29.66C306.114 29.8867 305.827 30 305.48 30ZM321.263 15.2C321.61 15.2 321.896 15.3133 322.123 15.54C322.35 15.7667 322.463 16.06 322.463 16.42V28.78C322.463 29.1267 322.35 29.42 322.123 29.66C321.896 29.8867 321.61 30 321.263 30C320.916 30 320.63 29.8867 320.403 29.66C320.176 29.42 320.063 29.1267 320.063 28.78V27.8L320.503 27.98C320.503 28.1533 320.41 28.3667 320.223 28.62C320.036 28.86 319.783 29.1 319.463 29.34C319.143 29.58 318.763 29.7867 318.323 29.96C317.896 30.12 317.43 30.2 316.923 30.2C316.003 30.2 315.17 29.9667 314.423 29.5C313.676 29.02 313.083 28.3667 312.643 27.54C312.216 26.7 312.003 25.74 312.003 24.66C312.003 23.5667 312.216 22.6067 312.643 21.78C313.083 20.94 313.67 20.2867 314.403 19.82C315.136 19.34 315.95 19.1 316.843 19.1C317.416 19.1 317.943 19.1867 318.423 19.36C318.903 19.5333 319.316 19.7533 319.663 20.02C320.023 20.2867 320.296 20.56 320.483 20.84C320.683 21.1067 320.783 21.3333 320.783 21.52L320.063 21.78V16.42C320.063 16.0733 320.176 15.7867 320.403 15.56C320.63 15.32 320.916 15.2 321.263 15.2ZM317.223 28C317.81 28 318.323 27.8533 318.763 27.56C319.203 27.2667 319.543 26.8667 319.783 26.36C320.036 25.8533 320.163 25.2867 320.163 24.66C320.163 24.02 320.036 23.4467 319.783 22.94C319.543 22.4333 319.203 22.0333 318.763 21.74C318.323 21.4467 317.81 21.3 317.223 21.3C316.65 21.3 316.143 21.4467 315.703 21.74C315.263 22.0333 314.916 22.4333 314.663 22.94C314.423 23.4467 314.303 24.02 314.303 24.66C314.303 25.2867 314.423 25.8533 314.663 26.36C314.916 26.8667 315.263 27.2667 315.703 27.56C316.143 27.8533 316.65 28 317.223 28Z" fill="white"/>
</svg>
