<svg width="32" height="32" viewBox="0 0 32 32" fill="none" xmlns="http://www.w3.org/2000/svg">
<path fill-rule="evenodd" clip-rule="evenodd" d="M4.5122 3.28049C4.07178 3.28049 3.28049 3.79878 3.28049 5.01901V26.981C3.28049 28.2012 4.07177 28.7195 4.5122 28.7195H27.4878C27.9283 28.7195 28.7195 28.2013 28.7195 26.981V5.01901C28.7195 3.79877 27.9282 3.28049 27.4878 3.28049H4.5122ZM0 5.01901C0 2.50716 1.78034 0 4.5122 0H27.4878C30.2197 0 32 2.50717 32 5.01901V26.981C32 29.4929 30.2197 32 27.4878 32H4.5122C1.78036 32 0 29.4929 0 26.981V5.01901Z" fill="black"/>
</svg>
