<svg width="173" height="172" viewBox="0 0 173 172" fill="none" xmlns="http://www.w3.org/2000/svg">
<circle cx="86.544" cy="85.9585" r="84.9585" fill="#F29446" stroke="black" stroke-width="2"/>
<mask id="path-2-inside-1_12_3160" fill="white">
<path d="M86.544 0C102.588 1.91321e-07 118.311 4.49013 131.936 12.9624C145.56 21.4346 156.542 33.5508 163.638 47.9401C170.734 62.3294 173.661 78.4174 172.089 94.384C170.516 110.351 164.506 125.558 154.739 138.287C144.973 151.015 131.838 160.756 116.823 166.408C101.807 172.059 85.5098 173.395 69.7743 170.265C54.0387 167.135 39.4932 159.664 27.7834 148.697C16.0735 137.729 7.66685 123.703 3.5144 108.206L86.544 85.9585V0Z"/>
</mask>
<path d="M86.544 0C102.588 1.91321e-07 118.311 4.49013 131.936 12.9624C145.56 21.4346 156.542 33.5508 163.638 47.9401C170.734 62.3294 173.661 78.4174 172.089 94.384C170.516 110.351 164.506 125.558 154.739 138.287C144.973 151.015 131.838 160.756 116.823 166.408C101.807 172.059 85.5098 173.395 69.7743 170.265C54.0387 167.135 39.4932 159.664 27.7834 148.697C16.0735 137.729 7.66685 123.703 3.5144 108.206L86.544 85.9585V0Z" fill="white" stroke="black" stroke-width="4" mask="url(#path-2-inside-1_12_3160)"/>
</svg>
