<svg width="27" height="31" viewBox="0 0 27 31" fill="none" xmlns="http://www.w3.org/2000/svg">
<path d="M6.64929 1C9.30778 1 8.65666 1 11.9663 1C14.8628 1 17.9479 0.999978 20.7763 1.48254" stroke="white" stroke-opacity="0.7" stroke-width="2" stroke-linecap="round" stroke-linejoin="round"/>
<path d="M1.23749 7.34644C1.63512 14.4978 1.23749 18.0078 1.23749 25.6479" stroke="white" stroke-opacity="0.7" stroke-width="2" stroke-linecap="round" stroke-linejoin="round"/>
<path d="M1 26.0888C3.56476 26.4114 5.03033 26.7797 5.03033 26.7797" stroke="white" stroke-opacity="0.7" stroke-width="2" stroke-linecap="round" stroke-linejoin="round"/>
<path d="M21.1381 1.96497V3.20969" stroke="white" stroke-opacity="0.7" stroke-width="2" stroke-linecap="round" stroke-linejoin="round"/>
<path d="M1.66461 7.26806C2.15485 6.62496 3.52539 5.04823 4.49217 4.00021C5.01863 3.42951 6.93623 1 6.93623 1" stroke="white" stroke-opacity="0.7" stroke-width="2" stroke-linecap="round" stroke-linejoin="round"/>
<path d="M7.68502 1.73657C7.44545 2.48908 7.54767 3.33833 7.54767 4.12196C7.54767 4.58574 7.63805 5.15097 7.51333 5.60228C7.3507 6.19075 7.3506 6.93188 7.61634 7.4661" stroke="white" stroke-opacity="0.7" stroke-width="2" stroke-linecap="round" stroke-linejoin="round"/>
<path d="M2.46558 8.15637C3.19931 8.14271 3.92732 8.08734 4.66323 8.08734C5.15385 8.08734 5.76736 8.18557 6.24279 8.05283C6.64488 7.94056 7.26514 8.11558 7.61633 7.88025" stroke="white" stroke-opacity="0.7" stroke-width="2" stroke-linecap="round" stroke-linejoin="round"/>
<path d="M11.046 3.94623C13.7045 3.94623 13.0534 3.94623 16.363 3.94623C19.2596 3.94623 22.3446 3.94621 25.173 4.42877" stroke="white" stroke-opacity="0.7" stroke-width="2" stroke-linecap="round" stroke-linejoin="round"/>
<path d="M5.63422 10.2927C6.03185 17.4441 5.63422 20.9541 5.63422 28.5942" stroke="white" stroke-opacity="0.7" stroke-width="2" stroke-linecap="round" stroke-linejoin="round"/>
<path d="M5.39673 29.035C12.2827 31.2062 19.1475 29.035 26 29.035" stroke="white" stroke-opacity="0.7" stroke-width="2" stroke-linecap="round" stroke-linejoin="round"/>
<path d="M25.5348 4.91119C25.5348 7.71203 25.5348 10.8957 25.5348 13.5958C25.5348 15.5181 25.5348 16.9079 25.5348 18.903C25.5348 20.7417 25.5348 23.0781 25.5348 24.9168C25.5348 25.8023 25.5348 29.5175 25.5348 28.5526" stroke="white" stroke-opacity="0.7" stroke-width="2" stroke-linecap="round" stroke-linejoin="round"/>
<path d="M6.06134 10.2143C6.55158 9.57119 7.92212 7.99446 8.8889 6.94644C9.41536 6.37574 11.333 3.94623 11.333 3.94623" stroke="white" stroke-opacity="0.7" stroke-width="2" stroke-linecap="round" stroke-linejoin="round"/>
<path d="M5.72906 10.6267L11.3783 4.28027H25.3354L25.6677 28.9979L18.0246 29.666L11.3783 30L5.72906 28.9979V10.6267Z" stroke="white" stroke-opacity="0.7"/>
<path d="M12.0817 4.6828C11.8422 5.43531 11.9444 6.28456 11.9444 7.06818C11.9444 7.53197 12.0348 8.0972 11.9101 8.5485C11.7474 9.13698 11.7473 9.87811 12.0131 10.4123" stroke="white" stroke-opacity="0.7" stroke-width="2" stroke-linecap="round" stroke-linejoin="round"/>
<path d="M6.8623 11.1026C7.59604 11.0889 8.32405 11.0336 9.05996 11.0336C9.55058 11.0336 10.1641 11.1318 10.6395 10.9991C11.0416 10.8868 11.6619 11.0618 12.0131 10.8265" stroke="white" stroke-opacity="0.7" stroke-width="2" stroke-linecap="round" stroke-linejoin="round"/>
</svg>
