<svg width="27" height="31" viewBox="0 0 27 31" fill="none" xmlns="http://www.w3.org/2000/svg">
<path d="M6.64929 1C9.30778 1 8.65666 1 11.9663 1C14.8628 1 17.9479 0.999978 20.7763 1.48254" stroke="white" stroke-width="2" stroke-linecap="round" stroke-linejoin="round"/>
<path d="M1.23749 7.34619C1.63512 14.4976 1.23749 18.0076 1.23749 25.6477" stroke="white" stroke-width="2" stroke-linecap="round" stroke-linejoin="round"/>
<path d="M1 26.0889C3.56476 26.4115 5.03033 26.7797 5.03033 26.7797" stroke="white" stroke-width="2" stroke-linecap="round" stroke-linejoin="round"/>
<path d="M21.1381 1.96484V3.20957" stroke="white" stroke-width="2" stroke-linecap="round" stroke-linejoin="round"/>
<path d="M1.66461 7.26806C2.15485 6.62496 3.52539 5.04823 4.49217 4.00021C5.01863 3.42951 6.93623 1 6.93623 1" stroke="white" stroke-width="2" stroke-linecap="round" stroke-linejoin="round"/>
<path d="M7.68502 1.73633C7.44545 2.48884 7.54767 3.33809 7.54767 4.12171C7.54767 4.5855 7.63805 5.15073 7.51333 5.60203C7.3507 6.19051 7.3506 6.93163 7.61634 7.46585" stroke="white" stroke-width="2" stroke-linecap="round" stroke-linejoin="round"/>
<path d="M2.46558 8.15649C3.19931 8.14283 3.92732 8.08746 4.66323 8.08746C5.15385 8.08746 5.76736 8.18569 6.24279 8.05295C6.64488 7.94068 7.26514 8.1157 7.61633 7.88037" stroke="white" stroke-width="2" stroke-linecap="round" stroke-linejoin="round"/>
<path d="M11.046 3.94629C13.7045 3.94629 13.0534 3.94629 16.363 3.94629C19.2596 3.94629 22.3446 3.94627 25.173 4.42883" stroke="white" stroke-width="2" stroke-linecap="round" stroke-linejoin="round"/>
<path d="M5.63422 10.2925C6.03185 17.4439 5.63422 20.9539 5.63422 28.594" stroke="white" stroke-width="2" stroke-linecap="round" stroke-linejoin="round"/>
<path d="M5.39673 29.0352C12.2827 31.2063 19.1475 29.0352 26 29.0352" stroke="white" stroke-width="2" stroke-linecap="round" stroke-linejoin="round"/>
<path d="M25.5348 4.91113C25.5348 7.71197 25.5348 10.8957 25.5348 13.5957C25.5348 15.518 25.5348 16.9078 25.5348 18.903C25.5348 20.7416 25.5348 23.0781 25.5348 24.9168C25.5348 25.8023 25.5348 29.5175 25.5348 28.5525" stroke="white" stroke-width="2" stroke-linecap="round" stroke-linejoin="round"/>
<path d="M6.06134 10.2143C6.55158 9.57125 7.92212 7.99452 8.8889 6.9465C9.41536 6.3758 11.333 3.94629 11.333 3.94629" stroke="white" stroke-width="2" stroke-linecap="round" stroke-linejoin="round"/>
<path d="M5.72906 10.6267L11.3783 4.28027H25.3354L25.6677 28.9979L18.0246 29.666L11.3783 30L5.72906 28.9979V10.6267Z" stroke="white"/>
<path d="M12.0817 4.68262C11.8422 5.43512 11.9444 6.28437 11.9444 7.068C11.9444 7.53179 12.0348 8.09702 11.9101 8.54832C11.7474 9.1368 11.7473 9.87792 12.0131 10.4121" stroke="white" stroke-width="2" stroke-linecap="round" stroke-linejoin="round"/>
<path d="M6.8623 11.1028C7.59604 11.0891 8.32405 11.0338 9.05996 11.0338C9.55058 11.0338 10.1641 11.132 10.6395 10.9992C11.0416 10.887 11.6619 11.062 12.0131 10.8267" stroke="white" stroke-width="2" stroke-linecap="round" stroke-linejoin="round"/>
</svg>
