<svg width="33" height="33" viewBox="0 0 33 33" fill="none" xmlns="http://www.w3.org/2000/svg">
<path fill-rule="evenodd" clip-rule="evenodd" d="M16.5 0C7.3873 0 0 7.3873 0 16.5C0 25.6126 7.38729 33 16.5 33C25.6126 33 33 25.6126 33 16.5C33 7.38729 25.6126 0 16.5 0ZM3.23256 16.5C3.23256 9.17259 9.17259 3.23256 16.5 3.23256C23.8273 3.23256 29.7674 9.1726 29.7674 16.5C29.7674 23.8273 23.8273 29.7674 16.5 29.7674C9.1726 29.7674 3.23256 23.8273 3.23256 16.5ZM16.5 5.9535C15.6073 5.9535 14.8837 6.67713 14.8837 7.56978V16.5C14.8837 17.3927 15.6073 18.1163 16.5 18.1163H25.4302C26.3229 18.1163 27.0465 17.3927 27.0465 16.5C27.0465 15.6074 26.3229 14.8837 25.4302 14.8837H18.1163V7.56978C18.1163 6.67713 17.3926 5.9535 16.5 5.9535Z" fill="black"/>
</svg>
