<svg width="47" height="32" viewBox="0 0 47 32" fill="none" xmlns="http://www.w3.org/2000/svg">
<path d="M2.25513 1.77566C8.98225 1.77566 15.5334 1.24641 22.2717 1.24641C26.2534 1.24641 30.2351 1.24641 34.2168 1.24641C35.3652 1.24641 43.3946 0.544001 43.879 1.51103" stroke="black" stroke-width="2" stroke-linecap="round" stroke-linejoin="round"/>
<path d="M1.1947 1.96472C0.756608 4.69771 1.1947 8.57148 1.1947 11.3023C1.1947 12.5975 1.19473 14.0237 1.19473 14.0237L1.72492 23.6708C1.72492 25.6984 1.72492 28.8818 1.72492 30.9062" stroke="black" stroke-width="2" stroke-linecap="round" stroke-linejoin="round"/>
<path d="M1.1947 31C5.65325 30.1316 10.2964 30.4707 14.8337 30.4707C16.606 30.4707 18.3784 30.4707 20.1508 30.4707C21.5718 30.4707 24.1494 31.326 25.4532 30.603C26.6028 29.9656 29.1706 30.2061 30.4168 30.2061C32.5869 30.2061 34.757 30.2061 36.927 30.2061C39.9 30.2061 42.957 29.9415 46 29.9415" stroke="black" stroke-width="2" stroke-linecap="round" stroke-linejoin="round"/>
<path d="M44.9395 2.04028C44.9395 6.55657 44.9395 10.9255 44.9395 15.4707C44.9395 17.949 44.9395 20.7745 44.9395 23.1885C44.9395 25.188 45.1708 27.4649 45.1708 29.4591" stroke="black" stroke-width="2" stroke-linecap="round" stroke-linejoin="round"/>
<path d="M3.58081 4.68652C4.98876 5.40353 8.44356 8.71768 8.44356 8.71768L15.2091 14.0236C15.2091 14.0236 20.5249 18.8472 24.391 21.259" stroke="black" stroke-width="2" stroke-linecap="round" stroke-linejoin="round"/>
<path d="M42.8185 2.56952C39.4454 5.93639 36.5503 9.6437 33.2152 13.0958C31.4161 14.9581 29.6427 16.8197 27.7655 18.506C27.0939 19.1094 26.4395 19.8573 25.7182 20.4172C25.4994 20.5871 24.1025 21.4368 24.7903 21.0935" stroke="black" stroke-width="2" stroke-linecap="round" stroke-linejoin="round"/>
</svg>
