<svg width="35" height="35" viewBox="0 0 35 35" fill="none" xmlns="http://www.w3.org/2000/svg">
<path fill-rule="evenodd" clip-rule="evenodd" d="M21.4466 2.48735C21.4466 1.11367 22.5602 0 23.934 0H32.5126C33.8865 0 35 1.11367 35 2.48735V32.5126C35 33.8864 33.8864 35 32.5126 35H2.48735C1.11367 35 0 33.8865 0 32.5126V25.7212C0 24.3474 1.11367 23.2339 2.48735 23.2339H10.7233V13.2107C10.7233 11.8369 11.8369 10.7233 13.2107 10.7233H21.4466V2.48735ZM21.4466 13.5534H13.5534V32.17H21.4466V13.5534ZM24.2767 32.17H32.17V2.83003H24.2767V32.17ZM10.7233 32.17V26.0639H2.83003V32.17H10.7233Z" fill="white" fill-opacity="0.7"/>
</svg>
