<svg width="180" height="43" viewBox="0 0 180 43" fill="none" xmlns="http://www.w3.org/2000/svg">
<rect x="1" y="1" width="178" height="41" rx="9" fill="#545FDF" stroke="black" stroke-width="2" stroke-linejoin="round"/>
<path d="M68.7609 16.68C69.1076 16.8533 69.3076 17.1267 69.3609 17.5C69.4276 17.8733 69.3343 18.2133 69.0809 18.52C68.9076 18.76 68.6809 18.8933 68.4009 18.92C68.1343 18.9467 67.8609 18.8933 67.5809 18.76C67.2609 18.6133 66.9209 18.5 66.5609 18.42C66.2143 18.34 65.8476 18.3 65.4609 18.3C64.7409 18.3 64.0943 18.4133 63.5209 18.64C62.9609 18.8667 62.4809 19.1933 62.0809 19.62C61.6809 20.0333 61.3743 20.5267 61.1609 21.1C60.9609 21.6733 60.8609 22.3067 60.8609 23C60.8609 23.8133 60.9743 24.52 61.2009 25.12C61.4409 25.72 61.7676 26.22 62.1809 26.62C62.5943 27.02 63.0809 27.32 63.6409 27.52C64.2009 27.7067 64.8076 27.8 65.4609 27.8C65.8209 27.8 66.1809 27.7667 66.5409 27.7C66.9009 27.6333 67.2476 27.5133 67.5809 27.34C67.8609 27.2067 68.1343 27.16 68.4009 27.2C68.6809 27.24 68.9143 27.38 69.1009 27.62C69.3676 27.9533 69.4609 28.3 69.3809 28.66C69.3143 29.0067 69.1143 29.26 68.7809 29.42C68.4343 29.5933 68.0743 29.74 67.7009 29.86C67.3409 29.9667 66.9743 30.0467 66.6009 30.1C66.2276 30.1667 65.8476 30.2 65.4609 30.2C64.5009 30.2 63.5876 30.0467 62.7209 29.74C61.8676 29.4333 61.1009 28.98 60.4209 28.38C59.7543 27.78 59.2276 27.0333 58.8409 26.14C58.4543 25.2333 58.2609 24.1867 58.2609 23C58.2609 21.9733 58.4343 21.0267 58.7809 20.16C59.1409 19.2933 59.6409 18.5467 60.2809 17.92C60.9343 17.28 61.7009 16.7867 62.5809 16.44C63.4609 16.08 64.4209 15.9 65.4609 15.9C66.0476 15.9 66.6209 15.9667 67.1809 16.1C67.7409 16.2333 68.2676 16.4267 68.7609 16.68ZM72.5 30C72.1533 30 71.8667 29.8867 71.64 29.66C71.4133 29.42 71.3 29.1267 71.3 28.78V20.52C71.3 20.1733 71.4133 19.8867 71.64 19.66C71.8667 19.42 72.1533 19.3 72.5 19.3C72.8467 19.3 73.1333 19.42 73.36 19.66C73.5867 19.8867 73.7 20.1733 73.7 20.52V22.4L73.56 21.06C73.7067 20.74 73.8933 20.46 74.12 20.22C74.36 19.9667 74.6267 19.76 74.92 19.6C75.2133 19.4267 75.5267 19.3 75.86 19.22C76.1933 19.14 76.5267 19.1 76.86 19.1C77.26 19.1 77.5933 19.2133 77.86 19.44C78.14 19.6667 78.28 19.9333 78.28 20.24C78.28 20.68 78.1667 21 77.94 21.2C77.7133 21.3867 77.4667 21.48 77.2 21.48C76.9467 21.48 76.7133 21.4333 76.5 21.34C76.3 21.2467 76.0667 21.2 75.8 21.2C75.56 21.2 75.3133 21.26 75.06 21.38C74.82 21.4867 74.5933 21.66 74.38 21.9C74.18 22.14 74.0133 22.44 73.88 22.8C73.76 23.1467 73.7 23.56 73.7 24.04V28.78C73.7 29.1267 73.5867 29.42 73.36 29.66C73.1333 29.8867 72.8467 30 72.5 30ZM84.5627 30.2C83.4293 30.2 82.4427 29.9667 81.6027 29.5C80.776 29.02 80.136 28.3733 79.6827 27.56C79.2427 26.7467 79.0227 25.8267 79.0227 24.8C79.0227 23.6 79.2627 22.58 79.7427 21.74C80.236 20.8867 80.876 20.2333 81.6627 19.78C82.4493 19.3267 83.2827 19.1 84.1627 19.1C84.8427 19.1 85.4827 19.24 86.0827 19.52C86.696 19.8 87.236 20.1867 87.7027 20.68C88.1693 21.16 88.536 21.72 88.8027 22.36C89.0827 23 89.2227 23.68 89.2227 24.4C89.2093 24.72 89.0827 24.98 88.8427 25.18C88.6027 25.38 88.3227 25.48 88.0027 25.48H80.3627L79.7627 23.48H87.1027L86.6627 23.88V23.34C86.636 22.9533 86.496 22.6067 86.2427 22.3C86.0027 21.9933 85.696 21.7533 85.3227 21.58C84.9627 21.3933 84.576 21.3 84.1627 21.3C83.7627 21.3 83.3893 21.3533 83.0427 21.46C82.696 21.5667 82.396 21.7467 82.1427 22C81.8893 22.2533 81.6893 22.5933 81.5427 23.02C81.396 23.4467 81.3227 23.9867 81.3227 24.64C81.3227 25.36 81.4693 25.9733 81.7627 26.48C82.0693 26.9733 82.456 27.3533 82.9227 27.62C83.4027 27.8733 83.9093 28 84.4427 28C84.936 28 85.3293 27.96 85.6227 27.88C85.916 27.8 86.1493 27.7067 86.3227 27.6C86.5093 27.48 86.676 27.38 86.8227 27.3C87.0627 27.18 87.2893 27.12 87.5027 27.12C87.796 27.12 88.036 27.22 88.2227 27.42C88.4227 27.62 88.5227 27.8533 88.5227 28.12C88.5227 28.48 88.336 28.8067 87.9627 29.1C87.616 29.3933 87.1293 29.6533 86.5027 29.88C85.876 30.0933 85.2293 30.2 84.5627 30.2ZM100.158 19.1C100.504 19.1 100.791 19.2133 101.018 19.44C101.244 19.6667 101.358 19.96 101.358 20.32V28.78C101.358 29.1267 101.244 29.42 101.018 29.66C100.791 29.8867 100.504 30 100.158 30C99.811 30 99.5243 29.8867 99.2977 29.66C99.071 29.42 98.9577 29.1267 98.9577 28.78V27.8L99.3977 27.98C99.3977 28.1533 99.3043 28.3667 99.1177 28.62C98.931 28.86 98.6777 29.1 98.3577 29.34C98.0377 29.58 97.6577 29.7867 97.2177 29.96C96.791 30.12 96.3243 30.2 95.8177 30.2C94.8977 30.2 94.0643 29.9667 93.3177 29.5C92.571 29.02 91.9777 28.3667 91.5377 27.54C91.111 26.7 90.8977 25.74 90.8977 24.66C90.8977 23.5667 91.111 22.6067 91.5377 21.78C91.9777 20.94 92.5643 20.2867 93.2977 19.82C94.031 19.34 94.8443 19.1 95.7377 19.1C96.311 19.1 96.8377 19.1867 97.3177 19.36C97.7977 19.5333 98.211 19.7533 98.5577 20.02C98.9177 20.2867 99.191 20.56 99.3777 20.84C99.5777 21.1067 99.6777 21.3333 99.6777 21.52L98.9577 21.78V20.32C98.9577 19.9733 99.071 19.6867 99.2977 19.46C99.5243 19.22 99.811 19.1 100.158 19.1ZM96.1177 28C96.7043 28 97.2177 27.8533 97.6577 27.56C98.0977 27.2667 98.4377 26.8667 98.6777 26.36C98.931 25.8533 99.0577 25.2867 99.0577 24.66C99.0577 24.02 98.931 23.4467 98.6777 22.94C98.4377 22.4333 98.0977 22.0333 97.6577 21.74C97.2177 21.4467 96.7043 21.3 96.1177 21.3C95.5443 21.3 95.0377 21.4467 94.5977 21.74C94.1577 22.0333 93.811 22.4333 93.5577 22.94C93.3177 23.4467 93.1977 24.02 93.1977 24.66C93.1977 25.2867 93.3177 25.8533 93.5577 26.36C93.811 26.8667 94.1577 27.2667 94.5977 27.56C95.0377 27.8533 95.5443 28 96.1177 28ZM104.076 19.5H108.816C109.136 19.5 109.403 19.6067 109.616 19.82C109.83 20.0333 109.936 20.3 109.936 20.62C109.936 20.9267 109.83 21.1867 109.616 21.4C109.403 21.6 109.136 21.7 108.816 21.7H104.076C103.756 21.7 103.49 21.5933 103.276 21.38C103.063 21.1667 102.956 20.9 102.956 20.58C102.956 20.2733 103.063 20.02 103.276 19.82C103.49 19.6067 103.756 19.5 104.076 19.5ZM106.216 17C106.563 17 106.843 17.12 107.056 17.36C107.283 17.5867 107.396 17.8733 107.396 18.22V27.12C107.396 27.3067 107.43 27.46 107.496 27.58C107.576 27.7 107.676 27.7867 107.796 27.84C107.93 27.8933 108.07 27.92 108.216 27.92C108.376 27.92 108.523 27.8933 108.656 27.84C108.79 27.7733 108.943 27.74 109.116 27.74C109.303 27.74 109.47 27.8267 109.616 28C109.776 28.1733 109.856 28.4133 109.856 28.72C109.856 29.0933 109.65 29.4 109.236 29.64C108.836 29.88 108.403 30 107.936 30C107.656 30 107.343 29.98 106.996 29.94C106.663 29.8867 106.343 29.7733 106.036 29.6C105.743 29.4133 105.496 29.1333 105.296 28.76C105.096 28.3867 104.996 27.8733 104.996 27.22V18.22C104.996 17.8733 105.11 17.5867 105.336 17.36C105.576 17.12 105.87 17 106.216 17ZM117.082 30.2C115.949 30.2 114.962 29.9667 114.122 29.5C113.296 29.02 112.656 28.3733 112.202 27.56C111.762 26.7467 111.542 25.8267 111.542 24.8C111.542 23.6 111.782 22.58 112.262 21.74C112.756 20.8867 113.396 20.2333 114.182 19.78C114.969 19.3267 115.802 19.1 116.682 19.1C117.362 19.1 118.002 19.24 118.602 19.52C119.216 19.8 119.756 20.1867 120.222 20.68C120.689 21.16 121.056 21.72 121.322 22.36C121.602 23 121.742 23.68 121.742 24.4C121.729 24.72 121.602 24.98 121.362 25.18C121.122 25.38 120.842 25.48 120.522 25.48H112.882L112.282 23.48H119.622L119.182 23.88V23.34C119.156 22.9533 119.016 22.6067 118.762 22.3C118.522 21.9933 118.216 21.7533 117.842 21.58C117.482 21.3933 117.096 21.3 116.682 21.3C116.282 21.3 115.909 21.3533 115.562 21.46C115.216 21.5667 114.916 21.7467 114.662 22C114.409 22.2533 114.209 22.5933 114.062 23.02C113.916 23.4467 113.842 23.9867 113.842 24.64C113.842 25.36 113.989 25.9733 114.282 26.48C114.589 26.9733 114.976 27.3533 115.442 27.62C115.922 27.8733 116.429 28 116.962 28C117.456 28 117.849 27.96 118.142 27.88C118.436 27.8 118.669 27.7067 118.842 27.6C119.029 27.48 119.196 27.38 119.342 27.3C119.582 27.18 119.809 27.12 120.022 27.12C120.316 27.12 120.556 27.22 120.742 27.42C120.942 27.62 121.042 27.8533 121.042 28.12C121.042 28.48 120.856 28.8067 120.482 29.1C120.136 29.3933 119.649 29.6533 119.022 29.88C118.396 30.0933 117.749 30.2 117.082 30.2Z" fill="white"/>
</svg>
