<svg width="47" height="44" viewBox="0 0 47 44" fill="none" xmlns="http://www.w3.org/2000/svg">
<path d="M45.6562 41.1304C38.4516 41.1304 31.4476 41.0967 24.1055 41.0967C20.9532 41.0967 17.664 39.9996 14.5004 39.9996C12.4484 39.9996 10.8213 41.3027 8.76928 41.3027C6.55782 41.3027 3.43418 40.9265 1.25702 41.1355" stroke="black" stroke-width="2" stroke-linecap="round" stroke-linejoin="round"/>
<path d="M46 41.2559C45.9821 41.0358 46 35.0889 46 31.7515C45.7917 28.5907 45.9117 25.3399 45.9116 21.7469C45.9116 15.5555 45.9117 7.17497 45.9116 0.999958" stroke="black" stroke-width="2" stroke-linecap="round" stroke-linejoin="round"/>
<path d="M45.2383 2.21414C41.0346 2.21414 36.9906 2.21414 32.4683 2.21414C28.6872 2.21414 25.107 3 21.2516 3C19.4472 3 17.4775 2.21414 15.673 2.21414C13.9267 2.21414 11.1622 2.21414 9.14921 2.21414C5.74303 2.21414 2.7706 2.21414 1.02481 2.21414" stroke="black" stroke-width="2" stroke-linecap="round" stroke-linejoin="round"/>
<path d="M1.00136 42.4941C1.00136 39.1241 1.00136 35.4276 1.00136 32.1206C1.00136 28.5267 1.10375 26.1929 1.00136 22.2411C1.00136 15.67 1.00136 9.45363 1.00136 2.97607" stroke="black" stroke-width="2" stroke-linecap="round" stroke-linejoin="round"/>
<path d="M1.54471 3.46988C1.72687 13.9206 1.75 32.1205 1.75 42" stroke="black" stroke-linecap="round" stroke-linejoin="round"/>
<path d="M45.2486 0.999834C45.2486 11.5077 44.7241 26.0036 45.3984 41.5059" stroke="black" stroke-width="0.5" stroke-linecap="round" stroke-linejoin="round"/>
<path d="M45.4804 1.98802C45.6575 11.6174 45.7461 31.1545 45.7461 41.0059" stroke="black" stroke-linecap="round" stroke-linejoin="round"/>
<path d="M15.3203 13.8584C16.58 13.0185 17.8794 13.2137 19.2785 13.2137C20.3552 13.2137 21.106 13.2137 22.7132 13.2075C23.356 13.205 23.9699 13.2075 24.6417 13.2075C25.3649 13.2271 25.9456 13.2137 26.6551 13.2137C27.7919 13.2137 29.5939 12.9988 30.7489 12.9988C31.2578 12.9988 32.9981 12.767 32.6775 13.5329" stroke="black" stroke-width="2" stroke-linecap="round" stroke-linejoin="round"/>
<path d="M15.3203 14.5088C15.3203 18.153 15.6417 20.978 15.6417 24.5976C15.6417 25.583 15.6417 26.5503 15.6417 28.1775C15.6417 28.8255 15.6417 29.8048 15.6417 30.4557C15.6417 31.1066 15.6417 31.7726 15.6417 32.4083" stroke="black" stroke-width="2" stroke-linecap="round" stroke-linejoin="round"/>
<path d="M15.9648 32.7344C17.7432 34.0677 18.7005 34.2961 20.7863 34.6871C21.6038 34.8403 23.8115 35.0004 24.6434 35.0004C25.4631 35.0004 27.2148 34.8823 28.1791 34.6871C29.7863 34.3616 31.8041 33.5567 33.0006 32.7344" stroke="black" stroke-width="2" stroke-linecap="round" stroke-linejoin="round"/>
<path d="M32.6758 13.8584C32.6758 14.8347 32.6758 15.4236 32.6758 15.8111C32.6758 16.7003 32.6758 17.2309 32.6758 18.0892C32.6758 20.2475 32.8078 21.866 32.8901 23.9863C32.9595 25.7775 32.9972 27.3336 32.9972 29.1544C32.9972 30.6396 32.9972 31.3386 32.9972 32.7343" stroke="black" stroke-width="2" stroke-linecap="round" stroke-linejoin="round"/>
<path d="M15.3203 15.811C16.9512 15.7582 18.2318 15.4856 19.8203 15.4856C21.3957 15.4856 23.1065 15.562 24.6417 15.4856C26.0514 15.4154 27.4167 15.1601 28.8203 15.1601C29.3485 15.1601 31.5332 14.99 32.0346 14.8347C33.0969 14.5057 32.921 14.8347 32.356 14.8347" stroke="black" stroke-width="2" stroke-linecap="round" stroke-linejoin="round"/>
<path d="M19.8203 17.1133C20.1809 20.1107 20.1417 23.1958 20.1417 26.2258C20.1417 27.9721 20.1417 30.0836 20.1417 31.7584" stroke="black" stroke-width="2" stroke-linecap="round" stroke-linejoin="round"/>
<path d="M24.6406 17.4385C24.6406 20.3675 24.9621 25.1191 24.9621 28.1782C24.9621 28.8732 25.0424 31.4327 25.0424 32.0836" stroke="black" stroke-width="2" stroke-linecap="round" stroke-linejoin="round"/>
<path d="M29.3711 17.1133C29.3711 19.066 29.3711 21.0186 29.3711 22.6459C29.3711 23.6095 29.3711 24.4188 29.3711 25.4721C29.3711 26.2258 29.7863 29.8057 29.7863 31.4329" stroke="black" stroke-width="2" stroke-linecap="round" stroke-linejoin="round"/>
<path d="M13.6328 12.681C14.7721 12.3935 16.7532 12.7698 17.8932 12.681C18.4677 12.6362 19.8218 12.681 20.786 12.681C22.3932 12.681 23.6789 12.4728 25.286 12.3555C26.8932 12.3555 27.2943 12.3555 28.8218 12.3555C29.5837 12.3555 30.3133 12.3555 31.0718 12.3555C31.4979 12.3555 34.1865 12.3554 34.8294 12.3555" stroke="black" stroke-width="2" stroke-linecap="round" stroke-linejoin="round"/>
<path d="M21.8526 12.0298C21.8526 10.929 21.4065 10.2741 22.3748 10.2741C22.9486 10.2741 23.3506 10.4692 23.9413 10.4692C24.5698 10.4692 25.0894 10.116 25.6819 10.0791C26.4793 10.0294 26.2041 10.9533 26.2041 11.6397" stroke="black" stroke-linecap="round" stroke-linejoin="round"/>
</svg>
