<svg width="478" height="43" viewBox="0 0 478 43" fill="none" xmlns="http://www.w3.org/2000/svg">
<rect x="1" y="1" width="476" height="41" rx="9" fill="#DDDFF4" stroke="black" stroke-width="2" stroke-linejoin="round"/>
<path d="M172.199 16C173.159 16 174.013 16.18 174.759 16.54C175.506 16.9 176.133 17.4067 176.639 18.06C177.159 18.7 177.546 19.4467 177.799 20.3C178.066 21.14 178.199 22.04 178.199 23C178.199 24.2933 177.966 25.4733 177.499 26.54C177.033 27.5933 176.353 28.4333 175.459 29.06C174.579 29.6867 173.493 30 172.199 30H167.419C167.073 30 166.779 29.8867 166.539 29.66C166.313 29.42 166.199 29.1267 166.199 28.78V17.22C166.199 16.8733 166.313 16.5867 166.539 16.36C166.779 16.12 167.073 16 167.419 16H172.199ZM171.999 27.7C172.839 27.7 173.526 27.4867 174.059 27.06C174.593 26.62 174.979 26.0467 175.219 25.34C175.473 24.62 175.599 23.84 175.599 23C175.599 22.3733 175.526 21.78 175.379 21.22C175.246 20.6467 175.033 20.1467 174.739 19.72C174.446 19.28 174.073 18.9333 173.619 18.68C173.166 18.4267 172.626 18.3 171.999 18.3H168.499L168.699 18.12V27.92L168.579 27.7H171.999ZM185.492 30.2C184.359 30.2 183.372 29.9667 182.532 29.5C181.706 29.02 181.066 28.3733 180.612 27.56C180.172 26.7467 179.952 25.8267 179.952 24.8C179.952 23.6 180.192 22.58 180.672 21.74C181.166 20.8867 181.806 20.2333 182.592 19.78C183.379 19.3267 184.212 19.1 185.092 19.1C185.772 19.1 186.412 19.24 187.012 19.52C187.626 19.8 188.166 20.1867 188.632 20.68C189.099 21.16 189.466 21.72 189.732 22.36C190.012 23 190.152 23.68 190.152 24.4C190.139 24.72 190.012 24.98 189.772 25.18C189.532 25.38 189.252 25.48 188.932 25.48H181.292L180.692 23.48H188.032L187.592 23.88V23.34C187.566 22.9533 187.426 22.6067 187.172 22.3C186.932 21.9933 186.626 21.7533 186.252 21.58C185.892 21.3933 185.506 21.3 185.092 21.3C184.692 21.3 184.319 21.3533 183.972 21.46C183.626 21.5667 183.326 21.7467 183.072 22C182.819 22.2533 182.619 22.5933 182.472 23.02C182.326 23.4467 182.252 23.9867 182.252 24.64C182.252 25.36 182.399 25.9733 182.692 26.48C182.999 26.9733 183.386 27.3533 183.852 27.62C184.332 27.8733 184.839 28 185.372 28C185.866 28 186.259 27.96 186.552 27.88C186.846 27.8 187.079 27.7067 187.252 27.6C187.439 27.48 187.606 27.38 187.752 27.3C187.992 27.18 188.219 27.12 188.432 27.12C188.726 27.12 188.966 27.22 189.152 27.42C189.352 27.62 189.452 27.8533 189.452 28.12C189.452 28.48 189.266 28.8067 188.892 29.1C188.546 29.3933 188.059 29.6533 187.432 29.88C186.806 30.0933 186.159 30.2 185.492 30.2ZM194.849 28.78C194.849 29.1267 194.729 29.42 194.489 29.66C194.263 29.8867 193.976 30 193.629 30C193.296 30 193.016 29.8867 192.789 29.66C192.563 29.42 192.449 29.1267 192.449 28.78V16.42C192.449 16.0733 192.563 15.7867 192.789 15.56C193.029 15.32 193.323 15.2 193.669 15.2C194.016 15.2 194.296 15.32 194.509 15.56C194.736 15.7867 194.849 16.0733 194.849 16.42V28.78ZM202.485 30.2C201.351 30.2 200.365 29.9667 199.525 29.5C198.698 29.02 198.058 28.3733 197.605 27.56C197.165 26.7467 196.945 25.8267 196.945 24.8C196.945 23.6 197.185 22.58 197.665 21.74C198.158 20.8867 198.798 20.2333 199.585 19.78C200.371 19.3267 201.205 19.1 202.085 19.1C202.765 19.1 203.405 19.24 204.005 19.52C204.618 19.8 205.158 20.1867 205.625 20.68C206.091 21.16 206.458 21.72 206.725 22.36C207.005 23 207.145 23.68 207.145 24.4C207.131 24.72 207.005 24.98 206.765 25.18C206.525 25.38 206.245 25.48 205.925 25.48H198.285L197.685 23.48H205.025L204.585 23.88V23.34C204.558 22.9533 204.418 22.6067 204.165 22.3C203.925 21.9933 203.618 21.7533 203.245 21.58C202.885 21.3933 202.498 21.3 202.085 21.3C201.685 21.3 201.311 21.3533 200.965 21.46C200.618 21.5667 200.318 21.7467 200.065 22C199.811 22.2533 199.611 22.5933 199.465 23.02C199.318 23.4467 199.245 23.9867 199.245 24.64C199.245 25.36 199.391 25.9733 199.685 26.48C199.991 26.9733 200.378 27.3533 200.845 27.62C201.325 27.8733 201.831 28 202.365 28C202.858 28 203.251 27.96 203.545 27.88C203.838 27.8 204.071 27.7067 204.245 27.6C204.431 27.48 204.598 27.38 204.745 27.3C204.985 27.18 205.211 27.12 205.425 27.12C205.718 27.12 205.958 27.22 206.145 27.42C206.345 27.62 206.445 27.8533 206.445 28.12C206.445 28.48 206.258 28.8067 205.885 29.1C205.538 29.3933 205.051 29.6533 204.425 29.88C203.798 30.0933 203.151 30.2 202.485 30.2ZM209.361 19.5H214.101C214.421 19.5 214.688 19.6067 214.901 19.82C215.115 20.0333 215.221 20.3 215.221 20.62C215.221 20.9267 215.115 21.1867 214.901 21.4C214.688 21.6 214.421 21.7 214.101 21.7H209.361C209.041 21.7 208.775 21.5933 208.561 21.38C208.348 21.1667 208.241 20.9 208.241 20.58C208.241 20.2733 208.348 20.02 208.561 19.82C208.775 19.6067 209.041 19.5 209.361 19.5ZM211.501 17C211.848 17 212.128 17.12 212.341 17.36C212.568 17.5867 212.681 17.8733 212.681 18.22V27.12C212.681 27.3067 212.715 27.46 212.781 27.58C212.861 27.7 212.961 27.7867 213.081 27.84C213.215 27.8933 213.355 27.92 213.501 27.92C213.661 27.92 213.808 27.8933 213.941 27.84C214.075 27.7733 214.228 27.74 214.401 27.74C214.588 27.74 214.755 27.8267 214.901 28C215.061 28.1733 215.141 28.4133 215.141 28.72C215.141 29.0933 214.935 29.4 214.521 29.64C214.121 29.88 213.688 30 213.221 30C212.941 30 212.628 29.98 212.281 29.94C211.948 29.8867 211.628 29.7733 211.321 29.6C211.028 29.4133 210.781 29.1333 210.581 28.76C210.381 28.3867 210.281 27.8733 210.281 27.22V18.22C210.281 17.8733 210.395 17.5867 210.621 17.36C210.861 17.12 211.155 17 211.501 17ZM222.367 30.2C221.234 30.2 220.247 29.9667 219.407 29.5C218.581 29.02 217.941 28.3733 217.487 27.56C217.047 26.7467 216.827 25.8267 216.827 24.8C216.827 23.6 217.067 22.58 217.547 21.74C218.041 20.8867 218.681 20.2333 219.467 19.78C220.254 19.3267 221.087 19.1 221.967 19.1C222.647 19.1 223.287 19.24 223.887 19.52C224.501 19.8 225.041 20.1867 225.507 20.68C225.974 21.16 226.341 21.72 226.607 22.36C226.887 23 227.027 23.68 227.027 24.4C227.014 24.72 226.887 24.98 226.647 25.18C226.407 25.38 226.127 25.48 225.807 25.48H218.167L217.567 23.48H224.907L224.467 23.88V23.34C224.441 22.9533 224.301 22.6067 224.047 22.3C223.807 21.9933 223.501 21.7533 223.127 21.58C222.767 21.3933 222.381 21.3 221.967 21.3C221.567 21.3 221.194 21.3533 220.847 21.46C220.501 21.5667 220.201 21.7467 219.947 22C219.694 22.2533 219.494 22.5933 219.347 23.02C219.201 23.4467 219.127 23.9867 219.127 24.64C219.127 25.36 219.274 25.9733 219.567 26.48C219.874 26.9733 220.261 27.3533 220.727 27.62C221.207 27.8733 221.714 28 222.247 28C222.741 28 223.134 27.96 223.427 27.88C223.721 27.8 223.954 27.7067 224.127 27.6C224.314 27.48 224.481 27.38 224.627 27.3C224.867 27.18 225.094 27.12 225.307 27.12C225.601 27.12 225.841 27.22 226.027 27.42C226.227 27.62 226.327 27.8533 226.327 28.12C226.327 28.48 226.141 28.8067 225.767 29.1C225.421 29.3933 224.934 29.6533 224.307 29.88C223.681 30.0933 223.034 30.2 222.367 30.2ZM240.07 19.14L235.75 29.3C235.656 29.5533 235.51 29.7533 235.31 29.9C235.123 30.0333 234.916 30.1 234.69 30.1C234.33 30.1 234.063 30 233.89 29.8C233.716 29.6 233.63 29.3533 233.63 29.06C233.63 28.94 233.65 28.8133 233.69 28.68L238.67 16.72C238.776 16.4533 238.936 16.2467 239.15 16.1C239.376 15.9533 239.616 15.8933 239.87 15.92C240.11 15.92 240.33 15.9933 240.53 16.14C240.743 16.2733 240.896 16.4667 240.99 16.72L245.91 28.44C245.976 28.6133 246.01 28.7733 246.01 28.92C246.01 29.28 245.89 29.5667 245.65 29.78C245.423 29.9933 245.17 30.1 244.89 30.1C244.65 30.1 244.43 30.0267 244.23 29.88C244.043 29.7333 243.896 29.5333 243.79 29.28L239.49 19.26L240.07 19.14ZM236.37 26.86L237.47 24.56H242.87L243.25 26.86H236.37ZM252.263 19.1C253.023 19.1 253.683 19.18 254.243 19.34C254.816 19.5 255.256 19.7267 255.563 20.02C255.883 20.3 256.043 20.64 256.043 21.04C256.043 21.3067 255.963 21.56 255.803 21.8C255.643 22.0267 255.41 22.14 255.103 22.14C254.89 22.14 254.71 22.1133 254.563 22.06C254.43 21.9933 254.31 21.9133 254.203 21.82C254.096 21.7267 253.97 21.64 253.823 21.56C253.69 21.48 253.483 21.42 253.203 21.38C252.936 21.3267 252.736 21.3 252.603 21.3C251.923 21.3 251.343 21.4467 250.863 21.74C250.396 22.0333 250.036 22.4333 249.783 22.94C249.53 23.4333 249.403 24.0067 249.403 24.66C249.403 25.3 249.53 25.8733 249.783 26.38C250.05 26.8733 250.41 27.2667 250.863 27.56C251.33 27.8533 251.863 28 252.463 28C252.796 28 253.083 27.98 253.323 27.94C253.563 27.9 253.763 27.84 253.923 27.76C254.11 27.6533 254.276 27.54 254.423 27.42C254.57 27.3 254.79 27.24 255.083 27.24C255.43 27.24 255.696 27.3533 255.883 27.58C256.07 27.7933 256.163 28.06 256.163 28.38C256.163 28.7133 255.976 29.02 255.603 29.3C255.23 29.5667 254.736 29.7867 254.123 29.96C253.523 30.12 252.87 30.2 252.163 30.2C251.11 30.2 250.196 29.96 249.423 29.48C248.65 28.9867 248.05 28.32 247.623 27.48C247.21 26.64 247.003 25.7 247.003 24.66C247.003 23.5667 247.223 22.6067 247.663 21.78C248.116 20.94 248.736 20.2867 249.523 19.82C250.323 19.34 251.236 19.1 252.263 19.1ZM262.654 19.1C263.414 19.1 264.074 19.18 264.634 19.34C265.207 19.5 265.647 19.7267 265.954 20.02C266.274 20.3 266.434 20.64 266.434 21.04C266.434 21.3067 266.354 21.56 266.194 21.8C266.034 22.0267 265.8 22.14 265.494 22.14C265.28 22.14 265.1 22.1133 264.954 22.06C264.82 21.9933 264.7 21.9133 264.594 21.82C264.487 21.7267 264.36 21.64 264.214 21.56C264.08 21.48 263.874 21.42 263.594 21.38C263.327 21.3267 263.127 21.3 262.994 21.3C262.314 21.3 261.734 21.4467 261.254 21.74C260.787 22.0333 260.427 22.4333 260.174 22.94C259.92 23.4333 259.794 24.0067 259.794 24.66C259.794 25.3 259.92 25.8733 260.174 26.38C260.44 26.8733 260.8 27.2667 261.254 27.56C261.72 27.8533 262.254 28 262.854 28C263.187 28 263.474 27.98 263.714 27.94C263.954 27.9 264.154 27.84 264.314 27.76C264.5 27.6533 264.667 27.54 264.814 27.42C264.96 27.3 265.18 27.24 265.474 27.24C265.82 27.24 266.087 27.3533 266.274 27.58C266.46 27.7933 266.554 28.06 266.554 28.38C266.554 28.7133 266.367 29.02 265.994 29.3C265.62 29.5667 265.127 29.7867 264.514 29.96C263.914 30.12 263.26 30.2 262.554 30.2C261.5 30.2 260.587 29.96 259.814 29.48C259.04 28.9867 258.44 28.32 258.014 27.48C257.6 26.64 257.394 25.7 257.394 24.66C257.394 23.5667 257.614 22.6067 258.054 21.78C258.507 20.94 259.127 20.2867 259.914 19.82C260.714 19.34 261.627 19.1 262.654 19.1ZM278.664 24.66C278.664 25.7533 278.418 26.72 277.924 27.56C277.444 28.3867 276.791 29.0333 275.964 29.5C275.151 29.9667 274.238 30.2 273.224 30.2C272.211 30.2 271.291 29.9667 270.464 29.5C269.651 29.0333 268.998 28.3867 268.504 27.56C268.024 26.72 267.784 25.7533 267.784 24.66C267.784 23.5667 268.024 22.6067 268.504 21.78C268.998 20.94 269.651 20.2867 270.464 19.82C271.291 19.34 272.211 19.1 273.224 19.1C274.238 19.1 275.151 19.34 275.964 19.82C276.791 20.2867 277.444 20.94 277.924 21.78C278.418 22.6067 278.664 23.5667 278.664 24.66ZM276.264 24.66C276.264 23.98 276.124 23.3933 275.844 22.9C275.578 22.3933 275.211 22 274.744 21.72C274.291 21.44 273.784 21.3 273.224 21.3C272.664 21.3 272.151 21.44 271.684 21.72C271.231 22 270.864 22.3933 270.584 22.9C270.318 23.3933 270.184 23.98 270.184 24.66C270.184 25.3267 270.318 25.9133 270.584 26.42C270.864 26.9133 271.231 27.3 271.684 27.58C272.151 27.86 272.664 28 273.224 28C273.784 28 274.291 27.86 274.744 27.58C275.211 27.3 275.578 26.9133 275.844 26.42C276.124 25.9133 276.264 25.3267 276.264 24.66ZM288.705 19.3C289.052 19.3 289.338 19.42 289.565 19.66C289.792 19.8867 289.905 20.1733 289.905 20.52V25.6C289.905 27.0133 289.512 28.1333 288.725 28.96C287.938 29.7867 286.805 30.2 285.325 30.2C283.845 30.2 282.712 29.7867 281.925 28.96C281.152 28.1333 280.765 27.0133 280.765 25.6V20.52C280.765 20.1733 280.878 19.8867 281.105 19.66C281.332 19.42 281.618 19.3 281.965 19.3C282.312 19.3 282.598 19.42 282.825 19.66C283.052 19.8867 283.165 20.1733 283.165 20.52V25.6C283.165 26.4133 283.345 27.02 283.705 27.42C284.065 27.8067 284.605 28 285.325 28C286.058 28 286.605 27.8067 286.965 27.42C287.325 27.02 287.505 26.4133 287.505 25.6V20.52C287.505 20.1733 287.618 19.8867 287.845 19.66C288.072 19.42 288.358 19.3 288.705 19.3ZM298.223 19.1C299.21 19.1 299.956 19.3067 300.463 19.72C300.983 20.1333 301.336 20.6867 301.523 21.38C301.723 22.06 301.823 22.82 301.823 23.66V28.78C301.823 29.1267 301.71 29.42 301.483 29.66C301.256 29.8867 300.97 30 300.623 30C300.276 30 299.99 29.8867 299.763 29.66C299.536 29.42 299.423 29.1267 299.423 28.78V23.66C299.423 23.22 299.363 22.8267 299.243 22.48C299.136 22.12 298.936 21.8333 298.643 21.62C298.35 21.4067 297.93 21.3 297.383 21.3C296.85 21.3 296.396 21.4067 296.023 21.62C295.663 21.8333 295.383 22.12 295.183 22.48C294.996 22.8267 294.903 23.22 294.903 23.66V28.78C294.903 29.1267 294.79 29.42 294.563 29.66C294.336 29.8867 294.05 30 293.703 30C293.356 30 293.07 29.8867 292.843 29.66C292.616 29.42 292.503 29.1267 292.503 28.78V20.52C292.503 20.1733 292.616 19.8867 292.843 19.66C293.07 19.42 293.356 19.3 293.703 19.3C294.05 19.3 294.336 19.42 294.563 19.66C294.79 19.8867 294.903 20.1733 294.903 20.52V21.38L294.603 21.32C294.723 21.0933 294.896 20.8533 295.123 20.6C295.35 20.3333 295.616 20.0867 295.923 19.86C296.23 19.6333 296.576 19.4533 296.963 19.32C297.35 19.1733 297.77 19.1 298.223 19.1ZM304.537 19.5H309.277C309.597 19.5 309.864 19.6067 310.077 19.82C310.291 20.0333 310.397 20.3 310.397 20.62C310.397 20.9267 310.291 21.1867 310.077 21.4C309.864 21.6 309.597 21.7 309.277 21.7H304.537C304.217 21.7 303.951 21.5933 303.737 21.38C303.524 21.1667 303.417 20.9 303.417 20.58C303.417 20.2733 303.524 20.02 303.737 19.82C303.951 19.6067 304.217 19.5 304.537 19.5ZM306.677 17C307.024 17 307.304 17.12 307.517 17.36C307.744 17.5867 307.857 17.8733 307.857 18.22V27.12C307.857 27.3067 307.891 27.46 307.957 27.58C308.037 27.7 308.137 27.7867 308.257 27.84C308.391 27.8933 308.531 27.92 308.677 27.92C308.837 27.92 308.984 27.8933 309.117 27.84C309.251 27.7733 309.404 27.74 309.577 27.74C309.764 27.74 309.931 27.8267 310.077 28C310.237 28.1733 310.317 28.4133 310.317 28.72C310.317 29.0933 310.111 29.4 309.697 29.64C309.297 29.88 308.864 30 308.397 30C308.117 30 307.804 29.98 307.457 29.94C307.124 29.8867 306.804 29.7733 306.497 29.6C306.204 29.4133 305.957 29.1333 305.757 28.76C305.557 28.3867 305.457 27.8733 305.457 27.22V18.22C305.457 17.8733 305.571 17.5867 305.797 17.36C306.037 17.12 306.331 17 306.677 17Z" fill="#5B5B5B"/>
</svg>
