<svg width="33" height="33" viewBox="0 0 33 33" fill="none" xmlns="http://www.w3.org/2000/svg">
<path fill-rule="evenodd" clip-rule="evenodd" d="M32.2998 7.82543C32.367 7.98989 32.401 8.166 32.4 8.34365L32.4 8.71257C32.3975 8.71831 32.3935 8.72708 32.3871 8.73953L32.3805 8.75216C32.3692 8.77393 32.3509 8.80893 32.3365 8.84207C32.322 8.8752 32.3066 8.91625 32.296 8.96406C32.2224 9.11989 32.1249 9.26339 32.0071 9.38937L27.3256 13.9715L9.38795 32.0069C9.25398 32.1402 9.09351 32.2439 8.91692 32.3113C8.74017 32.3787 8.55121 32.4083 8.36231 32.398L8.35417 32.3976H1.35002C0.991976 32.3976 0.648596 32.2553 0.395424 32.0022C0.142253 31.749 2.67832e-05 31.4057 2.67832e-05 31.0477L3.18198e-05 24.0522L2.2599e-05 24.0505C-0.00100539 23.8728 0.0330473 23.6967 0.100227 23.5323C0.167343 23.368 0.266566 23.2181 0.391513 23.0921L23.0941 0.39116C23.2202 0.266208 23.3696 0.167343 23.534 0.100225C23.6985 0.0330476 23.8746 -0.00100457 24.0523 4.26196e-05L24.0557 2.25626e-05C24.2334 -0.00100457 24.4095 0.0330472 24.574 0.100225C24.7383 0.167343 24.8882 0.266542 25.0142 0.391495L32.009 7.38575C32.1339 7.51178 32.2327 7.66119 32.2998 7.82543ZM2.70002 29.6978H7.79377L24.4783 13.0145L19.3845 7.92113L2.70002 24.6044V29.6978ZM21.286 6.0183L26.3812 11.1132L29.1305 8.34463L24.0547 3.26923L21.286 6.0183Z" fill="black"/>
</svg>
