<svg width="46" height="44" viewBox="0 0 46 44" fill="none" xmlns="http://www.w3.org/2000/svg">
<path d="M44.6641 41.1304C37.6195 41.1304 30.7711 41.0967 23.5923 41.0967C20.51 41.0967 17.2938 39.9996 14.2006 39.9996C12.1941 39.9996 10.6032 41.3027 8.59681 41.3027C6.43448 41.3027 3.38026 40.9265 1.25148 41.1355" stroke="black" stroke-width="2" stroke-linecap="round" stroke-linejoin="round"/>
<path d="M45 41.2559C44.9825 41.0358 45 35.0889 45 31.7515C44.7964 28.5907 44.9136 25.3399 44.9136 21.7469C44.9136 15.5555 44.9136 7.17497 44.9136 0.999958" stroke="black" stroke-width="2" stroke-linecap="round" stroke-linejoin="round"/>
<path d="M44.2539 2.21414C40.1436 2.21414 36.1896 2.21414 31.7677 2.21414C28.0706 2.21414 24.57 3 20.8003 3C19.036 3 17.11 2.21414 15.3456 2.21414C13.6382 2.21414 10.9351 2.21414 8.96681 2.21414C5.63633 2.21414 2.72995 2.21414 1.02296 2.21414" stroke="black" stroke-width="2" stroke-linecap="round" stroke-linejoin="round"/>
<path d="M0.998465 42.4941C0.998463 39.1241 0.998467 35.4276 0.998465 32.1206C0.998463 28.5267 1.09858 26.1929 0.998465 22.2411C0.998461 15.67 0.998466 9.45363 0.998463 2.97607" stroke="black" stroke-width="2" stroke-linecap="round" stroke-linejoin="round"/>
<path d="M1.53365 3.46988C1.71176 13.9206 1.73438 32.1205 1.73438 42" stroke="black" stroke-linecap="round" stroke-linejoin="round"/>
<path d="M44.2675 0.999834C44.2675 11.5077 43.7547 26.0036 44.4141 41.5059" stroke="black" stroke-width="0.5" stroke-linecap="round" stroke-linejoin="round"/>
<path d="M44.4902 1.98802C44.6634 11.6174 44.75 31.1545 44.75 41.0059" stroke="black" stroke-linecap="round" stroke-linejoin="round"/>
<path d="M34.0208 6.82196C34.8562 7.38999 39.1457 10.2839 38.7299 11.5311" stroke="black" stroke-width="2" stroke-linecap="round" stroke-linejoin="round"/>
<path d="M33.8548 6.60787C32.7019 7.39186 28.4319 10.0342 29.9218 11.5242C30.9833 12.5857 31.3537 12.9561 32.6322 13.9888C32.8927 14.0889 32.7809 14.1855 33.7878 15.1443C33.8979 15.6119 34.295 15.8874 34.5308 15.8874C35.0007 15.8874 35.7254 14.6929 36.0311 14.3871C36.6841 13.9567 39.3023 10.9569 38.7112 11.1539" stroke="black" stroke-width="2" stroke-linecap="round" stroke-linejoin="round"/>
<path d="M27.4883 12.1992C27.4883 12.1992 32.4891 17.2001 32.6884 17.3993" stroke="black" stroke-width="2" stroke-linecap="round" stroke-linejoin="round"/>
<path d="M27.4881 12.1991C24.6528 15.0343 21.9536 17.1558 19.1102 19.9992C17.8611 21.2483 16.3147 22.7946 15.0657 24.0437C13.6469 25.4625 10.209 29.4782 11.6277 28.0594" stroke="black" stroke-width="2" stroke-linecap="round" stroke-linejoin="round"/>
<path d="M11.3086 28.377C11.3712 29.4866 10.7387 31.258 10.9551 33.0639C11.0766 33.4966 10.5994 34.8641 10.7467 34.7167" stroke="black" stroke-width="2" stroke-linecap="round" stroke-linejoin="round"/>
<path d="M10.7325 34.7333C11.9875 34.4905 13.8316 34.3265 14.9114 33.766C15.6421 33.3868 17.0253 33.7535 16.3063 33.4816" stroke="black" stroke-width="2" stroke-linecap="round" stroke-linejoin="round"/>
<path d="M33.2656 16.8213C30.6681 19.4188 26.7833 23.3036 23.9302 26.1567C21.6421 28.4448 18.9407 31.1462 16.5098 33.5771" stroke="black" stroke-width="2" stroke-linecap="round" stroke-linejoin="round"/>
<path d="M27.4886 13.3551C28.2858 13.5767 32.8586 16.441 32.1109 17.9774" stroke="black" stroke-width="2" stroke-linecap="round" stroke-linejoin="round"/>
<path d="M11.3086 33C11.6947 33.3861 12.0503 33.7417 12.4642 34.1556" stroke="black" stroke-width="2" stroke-linecap="round" stroke-linejoin="round"/>
<path d="M12.7529 28.6661C14.207 29.8518 15.3529 31.2661 16.2196 32.1328" stroke="black" stroke-width="2" stroke-linecap="round" stroke-linejoin="round"/>
</svg>
