<svg width="30" height="16" viewBox="0 0 30 16" fill="none" xmlns="http://www.w3.org/2000/svg">
<path d="M1 7.9733C3.23048 4.5057 5.98959 4.36975 8.67742 2.34189C9.61741 1.63271 11.5728 1.09494 12.629 1.09494C14.4729 1.09494 16.8927 0.635354 18.6129 1.73853C19.7234 2.45065 21.2326 1.7388 22.3387 2.72402C23.1518 3.44822 24.2799 3.36748 24.9857 4.27266C25.5129 4.94894 28.5511 8.33313 29 7.9733" stroke="black" stroke-width="2" stroke-linecap="round" stroke-linejoin="round"/>
<path d="M1 9.04392C5.09011 13.8623 9.55358 14.4401 14.5381 14.9401C17.2525 15.2125 19.5841 14.5413 22.1339 13.2196C23.2904 12.6201 24.771 11.7031 25.7888 10.6291C26.3119 10.0772 26.5764 9.30182 27.1936 8.86993C27.581 8.5988 28.1173 8.56836 28.3 8" stroke="black" stroke-width="2" stroke-linecap="round" stroke-linejoin="round"/>
<path d="M10.6367 7.59448C11.0196 5.85553 11.8268 4.53474 13.7127 4.13889C14.6812 3.93561 15.2928 3.93561 16.4142 4.39297C16.8246 4.50988 17.4042 5.14145 17.6809 5.4327C18.3217 6.10709 18.6569 7.32101 18.6569 8.2551C18.6569 9.17773 18.3828 9.92486 17.7751 10.5981C16.5163 11.9925 13.6238 12.4497 12.1097 11.1079C11.5398 10.6028 11.0029 10.1197 10.8583 9.27146C10.8045 8.95543 10.3996 7.49284 10.8583 7.13712" stroke="black" stroke-width="2" stroke-linecap="round" stroke-linejoin="round"/>
<path d="M11.5703 7.7234C11.8842 6.27618 12.5461 5.17697 14.0925 4.84753C14.8865 4.67835 15.3881 4.67836 16.3075 5.05899C16.644 5.15628 17.1193 5.6819 17.3462 5.92429C17.8716 6.48554 18.1464 7.49581 18.1464 8.27319C18.1464 9.04104 17.9217 9.66283 17.4234 10.2231C16.3913 11.3836 14.0195 11.7641 12.7781 10.6474C12.3108 10.2271 11.8705 9.82499 11.752 9.11904C11.7079 8.85603 11.3759 7.63881 11.752 7.34277" stroke="black" stroke-width="2" stroke-linecap="round" stroke-linejoin="round"/>
<path d="M10.1716 7.68747C10.5953 5.80207 11.4832 4.37005 13.5516 3.94086C14.6137 3.72046 15.2843 3.72046 16.5126 4.21634C16.9623 4.34309 17.5962 5.02785 17.899 5.34363C18.6 6.07482 18.9647 7.39097 18.9626 8.40374C18.9605 9.40407 18.6583 10.2141 17.9906 10.944C16.6074 12.4559 13.4353 12.9516 11.7785 11.4968C11.1548 10.9492 10.5673 10.4254 10.4108 9.50569C10.3524 9.16305 9.91185 7.57728 10.4156 7.1916" stroke="black" stroke-width="0.5" stroke-linecap="round" stroke-linejoin="round"/>
<ellipse cx="14.9992" cy="8.0002" rx="2.8" ry="2.8" fill="black"/>
</svg>
