<?xml version="1.0" encoding="UTF-8"?>
<svg xmlns="http://www.w3.org/2000/svg" xmlns:xlink="http://www.w3.org/1999/xlink" width="303px" height="300px" viewBox="0 0 303 300" version="1.1">
<g id="surface1">
<path style=" stroke:none;fill-rule:nonzero;fill:rgb(94.117647%,94.509804%,100%);fill-opacity:1;" d="M 189.636719 204.699219 C 195.09375 186.746094 213.65625 175.796875 232.214844 180.058594 C 251.597656 184.511719 263.742188 203.90625 259.292969 223.289062 C 254.824219 242.679688 235.449219 254.820312 216.070312 250.371094 C 196.6875 245.914062 184.539062 226.519531 188.992188 207.136719 C 189.179688 206.308594 189.398438 205.496094 189.644531 204.695312 Z M 246.8125 222.125 C 246.972656 221.597656 247.117188 221.0625 247.238281 220.519531 C 250.167969 207.78125 242.183594 195.03125 229.445312 192.105469 C 216.707031 189.175781 203.9375 197.179688 201.035156 209.902344 C 198.105469 222.640625 206.089844 235.390625 218.832031 238.316406 C 231.027344 241.113281 243.230469 233.917969 246.816406 222.121094 Z M 246.8125 222.125 "/>
<path style=" stroke:none;fill-rule:nonzero;fill:rgb(94.117647%,94.509804%,100%);fill-opacity:1;" d="M 136.972656 204.671875 C 145.785156 205.484375 154.984375 207.152344 163.832031 206.75 C 171.449219 206.40625 172.609375 195.039062 165.0625 193.339844 C 155.816406 191.257812 145.792969 191.292969 136.359375 190.496094 C 132.539062 190.171875 129.433594 194.414062 129.578125 197.886719 C 129.757812 202.136719 133.140625 204.316406 136.96875 204.667969 Z M 136.972656 204.671875 "/>
<path style=" stroke:none;fill-rule:nonzero;fill:rgb(94.117647%,94.509804%,100%);fill-opacity:1;" d="M 157.5 264.449219 C 165.96875 256.667969 175.402344 250.511719 184.667969 243.773438 C 191.90625 238.511719 185.261719 228.445312 177.417969 232.199219 C 166.15625 237.589844 156.050781 246.09375 146.910156 254.488281 C 144.019531 257.140625 144.515625 262.210938 147.226562 264.761719 C 150.269531 267.625 154.601562 267.109375 157.5 264.445312 Z M 157.5 264.449219 "/>
<path style=" stroke:none;fill-rule:nonzero;fill:rgb(94.117647%,94.509804%,100%);fill-opacity:1;" d="M 214.144531 262.058594 C 213.074219 259.390625 210.730469 258.210938 207.925781 258.804688 C 201.140625 260.242188 198.953125 268.464844 197.394531 274.304688 C 195.765625 280.394531 195.160156 286.796875 195.371094 293.089844 C 195.6875 302.390625 210.152344 301.796875 209.839844 292.460938 C 209.222656 274.203125 217.253906 269.804688 214.144531 262.054688 Z M 214.144531 262.058594 "/>
<path style=" stroke:none;fill-rule:nonzero;fill:rgb(94.117647%,94.509804%,100%);fill-opacity:1;" d="M 272.515625 269.851562 C 262.867188 257.824219 260.824219 249.777344 253.796875 248.796875 C 249.691406 248.226562 246.878906 250.753906 246.585938 254.796875 C 246.242188 259.578125 250.242188 263.453125 252.753906 267.144531 C 255.164062 270.6875 257.59375 274.175781 260.292969 277.503906 C 262.746094 280.523438 266.644531 282.03125 270.226562 279.785156 C 273.230469 277.902344 274.960938 272.902344 272.507812 269.847656 Z M 272.515625 269.851562 "/>
<path style=" stroke:none;fill-rule:nonzero;fill:rgb(94.117647%,94.509804%,100%);fill-opacity:1;" d="M 284.476562 238.066406 C 292.667969 237.652344 295.527344 237.882812 300.007812 235.472656 C 303.898438 233.378906 303.921875 226.464844 299.65625 224.710938 C 294.683594 222.664062 292.457031 223.160156 283.851562 223.597656 C 279.949219 223.796875 276.765625 227.21875 276.929688 231.144531 C 277.097656 235.039062 280.554688 238.265625 284.476562 238.0625 Z M 284.476562 238.066406 "/>
<path style=" stroke:none;fill-rule:nonzero;fill:rgb(94.117647%,94.509804%,100%);fill-opacity:1;" d="M 277.265625 197.613281 C 290.027344 188.386719 293.335938 186.726562 294.269531 181.859375 C 294.820312 179.011719 293.109375 175.097656 289.824219 174.761719 C 283.71875 174.128906 281.136719 177.007812 269.734375 185.59375 C 266.679688 187.898438 265.332031 191.929688 267.492188 195.371094 C 269.421875 198.453125 274.148438 199.871094 277.265625 197.617188 Z M 277.265625 197.613281 "/>
<path style=" stroke:none;fill-rule:nonzero;fill:rgb(94.117647%,94.509804%,100%);fill-opacity:1;" d="M 250.132812 136.71875 C 249.0625 131.226562 240.308594 130.644531 238.085938 135.558594 C 235.949219 140.273438 236.164062 142.410156 233.273438 167.546875 C 232.828125 171.433594 234.589844 175.277344 238.707031 176.222656 C 242.199219 177.027344 246.921875 174.699219 247.382812 170.789062 C 250.4375 144.695312 251.207031 142.226562 250.136719 136.714844 Z M 250.132812 136.71875 "/>
<path style=" stroke:none;fill-rule:nonzero;fill:rgb(94.117647%,94.509804%,100%);fill-opacity:1;" d="M 199.828125 162.191406 C 191.164062 145.292969 193.972656 144.0625 187.820312 136.558594 C 185.003906 133.125 178.1875 135.300781 177.695312 139.636719 C 177.0625 145.195312 177.519531 146.882812 180.875 155.40625 C 182.824219 160.355469 185.050781 165.199219 187.46875 169.9375 C 189.257812 173.453125 194.390625 174.210938 197.523438 172.246094 C 201.105469 170.007812 201.636719 165.707031 199.832031 162.191406 Z M 199.828125 162.191406 "/>
<path style=" stroke:none;fill-rule:nonzero;fill:rgb(94.117647%,94.509804%,100%);fill-opacity:1;" d="M 38.617188 184.964844 C 42.105469 173.488281 53.96875 166.492188 65.828125 169.214844 C 78.214844 172.058594 85.976562 184.453125 83.132812 196.839844 C 80.277344 209.234375 67.894531 216.992188 55.507812 214.148438 C 43.121094 211.300781 35.359375 198.90625 38.203125 186.519531 C 38.324219 185.992188 38.464844 185.472656 38.621094 184.960938 Z M 75.15625 196.097656 C 75.257812 195.761719 75.351562 195.417969 75.429688 195.074219 C 77.300781 186.929688 72.199219 178.785156 64.058594 176.914062 C 55.917969 175.042969 47.757812 180.15625 45.902344 188.285156 C 44.027344 196.429688 49.132812 204.578125 57.273438 206.445312 C 65.066406 208.234375 72.867188 203.636719 75.15625 196.09375 Z M 75.15625 196.097656 "/>
<path style=" stroke:none;fill-rule:nonzero;fill:rgb(94.117647%,94.509804%,100%);fill-opacity:1;" d="M 4.960938 184.945312 C 10.59375 185.464844 16.46875 186.53125 22.125 186.273438 C 26.992188 186.054688 27.734375 178.789062 22.910156 177.703125 C 17.003906 176.371094 10.59375 176.394531 4.566406 175.886719 C 2.125 175.679688 0.140625 178.386719 0.234375 180.609375 C 0.347656 183.324219 2.511719 184.71875 4.957031 184.941406 Z M 4.960938 184.945312 "/>
<path style=" stroke:none;fill-rule:nonzero;fill:rgb(94.117647%,94.509804%,100%);fill-opacity:1;" d="M 18.078125 223.148438 C 23.488281 218.175781 29.519531 214.242188 35.441406 209.933594 C 40.066406 206.570312 35.820312 200.136719 30.808594 202.539062 C 23.609375 205.984375 17.152344 211.417969 11.3125 216.78125 C 9.464844 218.476562 9.78125 221.71875 11.515625 223.347656 C 13.457031 225.175781 16.226562 224.847656 18.078125 223.144531 Z M 18.078125 223.148438 "/>
<path style=" stroke:none;fill-rule:nonzero;fill:rgb(94.117647%,94.509804%,100%);fill-opacity:1;" d="M 54.277344 221.621094 C 53.59375 219.914062 52.097656 219.160156 50.304688 219.539062 C 45.96875 220.460938 44.570312 225.714844 43.574219 229.445312 C 42.535156 233.335938 42.144531 237.429688 42.28125 241.449219 C 42.480469 247.394531 51.726562 247.015625 51.527344 241.050781 C 51.132812 229.382812 56.265625 226.570312 54.277344 221.617188 Z M 54.277344 221.621094 "/>
<path style=" stroke:none;fill-rule:nonzero;fill:rgb(94.117647%,94.509804%,100%);fill-opacity:1;" d="M 91.582031 226.601562 C 85.414062 218.914062 84.109375 213.769531 79.621094 213.144531 C 76.996094 212.777344 75.199219 214.394531 75.011719 216.980469 C 74.792969 220.035156 77.347656 222.511719 78.953125 224.871094 C 80.492188 227.132812 82.046875 229.363281 83.773438 231.492188 C 85.339844 233.421875 87.832031 234.382812 90.121094 232.949219 C 92.039062 231.746094 93.144531 228.546875 91.578125 226.597656 Z M 91.582031 226.601562 "/>
<path style=" stroke:none;fill-rule:nonzero;fill:rgb(94.117647%,94.509804%,100%);fill-opacity:1;" d="M 99.226562 206.289062 C 104.460938 206.019531 106.289062 206.167969 109.152344 204.628906 C 111.636719 203.292969 111.652344 198.871094 108.929688 197.75 C 105.75 196.445312 104.324219 196.757812 98.828125 197.042969 C 96.332031 197.167969 94.296875 199.351562 94.402344 201.863281 C 94.511719 204.351562 96.722656 206.414062 99.226562 206.285156 Z M 99.226562 206.289062 "/>
<path style=" stroke:none;fill-rule:nonzero;fill:rgb(94.117647%,94.509804%,100%);fill-opacity:1;" d="M 94.617188 180.433594 C 102.773438 174.535156 104.886719 173.476562 105.484375 170.367188 C 105.835938 168.546875 104.742188 166.046875 102.644531 165.828125 C 98.742188 165.425781 97.089844 167.265625 89.804688 172.753906 C 87.851562 174.226562 86.992188 176.800781 88.371094 179 C 89.605469 180.972656 92.625 181.878906 94.617188 180.4375 Z M 94.617188 180.433594 "/>
<path style=" stroke:none;fill-rule:nonzero;fill:rgb(94.117647%,94.509804%,100%);fill-opacity:1;" d="M 77.277344 141.515625 C 76.59375 138.007812 71 137.636719 69.578125 140.777344 C 68.214844 143.789062 68.351562 145.15625 66.503906 161.21875 C 66.21875 163.703125 67.34375 166.160156 69.976562 166.765625 C 72.207031 167.277344 75.226562 165.789062 75.519531 163.292969 C 77.472656 146.613281 77.964844 145.035156 77.28125 141.515625 Z M 77.277344 141.515625 "/>
<path style=" stroke:none;fill-rule:nonzero;fill:rgb(94.117647%,94.509804%,100%);fill-opacity:1;" d="M 45.128906 157.796875 C 39.59375 147 41.386719 146.210938 37.453125 141.414062 C 35.65625 139.222656 31.300781 140.609375 30.984375 143.382812 C 30.582031 146.933594 30.871094 148.015625 33.015625 153.460938 C 34.261719 156.625 35.6875 159.71875 37.230469 162.746094 C 38.375 164.992188 41.65625 165.476562 43.65625 164.222656 C 45.945312 162.789062 46.285156 160.042969 45.132812 157.796875 Z M 45.128906 157.796875 "/>
<path style=" stroke:none;fill-rule:nonzero;fill:rgb(94.117647%,94.509804%,100%);fill-opacity:1;" d="M 146.683594 36.859375 C 152.839844 28.777344 164.324219 26.726562 172.941406 32.390625 C 181.9375 38.308594 184.441406 50.445312 178.527344 59.441406 C 172.601562 68.441406 160.476562 70.945312 151.480469 65.027344 C 142.484375 59.109375 139.976562 46.972656 145.894531 37.976562 C 146.144531 37.59375 146.410156 37.21875 146.683594 36.859375 Z M 146.683594 36.859375 "/>
<path style=" stroke:none;fill-rule:nonzero;fill:rgb(94.117647%,94.509804%,100%);fill-opacity:1;" d="M 119.957031 26.90625 C 124.277344 28.984375 128.628906 31.566406 133.199219 33.03125 C 137.128906 34.296875 139.863281 28.742188 136.351562 26.457031 C 132.054688 23.65625 126.957031 21.78125 122.320312 19.597656 C 120.445312 18.710938 118.066406 20.277344 117.484375 22.070312 C 116.773438 24.257812 118.078125 26.003906 119.957031 26.90625 Z M 119.957031 26.90625 "/>
<path style=" stroke:none;fill-rule:nonzero;fill:rgb(94.117647%,94.509804%,100%);fill-opacity:1;" d="M 119.097656 61.121094 C 124.863281 58.769531 130.8125 57.425781 136.785156 55.753906 C 141.453125 54.449219 139.980469 48.085938 135.292969 48.511719 C 128.558594 49.125 121.824219 51.53125 115.601562 54.066406 C 113.632812 54.867188 112.929688 57.535156 113.824219 59.339844 C 114.828125 61.367188 117.125 61.925781 119.097656 61.121094 Z M 119.097656 61.121094 "/>
<path style=" stroke:none;fill-rule:nonzero;fill:rgb(94.117647%,94.509804%,100%);fill-opacity:1;" d="M 148.296875 70.597656 C 148.257812 69.042969 147.289062 68 145.757812 67.773438 C 142.039062 67.222656 139.378906 70.984375 137.488281 73.652344 C 135.511719 76.433594 133.992188 79.570312 132.914062 82.804688 C 131.320312 87.585938 138.773438 90.011719 140.375 85.214844 C 143.507812 75.832031 148.414062 75.117188 148.296875 70.597656 Z M 148.296875 70.597656 "/>
<path style=" stroke:none;fill-rule:nonzero;fill:rgb(94.117647%,94.509804%,100%);fill-opacity:1;" d="M 176.453125 85.570312 C 173.824219 77.644531 174.304688 73.175781 170.925781 71.351562 C 168.949219 70.285156 167.046875 71.039062 166.132812 73.035156 C 165.054688 75.394531 166.355469 78.117188 166.933594 80.464844 C 167.488281 82.71875 168.0625 84.949219 168.804688 87.148438 C 169.480469 89.140625 171.175781 90.640625 173.417969 90.179688 C 175.296875 89.789062 177.117188 87.578125 176.449219 85.566406 Z M 176.453125 85.570312 "/>
<path style=" stroke:none;fill-rule:nonzero;fill:rgb(94.117647%,94.509804%,100%);fill-opacity:1;" d="M 188.519531 71.695312 C 192.757812 73.03125 194.164062 73.6875 196.890625 73.308594 C 199.261719 72.980469 200.578125 69.476562 198.746094 67.78125 C 196.605469 65.804688 195.382812 65.632812 190.933594 64.234375 C 188.914062 63.597656 186.652344 64.734375 185.996094 66.757812 C 185.347656 68.765625 186.492188 71.054688 188.519531 71.691406 Z M 188.519531 71.695312 "/>
<path style=" stroke:none;fill-rule:nonzero;fill:rgb(94.117647%,94.509804%,100%);fill-opacity:1;" d="M 192.492188 49.800781 C 200.710938 47.527344 202.703125 47.308594 204.097656 45.015625 C 204.914062 43.671875 204.78125 41.363281 203.179688 40.574219 C 200.199219 39.101562 198.34375 40.074219 190.9375 42.28125 C 188.953125 42.875 187.507812 44.664062 187.957031 46.820312 C 188.355469 48.75 190.484375 50.359375 192.492188 49.804688 Z M 192.492188 49.800781 "/>
<path style=" stroke:none;fill-rule:nonzero;fill:rgb(94.117647%,94.509804%,100%);fill-opacity:1;" d="M 190.210938 13.773438 C 190.703125 10.785156 186.371094 8.839844 184.316406 10.914062 C 182.34375 12.902344 182.046875 14.027344 175.835938 26.242188 C 174.878906 28.128906 175.046875 30.414062 176.960938 31.667969 C 178.578125 32.738281 181.417969 32.445312 182.386719 30.546875 C 188.863281 17.882812 189.71875 16.773438 190.214844 13.773438 Z M 190.210938 13.773438 "/>
<path style=" stroke:none;fill-rule:nonzero;fill:rgb(94.117647%,94.509804%,100%);fill-opacity:1;" d="M 159.875 17.210938 C 158.664062 7 160.324219 6.902344 158.617188 1.933594 C 157.832031 -0.339844 153.964844 -0.523438 152.898438 1.585938 C 151.527344 4.289062 151.441406 5.230469 151.535156 10.1875 C 151.589844 13.070312 151.808594 15.949219 152.136719 18.808594 C 152.386719 20.929688 154.847656 22.285156 156.808594 21.878906 C 159.046875 21.417969 160.128906 19.335938 159.875 17.210938 Z M 159.875 17.210938 "/>
</g>
</svg>
