<svg width="161" height="43" viewBox="0 0 161 43" fill="none" xmlns="http://www.w3.org/2000/svg">
<rect x="1" y="-1" width="159" height="41" rx="9" transform="matrix(1 0 0 -1 0 41)" fill="#9CCFE5" stroke="black" stroke-width="2"/>
<path fill-rule="evenodd" clip-rule="evenodd" d="M39.319 10.7767C39.319 9.79548 40.1144 9 41.0957 9H47.2233C48.2046 9 49 9.79548 49 10.7767V32.2233C49 33.2046 48.2046 34 47.2233 34H25.7767C24.7955 34 24 33.2046 24 32.2233V27.3723C24 26.391 24.7955 25.5956 25.7767 25.5956H31.6595V18.4362C31.6595 17.455 32.455 16.6595 33.4362 16.6595H39.319V10.7767ZM39.319 18.681H33.681V31.9785H39.319V18.681ZM41.3405 31.9785H46.9785V11.0215H41.3405V31.9785ZM31.6595 31.9785V27.6171H26.0215V31.9785H31.6595Z" fill="black"/>
<path d="M61.26 15C61.9667 15 62.62 15.1933 63.22 15.58C63.82 15.9533 64.3 16.4667 64.66 17.12C65.02 17.7733 65.2 18.5067 65.2 19.32C65.2 20.1333 65.02 20.8733 64.66 21.54C64.3 22.1933 63.82 22.72 63.22 23.12C62.62 23.5067 61.9667 23.7 61.26 23.7H57.4L57.56 23.38V27.98C57.56 28.2733 57.4667 28.52 57.28 28.72C57.1067 28.9067 56.8733 29 56.58 29C56.3 29 56.0667 28.9067 55.88 28.72C55.7067 28.52 55.62 28.2733 55.62 27.98V16.02C55.62 15.7267 55.72 15.4867 55.92 15.3C56.12 15.1 56.36 15 56.64 15H61.26ZM61.26 21.78C61.6067 21.78 61.92 21.6667 62.2 21.44C62.4933 21.2133 62.7267 20.9133 62.9 20.54C63.0867 20.1667 63.18 19.76 63.18 19.32C63.18 18.88 63.0867 18.48 62.9 18.12C62.7267 17.76 62.4933 17.4733 62.2 17.26C61.92 17.0333 61.6067 16.92 61.26 16.92H57.36L57.56 16.62V22.04L57.38 21.78H61.26ZM68.4117 29C68.1184 29 67.8784 28.9067 67.6917 28.72C67.5051 28.52 67.4117 28.2733 67.4117 27.98V19.5C67.4117 19.2067 67.5051 18.9667 67.6917 18.78C67.8784 18.58 68.1184 18.48 68.4117 18.48C68.6917 18.48 68.9251 18.58 69.1117 18.78C69.3117 18.9667 69.4117 19.2067 69.4117 19.5V21.74L69.2117 20.88C69.3184 20.5067 69.4784 20.16 69.6917 19.84C69.9184 19.52 70.1851 19.24 70.4917 19C70.7984 18.76 71.1384 18.5733 71.5117 18.44C71.8984 18.3067 72.2984 18.24 72.7117 18.24C73.0584 18.24 73.3584 18.3333 73.6117 18.52C73.8651 18.7067 73.9917 18.94 73.9917 19.22C73.9917 19.58 73.8984 19.8467 73.7117 20.02C73.5251 20.18 73.3184 20.26 73.0917 20.26C72.8917 20.26 72.6984 20.22 72.5117 20.14C72.3251 20.0467 72.1051 20 71.8517 20C71.5717 20 71.2851 20.0733 70.9917 20.22C70.6984 20.3667 70.4317 20.5867 70.1917 20.88C69.9517 21.16 69.7584 21.4933 69.6117 21.88C69.4784 22.2667 69.4117 22.7 69.4117 23.18V27.98C69.4117 28.2733 69.3117 28.52 69.1117 28.72C68.9251 28.9067 68.6917 29 68.4117 29ZM85.4019 23.74C85.4019 24.8067 85.1685 25.7533 84.7019 26.58C84.2352 27.3933 83.6019 28.0333 82.8019 28.5C82.0019 28.9667 81.1019 29.2 80.1019 29.2C79.1019 29.2 78.2019 28.9667 77.4019 28.5C76.6019 28.0333 75.9619 27.3933 75.4819 26.58C75.0152 25.7533 74.7819 24.8067 74.7819 23.74C74.7819 22.66 75.0152 21.7133 75.4819 20.9C75.9619 20.0733 76.6019 19.4267 77.4019 18.96C78.2019 18.48 79.1019 18.24 80.1019 18.24C81.1019 18.24 82.0019 18.48 82.8019 18.96C83.6019 19.4267 84.2352 20.0733 84.7019 20.9C85.1685 21.7133 85.4019 22.66 85.4019 23.74ZM83.4019 23.74C83.4019 23.0067 83.2552 22.3733 82.9619 21.84C82.6685 21.2933 82.2685 20.8667 81.7619 20.56C81.2685 20.24 80.7152 20.08 80.1019 20.08C79.4885 20.08 78.9285 20.24 78.4219 20.56C77.9152 20.8667 77.5152 21.2933 77.2219 21.84C76.9285 22.3733 76.7819 23.0067 76.7819 23.74C76.7819 24.4467 76.9285 25.0733 77.2219 25.62C77.5152 26.1667 77.9152 26.5933 78.4219 26.9C78.9285 27.2067 79.4885 27.36 80.1019 27.36C80.7152 27.36 81.2685 27.2067 81.7619 26.9C82.2685 26.5933 82.6685 26.1667 82.9619 25.62C83.2552 25.0733 83.4019 24.4467 83.4019 23.74ZM92.0456 18.24C92.619 18.24 93.1456 18.3333 93.6256 18.52C94.1056 18.7067 94.519 18.9467 94.8656 19.24C95.2256 19.52 95.5056 19.8133 95.7056 20.12C95.9056 20.4267 96.0056 20.6933 96.0056 20.92L95.5456 20.94V19.34C95.5456 19.06 95.639 18.82 95.8256 18.62C96.0123 18.42 96.2523 18.32 96.5456 18.32C96.839 18.32 97.079 18.42 97.2656 18.62C97.4523 18.8067 97.5456 19.0467 97.5456 19.34V28.16C97.5456 29.2933 97.3056 30.2133 96.8256 30.92C96.3456 31.64 95.7056 32.1667 94.9056 32.5C94.119 32.8333 93.2523 33 92.3056 33C91.9723 33 91.579 32.9533 91.1256 32.86C90.6723 32.78 90.2523 32.68 89.8656 32.56C89.4923 32.44 89.2323 32.32 89.0856 32.2C88.779 32.04 88.5723 31.8533 88.4656 31.64C88.3723 31.4267 88.3723 31.2133 88.4656 31C88.599 30.7067 88.779 30.5267 89.0056 30.46C89.2323 30.3933 89.4923 30.4133 89.7856 30.52C89.919 30.56 90.1256 30.6333 90.4056 30.74C90.6856 30.8467 90.999 30.94 91.3456 31.02C91.6923 31.1133 92.019 31.16 92.3256 31.16C93.3923 31.16 94.1923 30.9133 94.7256 30.42C95.2723 29.9267 95.5456 29.2533 95.5456 28.4V26.6L95.7656 26.74C95.7256 27.02 95.599 27.3067 95.3856 27.6C95.1856 27.88 94.919 28.14 94.5856 28.38C94.2523 28.62 93.8656 28.82 93.4256 28.98C92.999 29.1267 92.559 29.2 92.1056 29.2C91.159 29.2 90.3123 28.9667 89.5656 28.5C88.819 28.02 88.2256 27.3733 87.7856 26.56C87.3456 25.7333 87.1256 24.7867 87.1256 23.72C87.1256 22.6533 87.3456 21.7133 87.7856 20.9C88.2256 20.0733 88.8123 19.4267 89.5456 18.96C90.2923 18.48 91.1256 18.24 92.0456 18.24ZM92.3456 20.08C91.6923 20.08 91.119 20.24 90.6256 20.56C90.1323 20.88 89.7456 21.3133 89.4656 21.86C89.1856 22.4067 89.0456 23.0267 89.0456 23.72C89.0456 24.4133 89.1856 25.0333 89.4656 25.58C89.7456 26.1267 90.1323 26.56 90.6256 26.88C91.119 27.2 91.6923 27.36 92.3456 27.36C92.999 27.36 93.5723 27.2067 94.0656 26.9C94.559 26.58 94.9456 26.1467 95.2256 25.6C95.5056 25.04 95.6456 24.4133 95.6456 23.72C95.6456 23.0267 95.5056 22.4067 95.2256 21.86C94.9456 21.3 94.559 20.8667 94.0656 20.56C93.5723 20.24 92.999 20.08 92.3456 20.08ZM101.322 29C101.029 29 100.789 28.9067 100.602 28.72C100.415 28.52 100.322 28.2733 100.322 27.98V19.5C100.322 19.2067 100.415 18.9667 100.602 18.78C100.789 18.58 101.029 18.48 101.322 18.48C101.602 18.48 101.835 18.58 102.022 18.78C102.222 18.9667 102.322 19.2067 102.322 19.5V21.74L102.122 20.88C102.229 20.5067 102.389 20.16 102.602 19.84C102.829 19.52 103.095 19.24 103.402 19C103.709 18.76 104.049 18.5733 104.422 18.44C104.809 18.3067 105.209 18.24 105.622 18.24C105.969 18.24 106.269 18.3333 106.522 18.52C106.775 18.7067 106.902 18.94 106.902 19.22C106.902 19.58 106.809 19.8467 106.622 20.02C106.435 20.18 106.229 20.26 106.002 20.26C105.802 20.26 105.609 20.22 105.422 20.14C105.235 20.0467 105.015 20 104.762 20C104.482 20 104.195 20.0733 103.902 20.22C103.609 20.3667 103.342 20.5867 103.102 20.88C102.862 21.16 102.669 21.4933 102.522 21.88C102.389 22.2667 102.322 22.7 102.322 23.18V27.98C102.322 28.2733 102.222 28.52 102.022 28.72C101.835 28.9067 101.602 29 101.322 29ZM113.132 29.2C112.025 29.2 111.065 28.9733 110.252 28.52C109.439 28.0533 108.805 27.42 108.352 26.62C107.912 25.8067 107.692 24.88 107.692 23.84C107.692 22.6667 107.925 21.6667 108.392 20.84C108.872 20 109.492 19.36 110.252 18.92C111.012 18.4667 111.819 18.24 112.672 18.24C113.325 18.24 113.945 18.3733 114.532 18.64C115.119 18.8933 115.639 19.2533 116.092 19.72C116.559 20.1733 116.925 20.7133 117.192 21.34C117.459 21.9533 117.599 22.6267 117.612 23.36C117.599 23.6267 117.492 23.8467 117.292 24.02C117.092 24.1933 116.859 24.28 116.592 24.28H108.812L108.332 22.58H115.852L115.472 22.94V22.44C115.445 21.9733 115.292 21.5667 115.012 21.22C114.732 20.86 114.385 20.5867 113.972 20.4C113.559 20.2 113.125 20.1 112.672 20.1C112.272 20.1 111.885 20.1667 111.512 20.3C111.152 20.42 110.825 20.62 110.532 20.9C110.252 21.18 110.025 21.5533 109.852 22.02C109.692 22.4733 109.612 23.04 109.612 23.72C109.612 24.4533 109.765 25.0933 110.072 25.64C110.379 26.1867 110.792 26.6133 111.312 26.92C111.832 27.2133 112.405 27.36 113.032 27.36C113.525 27.36 113.932 27.3133 114.252 27.22C114.572 27.1133 114.839 26.9867 115.052 26.84C115.265 26.6933 115.452 26.5533 115.612 26.42C115.812 26.3 116.012 26.24 116.212 26.24C116.452 26.24 116.652 26.3267 116.812 26.5C116.972 26.66 117.052 26.8533 117.052 27.08C117.052 27.3733 116.905 27.64 116.612 27.88C116.252 28.2267 115.752 28.5333 115.112 28.8C114.485 29.0667 113.825 29.2 113.132 29.2ZM119.253 27.36C119.133 27.1733 119.079 26.96 119.093 26.72C119.106 26.4667 119.246 26.2533 119.513 26.08C119.699 25.96 119.893 25.9133 120.093 25.94C120.306 25.9533 120.506 26.0533 120.693 26.24C121.066 26.6533 121.479 26.98 121.933 27.22C122.399 27.46 122.959 27.58 123.613 27.58C123.879 27.5667 124.153 27.5267 124.433 27.46C124.713 27.38 124.953 27.2467 125.153 27.06C125.353 26.86 125.453 26.5733 125.453 26.2C125.453 25.8667 125.346 25.6 125.133 25.4C124.919 25.2 124.639 25.04 124.293 24.92C123.946 24.7867 123.573 24.6667 123.173 24.56C122.746 24.44 122.313 24.3067 121.873 24.16C121.446 24.0133 121.059 23.8267 120.713 23.6C120.366 23.36 120.079 23.0533 119.853 22.68C119.639 22.3067 119.533 21.8467 119.533 21.3C119.533 20.6733 119.706 20.1333 120.053 19.68C120.413 19.2267 120.873 18.8733 121.433 18.62C122.006 18.3667 122.626 18.24 123.293 18.24C123.679 18.24 124.086 18.2933 124.513 18.4C124.939 18.4933 125.353 18.6467 125.753 18.86C126.153 19.0733 126.499 19.3533 126.793 19.7C126.926 19.8733 126.999 20.08 127.013 20.32C127.039 20.56 126.933 20.7733 126.693 20.96C126.533 21.0933 126.339 21.1533 126.113 21.14C125.886 21.1267 125.699 21.0533 125.553 20.92C125.299 20.6 124.973 20.3533 124.573 20.18C124.173 19.9933 123.719 19.9 123.213 19.9C122.959 19.9 122.693 19.94 122.413 20.02C122.146 20.0867 121.919 20.2133 121.733 20.4C121.546 20.5867 121.453 20.86 121.453 21.22C121.453 21.5533 121.559 21.82 121.773 22.02C121.999 22.22 122.293 22.3867 122.653 22.52C123.013 22.6533 123.406 22.7733 123.833 22.88C124.246 22.9867 124.653 23.1133 125.053 23.26C125.466 23.4067 125.833 23.6 126.153 23.84C126.486 24.0667 126.753 24.3667 126.953 24.74C127.166 25.1 127.273 25.56 127.273 26.12C127.273 26.7733 127.079 27.3333 126.693 27.8C126.319 28.2533 125.839 28.6 125.253 28.84C124.679 29.08 124.073 29.2 123.433 29.2C122.673 29.2 121.913 29.0667 121.153 28.8C120.406 28.52 119.773 28.04 119.253 27.36ZM128.803 27.36C128.683 27.1733 128.63 26.96 128.643 26.72C128.657 26.4667 128.797 26.2533 129.063 26.08C129.25 25.96 129.443 25.9133 129.643 25.94C129.857 25.9533 130.057 26.0533 130.243 26.24C130.617 26.6533 131.03 26.98 131.483 27.22C131.95 27.46 132.51 27.58 133.163 27.58C133.43 27.5667 133.703 27.5267 133.983 27.46C134.263 27.38 134.503 27.2467 134.703 27.06C134.903 26.86 135.003 26.5733 135.003 26.2C135.003 25.8667 134.897 25.6 134.683 25.4C134.47 25.2 134.19 25.04 133.843 24.92C133.497 24.7867 133.123 24.6667 132.723 24.56C132.297 24.44 131.863 24.3067 131.423 24.16C130.997 24.0133 130.61 23.8267 130.263 23.6C129.917 23.36 129.63 23.0533 129.403 22.68C129.19 22.3067 129.083 21.8467 129.083 21.3C129.083 20.6733 129.257 20.1333 129.603 19.68C129.963 19.2267 130.423 18.8733 130.983 18.62C131.557 18.3667 132.177 18.24 132.843 18.24C133.23 18.24 133.637 18.2933 134.063 18.4C134.49 18.4933 134.903 18.6467 135.303 18.86C135.703 19.0733 136.05 19.3533 136.343 19.7C136.477 19.8733 136.55 20.08 136.563 20.32C136.59 20.56 136.483 20.7733 136.243 20.96C136.083 21.0933 135.89 21.1533 135.663 21.14C135.437 21.1267 135.25 21.0533 135.103 20.92C134.85 20.6 134.523 20.3533 134.123 20.18C133.723 19.9933 133.27 19.9 132.763 19.9C132.51 19.9 132.243 19.94 131.963 20.02C131.697 20.0867 131.47 20.2133 131.283 20.4C131.097 20.5867 131.003 20.86 131.003 21.22C131.003 21.5533 131.11 21.82 131.323 22.02C131.55 22.22 131.843 22.3867 132.203 22.52C132.563 22.6533 132.957 22.7733 133.383 22.88C133.797 22.9867 134.203 23.1133 134.603 23.26C135.017 23.4067 135.383 23.6 135.703 23.84C136.037 24.0667 136.303 24.3667 136.503 24.74C136.717 25.1 136.823 25.56 136.823 26.12C136.823 26.7733 136.63 27.3333 136.243 27.8C135.87 28.2533 135.39 28.6 134.803 28.84C134.23 29.08 133.623 29.2 132.983 29.2C132.223 29.2 131.463 29.0667 130.703 28.8C129.957 28.52 129.323 28.04 128.803 27.36Z" fill="black"/>
</svg>
