<svg width="52" height="52" viewBox="0 0 52 52" fill="none" xmlns="http://www.w3.org/2000/svg">
<rect x="1" y="1" width="50" height="50" rx="4" fill="white" stroke="black" stroke-width="2"/>
<path fill-rule="evenodd" clip-rule="evenodd" d="M42.2998 17.8254C42.367 17.9899 42.401 18.166 42.4 18.3436L42.4 18.7126C42.3975 18.7183 42.3935 18.7271 42.3871 18.7395L42.3805 18.7522C42.3692 18.7739 42.3509 18.8089 42.3365 18.8421C42.322 18.8752 42.3066 18.9163 42.296 18.9641C42.2224 19.1199 42.1249 19.2634 42.0071 19.3894L37.3256 23.9715L19.3879 42.0069C19.254 42.1402 19.0935 42.2439 18.9169 42.3113C18.7402 42.3787 18.5512 42.4083 18.3623 42.398L18.3542 42.3976H11.35C10.992 42.3976 10.6486 42.2553 10.3954 42.0022C10.1423 41.749 10 41.4057 10 41.0477L10 34.0522L10 34.0505C9.99899 33.8728 10.033 33.6967 10.1002 33.5323C10.1673 33.368 10.2666 33.2181 10.3915 33.0921L33.0941 10.3912C33.2202 10.2662 33.3696 10.1673 33.534 10.1002C33.6985 10.033 33.8746 9.999 34.0523 10L34.0557 10C34.2334 9.999 34.4095 10.033 34.574 10.1002C34.7383 10.1673 34.8882 10.2665 35.0142 10.3915L42.009 17.3857C42.1339 17.5118 42.2327 17.6612 42.2998 17.8254ZM12.7 39.6978H17.7938L34.4783 23.0145L29.3845 17.9211L12.7 34.6044V39.6978ZM31.286 16.0183L36.3812 21.1132L39.1305 18.3446L34.0547 13.2692L31.286 16.0183Z" fill="black"/>
</svg>
