<svg width="478" height="43" viewBox="0 0 478 43" fill="none" xmlns="http://www.w3.org/2000/svg">
<rect x="1" y="1" width="476" height="41" rx="9" fill="#545FDF" stroke="black" stroke-width="2" stroke-linejoin="round"/>
<path d="M222.048 11.6C222.56 11.6 222.976 11.7707 223.296 12.112C223.616 12.4533 223.776 12.88 223.776 13.392V32.048C223.776 32.6027 223.584 33.072 223.2 33.456C222.838 33.8187 222.379 34 221.824 34C221.547 34 221.259 33.9573 220.96 33.872C220.683 33.7653 220.47 33.6267 220.32 33.456L207.744 17.488L208.576 16.976V32.208C208.576 32.72 208.406 33.1467 208.064 33.488C207.744 33.8293 207.318 34 206.784 34C206.272 34 205.856 33.8293 205.536 33.488C205.216 33.1467 205.056 32.72 205.056 32.208V13.552C205.056 12.9973 205.238 12.5387 205.6 12.176C205.984 11.792 206.454 11.6 207.008 11.6C207.307 11.6 207.616 11.664 207.936 11.792C208.256 11.8987 208.491 12.0693 208.64 12.304L220.832 27.856L220.288 28.24V13.392C220.288 12.88 220.448 12.4533 220.768 12.112C221.088 11.7707 221.515 11.6 222.048 11.6ZM236.332 34.32C234.518 34.32 232.94 33.9467 231.596 33.2C230.273 32.432 229.249 31.3973 228.524 30.096C227.82 28.7947 227.468 27.3227 227.468 25.68C227.468 23.76 227.852 22.128 228.62 20.784C229.409 19.4187 230.433 18.3733 231.692 17.648C232.95 16.9227 234.284 16.56 235.692 16.56C236.78 16.56 237.804 16.784 238.764 17.232C239.745 17.68 240.609 18.2987 241.356 19.088C242.102 19.856 242.689 20.752 243.116 21.776C243.564 22.8 243.788 23.888 243.788 25.04C243.766 25.552 243.564 25.968 243.18 26.288C242.796 26.608 242.348 26.768 241.836 26.768H229.612L228.652 23.568H240.396L239.692 24.208V23.344C239.649 22.7253 239.425 22.1707 239.02 21.68C238.636 21.1893 238.145 20.8053 237.548 20.528C236.972 20.2293 236.353 20.08 235.692 20.08C235.052 20.08 234.454 20.1653 233.9 20.336C233.345 20.5067 232.865 20.7947 232.46 21.2C232.054 21.6053 231.734 22.1493 231.5 22.832C231.265 23.5147 231.148 24.3787 231.148 25.424C231.148 26.576 231.382 27.5573 231.852 28.368C232.342 29.1573 232.961 29.7653 233.708 30.192C234.476 30.5973 235.286 30.8 236.14 30.8C236.929 30.8 237.558 30.736 238.028 30.608C238.497 30.48 238.87 30.3307 239.148 30.16C239.446 29.968 239.713 29.808 239.948 29.68C240.332 29.488 240.694 29.392 241.036 29.392C241.505 29.392 241.889 29.552 242.188 29.872C242.508 30.192 242.668 30.5653 242.668 30.992C242.668 31.568 242.369 32.0907 241.772 32.56C241.217 33.0293 240.438 33.4453 239.436 33.808C238.433 34.1493 237.398 34.32 236.332 34.32ZM247.495 16.88C248.113 16.88 248.636 17.1467 249.062 17.68L259.751 30.96C260.028 31.3013 260.167 31.6853 260.167 32.112C260.167 32.6453 259.964 33.104 259.559 33.488C259.153 33.872 258.705 34.064 258.215 34.064C257.596 34.064 257.073 33.7867 256.647 33.232L245.959 19.952C245.681 19.6107 245.543 19.2267 245.543 18.8C245.543 18.2453 245.735 17.7867 246.118 17.424C246.524 17.0613 246.983 16.88 247.495 16.88ZM247.527 34.032C247.1 34.032 246.673 33.872 246.247 33.552C245.841 33.2107 245.639 32.8053 245.639 32.336C245.639 31.9093 245.799 31.504 246.118 31.12L251.015 25.136L252.935 28.336L249.062 33.232C248.657 33.7653 248.145 34.032 247.527 34.032ZM258.183 16.88C258.695 16.88 259.121 17.0613 259.463 17.424C259.825 17.7653 260.007 18.16 260.007 18.608C260.007 18.8213 259.975 19.0347 259.911 19.248C259.847 19.4613 259.729 19.664 259.559 19.856L254.727 25.744L252.711 22.96L256.647 17.744C257.073 17.168 257.585 16.88 258.183 16.88ZM264.522 17.2H272.106C272.618 17.2 273.045 17.3707 273.386 17.712C273.727 18.0533 273.898 18.48 273.898 18.992C273.898 19.4827 273.727 19.8987 273.386 20.24C273.045 20.56 272.618 20.72 272.106 20.72H264.522C264.01 20.72 263.583 20.5493 263.242 20.208C262.901 19.8667 262.73 19.44 262.73 18.928C262.73 18.4373 262.901 18.032 263.242 17.712C263.583 17.3707 264.01 17.2 264.522 17.2ZM267.946 13.2C268.501 13.2 268.949 13.392 269.29 13.776C269.653 14.1387 269.834 14.5973 269.834 15.152V29.392C269.834 29.6907 269.887 29.936 269.994 30.128C270.122 30.32 270.282 30.4587 270.474 30.544C270.687 30.6293 270.911 30.672 271.146 30.672C271.402 30.672 271.637 30.6293 271.85 30.544C272.063 30.4373 272.309 30.384 272.586 30.384C272.885 30.384 273.151 30.5227 273.386 30.8C273.642 31.0773 273.77 31.4613 273.77 31.952C273.77 32.5493 273.439 33.04 272.778 33.424C272.138 33.808 271.445 34 270.698 34C270.25 34 269.749 33.968 269.194 33.904C268.661 33.8187 268.149 33.6373 267.658 33.36C267.189 33.0613 266.794 32.6133 266.474 32.016C266.154 31.4187 265.994 30.5973 265.994 29.552V15.152C265.994 14.5973 266.175 14.1387 266.538 13.776C266.922 13.392 267.391 13.2 267.946 13.2Z" fill="white"/>
</svg>
