<svg width="121" height="99" viewBox="0 0 121 99" fill="none" xmlns="http://www.w3.org/2000/svg">
<path fill-rule="evenodd" clip-rule="evenodd" d="M49.2093 5.51306C25.0774 5.51306 5.5108 25.0944 5.5108 49.2539C5.5108 73.4135 25.0774 92.9948 49.2093 92.9948C73.3411 92.9948 92.9078 73.4135 92.9078 49.2539C92.9078 25.0944 73.3411 5.51306 49.2093 5.51306ZM0.510803 49.2539C0.510803 22.3372 22.3117 0.513062 49.2093 0.513062C76.1069 0.513062 97.9078 22.3372 97.9078 49.2539C97.9078 76.1706 76.1069 97.9948 49.2093 97.9948C22.3117 97.9948 0.510803 76.1706 0.510803 49.2539ZM49.2093 20.5917C43.3815 20.5917 38.6532 25.321 38.6532 31.1597C38.6532 36.9985 43.3815 41.7278 49.2093 41.7278C55.0371 41.7278 59.7654 36.9985 59.7654 31.1597C59.7654 25.321 55.0371 20.5917 49.2093 20.5917ZM33.6532 31.1597C33.6532 22.5639 40.6158 15.5917 49.2093 15.5917C57.8029 15.5917 64.7654 22.5639 64.7654 31.1597C64.7654 39.7556 57.8029 46.7278 49.2093 46.7278C40.6158 46.7278 33.6532 39.7556 33.6532 31.1597ZM39.5551 49.2792C42.5833 47.6243 45.8665 46.754 49.2093 46.754C52.5522 46.754 55.8354 47.6243 58.8636 49.2792C61.8871 50.9316 64.5842 53.3255 66.8252 56.2822C69.0659 59.2385 70.8189 62.7148 72.0076 66.5011C73.1965 70.2881 73.8043 74.3319 73.8043 78.4058V80.9058H71.3043H49.2093L27.1144 80.9058H24.6144V78.4058C24.6144 74.3319 25.2221 70.2881 26.4111 66.5011C27.5997 62.7148 29.3528 59.2386 31.5935 56.2822C33.8344 53.3255 36.5315 50.9316 39.5551 49.2792ZM49.2093 51.754C46.7491 51.754 44.286 52.3917 41.9529 53.6668C39.615 54.9444 37.4407 56.8451 35.5782 59.3024C33.7155 61.7601 32.2136 64.7112 31.1815 67.9987C30.3906 70.5178 29.8915 73.1845 29.7015 75.9058L49.2093 75.9058H68.7172C68.5272 73.1845 68.028 70.5178 67.2372 67.9987C66.2051 64.7112 64.7032 61.7601 62.8404 59.3024C60.978 56.8451 58.8036 54.9444 56.4658 53.6668C54.1327 52.3917 51.6696 51.754 49.2093 51.754ZM120.235 71.8248C120.322 72.038 120.366 72.2663 120.365 72.4966L120.242 72.5841C120.25 72.6656 120.25 72.7476 120.242 72.8291C120.259 72.9686 120.259 73.1096 120.242 73.2491C120.147 73.4617 120.017 73.6569 119.857 73.8265L114.887 78.6912L95.8647 97.8172C95.6909 97.9903 95.4827 98.1249 95.2536 98.2123C95.0245 98.2997 94.7795 98.338 94.5347 98.3247H87.1147C86.6506 98.3247 86.2054 98.1403 85.8772 97.8122C85.5491 97.484 85.3647 97.0389 85.3647 96.5748V89.1554C85.3633 88.9251 85.4075 88.6968 85.4946 88.4836C85.5817 88.2704 85.71 88.0765 85.8722 87.913L105 68.7869L109.952 63.8348C110.116 63.6726 110.31 63.5443 110.523 63.4572C110.736 63.3701 110.964 63.326 111.195 63.3273C111.425 63.326 111.653 63.3701 111.866 63.4572C112.08 63.5443 112.274 63.6726 112.437 63.8348L119.857 71.2542C120.019 71.4177 120.148 71.6116 120.235 71.8248ZM88.8647 94.825H93.8172L111.195 77.4487L106.242 72.4966L88.8647 89.8728V94.825ZM108.71 70.0293L113.662 74.9814L116.13 72.4966L111.195 67.562L108.71 70.0293Z" fill="white"/>
</svg>
