<svg width="52" height="40" viewBox="0 0 52 40" fill="none" xmlns="http://www.w3.org/2000/svg">
<path d="M49.7714 22.2222C51.0022 22.2222 52 21.2273 52 20C52 18.7727 51.0022 17.7778 49.7714 17.7778L19.4945 17.7778L26.0901 11.201C26.9604 10.3331 26.9604 8.92609 26.0901 8.05826C25.2198 7.19043 23.8088 7.19043 22.9385 8.05826L12.5385 18.4286C11.6681 19.2965 11.6681 20.7035 12.5385 21.5713L22.9385 31.9417C23.8088 32.8095 25.2198 32.8095 26.0901 31.9417C26.9604 31.0739 26.9604 29.6668 26.0901 28.799L19.4945 22.2222L49.7714 22.2222Z" fill="#F5453D"/>
<path d="M4.45714 2.22222C4.45714 0.994921 3.45938 -2.12178e-06 2.22857 -2.17558e-06C0.997765 -2.22938e-06 -4.34895e-08 0.994921 -9.71364e-08 2.22222L-1.65132e-06 37.7778C-1.70497e-06 39.0051 0.997763 40 2.22857 40C3.45938 40 4.45714 39.0051 4.45714 37.7778L4.45714 2.22222Z" fill="#F5453D"/>
</svg>
