<svg width="31" height="31" viewBox="0 0 31 31" fill="none" xmlns="http://www.w3.org/2000/svg">
<path fill-rule="evenodd" clip-rule="evenodd" d="M13.7143 0.5C6.41623 0.5 0.5 6.41623 0.5 13.7143C0.5 21.0123 6.41622 26.9285 13.7143 26.9285C16.4586 26.9285 19.0099 26.0901 21.1224 24.6579L26.2322 29.7678C27.2085 30.7441 28.7914 30.7441 29.7678 29.7678C30.7441 28.7914 30.7441 27.2085 29.7678 26.2322L24.6579 21.1224C26.0901 19.0099 26.9285 16.4586 26.9285 13.7143C26.9285 6.41622 21.0123 0.5 13.7143 0.5ZM5.5 13.7143C5.5 9.17765 9.17765 5.5 13.7143 5.5C18.2509 5.5 21.9285 9.17765 21.9285 13.7143C21.9285 15.9795 21.0151 18.0264 19.5305 19.5148C18.0407 21.0086 15.9872 21.9285 13.7143 21.9285C9.17765 21.9285 5.5 18.2509 5.5 13.7143Z" fill="#545FDF"/>
</svg>
