<svg width="70" height="70" viewBox="0 0 70 70" fill="none" xmlns="http://www.w3.org/2000/svg">
<path fill-rule="evenodd" clip-rule="evenodd" d="M30.8333 0C13.8045 0 0 13.8045 0 30.8333C0 47.862 13.8045 61.6666 30.8333 61.6666C37.2367 61.6666 43.1897 59.7102 48.1189 56.3684L60.0419 68.2915C62.3199 70.5695 66.0134 70.5695 68.2915 68.2915C70.5695 66.0134 70.5695 62.3199 68.2915 60.0419L56.3685 48.1189C59.7103 43.1898 61.6666 37.2367 61.6666 30.8333C61.6666 13.8045 47.862 0 30.8333 0ZM11.6667 30.8333C11.6667 20.2479 20.2479 11.6667 30.8333 11.6667C41.4187 11.6667 49.9999 20.2479 49.9999 30.8333C49.9999 36.1187 47.8685 40.8949 44.4044 44.368C40.9283 47.8534 36.1367 49.9999 30.8333 49.9999C20.2479 49.9999 11.6667 41.4187 11.6667 30.8333Z" fill="#545FDF"/>
</svg>
