<svg width="140" height="43" viewBox="0 0 140 43" fill="none" xmlns="http://www.w3.org/2000/svg">
<rect x="1" y="-1" width="138" height="41" rx="9" transform="matrix(1 0 0 -1 0 41)" fill="#9CCFE5" stroke="black" stroke-width="2"/>
<path d="M38.9574 22.3249C38.7534 22.0968 38.6409 21.8036 38.6409 21.5C38.6409 21.1964 38.7534 20.9032 38.9574 20.6751L40.586 18.8754C40.7654 18.6787 40.8769 18.4313 40.9043 18.1686C40.9317 17.9059 40.8737 17.6414 40.7386 17.4131L38.194 13.0886C38.0603 12.8606 37.8567 12.6798 37.6122 12.5721C37.3677 12.4643 37.0949 12.4352 36.8326 12.4887L34.4406 12.9637C34.1362 13.0254 33.8193 12.9756 33.5498 12.8237C33.2802 12.6717 33.0766 12.4281 32.9774 12.1388L32.2013 9.85158C32.1159 9.60334 31.9533 9.38773 31.7364 9.23522C31.5195 9.08271 31.2593 9.00102 30.9925 9.0017H25.9032C25.6257 8.98747 25.3512 9.06285 25.1214 9.21631C24.8917 9.36978 24.7194 9.59289 24.6308 9.85158L23.9183 12.1388C23.8191 12.4281 23.6155 12.6717 23.3459 12.8237C23.0764 12.9756 22.7595 13.0254 22.4551 12.9637L19.9995 12.4887C19.7509 12.4542 19.4973 12.4928 19.2709 12.5995C19.0445 12.7063 18.8553 12.8765 18.7272 13.0886L16.1825 17.4131C16.044 17.6388 15.9818 17.9018 16.0046 18.1645C16.0275 18.4271 16.1343 18.6759 16.3098 18.8754L17.9256 20.6751C18.1296 20.9032 18.2421 21.1964 18.2421 21.5C18.2421 21.8036 18.1296 22.0968 17.9256 22.3249L16.3098 24.1246C16.1343 24.3241 16.0275 24.5729 16.0046 24.8355C15.9818 25.0982 16.044 25.3612 16.1825 25.5869L18.7272 29.9114C18.8609 30.1394 19.0645 30.3202 19.309 30.4279C19.5534 30.5357 19.8263 30.5648 20.0886 30.5113L22.4806 30.0363C22.785 29.9746 23.1018 30.0244 23.3714 30.1763C23.6409 30.3283 23.8445 30.5719 23.9438 30.8612L24.7199 33.1484C24.8084 33.4071 24.9807 33.6302 25.2105 33.7837C25.4402 33.9371 25.7148 34.0125 25.9922 33.9983H31.0816C31.3483 33.999 31.6085 33.9173 31.8254 33.7648C32.0423 33.6123 32.205 33.3967 32.2903 33.1484L33.0664 30.8612C33.1657 30.5719 33.3693 30.3283 33.6389 30.1763C33.9084 30.0244 34.2253 29.9746 34.5296 30.0363L36.9216 30.5113C37.184 30.5648 37.4568 30.5357 37.7013 30.4279C37.9457 30.3202 38.1493 30.1394 38.283 29.9114L40.8277 25.5869C40.9628 25.3586 41.0208 25.0941 40.9934 24.8314C40.9659 24.5687 40.8545 24.3213 40.675 24.1246L38.9574 22.3249ZM37.0616 23.9997L38.0795 25.1245L36.4509 27.8991L34.9495 27.5992C34.0331 27.4152 33.0799 27.5681 32.2707 28.0289C31.4615 28.4897 30.8528 29.2262 30.5599 30.0988L30.0765 31.4986H26.8193L26.3612 30.0738C26.0684 29.2013 25.4596 28.4647 24.6504 28.0039C23.8413 27.5431 22.888 27.3902 21.9717 27.5742L20.4703 27.8741L18.8163 25.112L19.8341 23.9872C20.4601 23.2997 20.8061 22.4098 20.8061 21.4875C20.8061 20.5652 20.4601 19.6753 19.8341 18.9878L18.8163 17.863L20.4449 15.1134L21.9462 15.4133C22.8626 15.5973 23.8158 15.4444 24.625 14.9836C25.4342 14.5228 26.043 13.7862 26.3358 12.9137L26.8193 11.5014H30.0765L30.5599 12.9262C30.8528 13.7987 31.4615 14.5353 32.2707 14.9961C33.0799 15.4569 34.0331 15.6098 34.9495 15.4258L36.4509 15.1259L38.0795 17.9005L37.0616 19.0253C36.4427 19.7112 36.1009 20.596 36.1009 21.5125C36.1009 22.429 36.4427 23.3138 37.0616 23.9997ZM28.4479 16.5007C27.4413 16.5007 26.4573 16.7939 25.6204 17.3432C24.7834 17.8925 24.1311 18.6733 23.7459 19.5868C23.3607 20.5003 23.2599 21.5055 23.4563 22.4753C23.6527 23.4451 24.1374 24.3359 24.8491 25.0351C25.5609 25.7342 26.4677 26.2104 27.455 26.4033C28.4422 26.5962 29.4655 26.4972 30.3955 26.1188C31.3254 25.7404 32.1203 25.0996 32.6795 24.2775C33.2387 23.4553 33.5372 22.4888 33.5372 21.5C33.5372 20.1741 33.001 18.9025 32.0466 17.9649C31.0921 17.0274 29.7976 16.5007 28.4479 16.5007ZM28.4479 23.9997C27.9446 23.9997 27.4526 23.8531 27.0341 23.5784C26.6156 23.3037 26.2895 22.9133 26.0969 22.4566C25.9043 21.9998 25.8539 21.4972 25.9521 21.0123C26.0503 20.5275 26.2926 20.0821 26.6485 19.7325C27.0044 19.3829 27.4578 19.1448 27.9514 19.0484C28.445 18.9519 28.9567 19.0014 29.4217 19.1906C29.8866 19.3798 30.2841 19.7002 30.5637 20.1113C30.8433 20.5223 30.9925 21.0056 30.9925 21.5C30.9925 22.163 30.7244 22.7987 30.2472 23.2675C29.77 23.7363 29.1228 23.9997 28.4479 23.9997Z" fill="black"/>
<path d="M51.92 29.2C50.96 29.2 50.1067 29.0667 49.36 28.8C48.6133 28.5333 47.9 28.0933 47.22 27.48C47.0733 27.3733 46.96 27.2467 46.88 27.1C46.8133 26.94 46.78 26.78 46.78 26.62C46.78 26.3667 46.8733 26.14 47.06 25.94C47.2467 25.74 47.48 25.64 47.76 25.64C47.9733 25.64 48.1733 25.7133 48.36 25.86C48.8667 26.3267 49.3933 26.68 49.94 26.92C50.5 27.16 51.1533 27.28 51.9 27.28C52.4333 27.28 52.92 27.1933 53.36 27.02C53.8133 26.8467 54.1733 26.6133 54.44 26.32C54.7067 26.0267 54.84 25.6867 54.84 25.3C54.84 24.82 54.7 24.4267 54.42 24.12C54.1533 23.8 53.76 23.54 53.24 23.34C52.7333 23.1267 52.12 22.9467 51.4 22.8C50.7333 22.68 50.1333 22.5133 49.6 22.3C49.08 22.0867 48.6333 21.82 48.26 21.5C47.8867 21.1667 47.6 20.7733 47.4 20.32C47.2 19.8667 47.1 19.34 47.1 18.74C47.1 17.9267 47.3133 17.2267 47.74 16.64C48.1667 16.0533 48.7467 15.6 49.48 15.28C50.2133 14.96 51.04 14.8 51.96 14.8C52.8 14.8 53.5867 14.9333 54.32 15.2C55.0533 15.4533 55.6467 15.8 56.1 16.24C56.42 16.52 56.58 16.82 56.58 17.14C56.58 17.38 56.48 17.6067 56.28 17.82C56.0933 18.02 55.8733 18.12 55.62 18.12C55.4333 18.12 55.2733 18.0667 55.14 17.96C54.9267 17.7333 54.64 17.5333 54.28 17.36C53.92 17.1733 53.5333 17.02 53.12 16.9C52.72 16.78 52.3333 16.72 51.96 16.72C51.36 16.72 50.8467 16.8067 50.42 16.98C49.9933 17.14 49.6667 17.3667 49.44 17.66C49.2133 17.94 49.1 18.2733 49.1 18.66C49.1 19.1133 49.2267 19.4867 49.48 19.78C49.7467 20.0733 50.1133 20.3133 50.58 20.5C51.0467 20.6733 51.58 20.8333 52.18 20.98C52.9133 21.14 53.5667 21.32 54.14 21.52C54.7267 21.72 55.22 21.98 55.62 22.3C56.02 22.6067 56.3267 22.9933 56.54 23.46C56.7533 23.9267 56.86 24.5067 56.86 25.2C56.86 26 56.6333 26.7 56.18 27.3C55.7267 27.9 55.1267 28.3667 54.38 28.7C53.6467 29.0333 52.8267 29.2 51.92 29.2ZM63.9992 29.2C62.8926 29.2 61.9326 28.9733 61.1192 28.52C60.3059 28.0533 59.6726 27.42 59.2192 26.62C58.7792 25.8067 58.5592 24.88 58.5592 23.84C58.5592 22.6667 58.7926 21.6667 59.2592 20.84C59.7392 20 60.3592 19.36 61.1192 18.92C61.8792 18.4667 62.6859 18.24 63.5392 18.24C64.1926 18.24 64.8126 18.3733 65.3992 18.64C65.9859 18.8933 66.5059 19.2533 66.9592 19.72C67.4259 20.1733 67.7926 20.7133 68.0592 21.34C68.3259 21.9533 68.4659 22.6267 68.4792 23.36C68.4659 23.6267 68.3592 23.8467 68.1592 24.02C67.9592 24.1933 67.7259 24.28 67.4592 24.28H59.6792L59.1992 22.58H66.7192L66.3392 22.94V22.44C66.3126 21.9733 66.1592 21.5667 65.8792 21.22C65.5992 20.86 65.2526 20.5867 64.8392 20.4C64.4259 20.2 63.9926 20.1 63.5392 20.1C63.1392 20.1 62.7526 20.1667 62.3792 20.3C62.0192 20.42 61.6926 20.62 61.3992 20.9C61.1192 21.18 60.8926 21.5533 60.7192 22.02C60.5592 22.4733 60.4792 23.04 60.4792 23.72C60.4792 24.4533 60.6326 25.0933 60.9392 25.64C61.2459 26.1867 61.6592 26.6133 62.1792 26.92C62.6992 27.2133 63.2726 27.36 63.8992 27.36C64.3926 27.36 64.7992 27.3133 65.1192 27.22C65.4392 27.1133 65.7059 26.9867 65.9192 26.84C66.1326 26.6933 66.3192 26.5533 66.4792 26.42C66.6792 26.3 66.8792 26.24 67.0792 26.24C67.3192 26.24 67.5192 26.3267 67.6792 26.5C67.8392 26.66 67.9192 26.8533 67.9192 27.08C67.9192 27.3733 67.7726 27.64 67.4792 27.88C67.1192 28.2267 66.6192 28.5333 65.9792 28.8C65.3526 29.0667 64.6926 29.2 63.9992 29.2ZM70.5998 18.6H75.2998C75.5665 18.6 75.7865 18.6933 75.9598 18.88C76.1465 19.0533 76.2398 19.2733 76.2398 19.54C76.2398 19.7933 76.1465 20.0067 75.9598 20.18C75.7865 20.3533 75.5665 20.44 75.2998 20.44H70.5998C70.3332 20.44 70.1065 20.3533 69.9198 20.18C69.7465 19.9933 69.6598 19.7733 69.6598 19.52C69.6598 19.2533 69.7465 19.0333 69.9198 18.86C70.1065 18.6867 70.3332 18.6 70.5998 18.6ZM72.6998 16C72.9932 16 73.2332 16.1 73.4198 16.3C73.6065 16.4867 73.6998 16.7267 73.6998 17.02V26.3C73.6998 26.54 73.7398 26.7333 73.8198 26.88C73.8998 27.0267 74.0065 27.1267 74.1398 27.18C74.2865 27.2333 74.4332 27.26 74.5798 27.26C74.7265 27.26 74.8532 27.2333 74.9598 27.18C75.0798 27.1267 75.2198 27.1 75.3798 27.1C75.5398 27.1 75.6865 27.1733 75.8198 27.32C75.9532 27.4667 76.0198 27.6667 76.0198 27.92C76.0198 28.24 75.8465 28.5 75.4998 28.7C75.1532 28.9 74.7798 29 74.3798 29C74.1532 29 73.8865 28.98 73.5798 28.94C73.2732 28.9 72.9732 28.8 72.6798 28.64C72.3998 28.48 72.1665 28.2267 71.9798 27.88C71.7932 27.52 71.6998 27.02 71.6998 26.38V17.02C71.6998 16.7267 71.7932 16.4867 71.9798 16.3C72.1798 16.1 72.4198 16 72.6998 16ZM78.3147 18.6H83.0147C83.2814 18.6 83.5014 18.6933 83.6747 18.88C83.8614 19.0533 83.9547 19.2733 83.9547 19.54C83.9547 19.7933 83.8614 20.0067 83.6747 20.18C83.5014 20.3533 83.2814 20.44 83.0147 20.44H78.3147C78.048 20.44 77.8214 20.3533 77.6347 20.18C77.4614 19.9933 77.3747 19.7733 77.3747 19.52C77.3747 19.2533 77.4614 19.0333 77.6347 18.86C77.8214 18.6867 78.048 18.6 78.3147 18.6ZM80.4147 16C80.708 16 80.948 16.1 81.1347 16.3C81.3214 16.4867 81.4147 16.7267 81.4147 17.02V26.3C81.4147 26.54 81.4547 26.7333 81.5347 26.88C81.6147 27.0267 81.7214 27.1267 81.8547 27.18C82.0014 27.2333 82.148 27.26 82.2947 27.26C82.4414 27.26 82.568 27.2333 82.6747 27.18C82.7947 27.1267 82.9347 27.1 83.0947 27.1C83.2547 27.1 83.4014 27.1733 83.5347 27.32C83.668 27.4667 83.7347 27.6667 83.7347 27.92C83.7347 28.24 83.5614 28.5 83.2147 28.7C82.868 28.9 82.4947 29 82.0947 29C81.868 29 81.6014 28.98 81.2947 28.94C80.988 28.9 80.688 28.8 80.3947 28.64C80.1147 28.48 79.8814 28.2267 79.6947 27.88C79.508 27.52 79.4147 27.02 79.4147 26.38V17.02C79.4147 16.7267 79.508 16.4867 79.6947 16.3C79.8947 16.1 80.1347 16 80.4147 16ZM88.0495 27.98C88.0495 28.2733 87.9562 28.52 87.7695 28.72C87.5829 28.9067 87.3429 29 87.0495 29C86.7695 29 86.5295 28.9067 86.3295 28.72C86.1429 28.52 86.0495 28.2733 86.0495 27.98V19.42C86.0495 19.1267 86.1429 18.8867 86.3295 18.7C86.5295 18.5 86.7695 18.4 87.0495 18.4C87.3429 18.4 87.5829 18.5 87.7695 18.7C87.9562 18.8867 88.0495 19.1267 88.0495 19.42V27.98ZM87.0295 17.08C86.6429 17.08 86.3629 17.0133 86.1895 16.88C86.0162 16.7333 85.9295 16.4933 85.9295 16.16V15.84C85.9295 15.5067 86.0229 15.2733 86.2095 15.14C86.3962 15.0067 86.6762 14.94 87.0495 14.94C87.4495 14.94 87.7362 15.0133 87.9095 15.16C88.0829 15.2933 88.1695 15.52 88.1695 15.84V16.16C88.1695 16.5067 88.0762 16.7467 87.8895 16.88C87.7162 17.0133 87.4295 17.08 87.0295 17.08ZM96.1598 18.24C97.1065 18.24 97.8398 18.44 98.3598 18.84C98.8798 19.2267 99.2398 19.7533 99.4398 20.42C99.6532 21.0733 99.7598 21.8067 99.7598 22.62V27.98C99.7598 28.2733 99.6598 28.52 99.4598 28.72C99.2732 28.9067 99.0398 29 98.7598 29C98.4665 29 98.2265 28.9067 98.0398 28.72C97.8532 28.52 97.7598 28.2733 97.7598 27.98V22.64C97.7598 22.16 97.6932 21.7333 97.5598 21.36C97.4265 20.9733 97.1932 20.6667 96.8598 20.44C96.5398 20.2 96.0865 20.08 95.4998 20.08C94.9532 20.08 94.4732 20.2 94.0598 20.44C93.6465 20.6667 93.3198 20.9733 93.0798 21.36C92.8532 21.7333 92.7398 22.16 92.7398 22.64V27.98C92.7398 28.2733 92.6398 28.52 92.4398 28.72C92.2532 28.9067 92.0198 29 91.7398 29C91.4465 29 91.2065 28.9067 91.0198 28.72C90.8332 28.52 90.7398 28.2733 90.7398 27.98V19.5C90.7398 19.2067 90.8332 18.9667 91.0198 18.78C91.2065 18.58 91.4465 18.48 91.7398 18.48C92.0198 18.48 92.2532 18.58 92.4398 18.78C92.6398 18.9667 92.7398 19.2067 92.7398 19.5V20.62L92.3798 20.82C92.4732 20.5267 92.6332 20.2333 92.8598 19.94C93.0998 19.6333 93.3865 19.3533 93.7198 19.1C94.0532 18.8333 94.4265 18.6267 94.8398 18.48C95.2532 18.32 95.6932 18.24 96.1598 18.24ZM106.917 18.24C107.49 18.24 108.017 18.3333 108.497 18.52C108.977 18.7067 109.39 18.9467 109.737 19.24C110.097 19.52 110.377 19.8133 110.577 20.12C110.777 20.4267 110.877 20.6933 110.877 20.92L110.417 20.94V19.34C110.417 19.06 110.51 18.82 110.697 18.62C110.883 18.42 111.123 18.32 111.417 18.32C111.71 18.32 111.95 18.42 112.137 18.62C112.323 18.8067 112.417 19.0467 112.417 19.34V28.16C112.417 29.2933 112.177 30.2133 111.697 30.92C111.217 31.64 110.577 32.1667 109.777 32.5C108.99 32.8333 108.123 33 107.177 33C106.843 33 106.45 32.9533 105.997 32.86C105.543 32.78 105.123 32.68 104.737 32.56C104.363 32.44 104.103 32.32 103.957 32.2C103.65 32.04 103.443 31.8533 103.337 31.64C103.243 31.4267 103.243 31.2133 103.337 31C103.47 30.7067 103.65 30.5267 103.877 30.46C104.103 30.3933 104.363 30.4133 104.657 30.52C104.79 30.56 104.997 30.6333 105.277 30.74C105.557 30.8467 105.87 30.94 106.217 31.02C106.563 31.1133 106.89 31.16 107.197 31.16C108.263 31.16 109.063 30.9133 109.597 30.42C110.143 29.9267 110.417 29.2533 110.417 28.4V26.6L110.637 26.74C110.597 27.02 110.47 27.3067 110.257 27.6C110.057 27.88 109.79 28.14 109.457 28.38C109.123 28.62 108.737 28.82 108.297 28.98C107.87 29.1267 107.43 29.2 106.977 29.2C106.03 29.2 105.183 28.9667 104.437 28.5C103.69 28.02 103.097 27.3733 102.657 26.56C102.217 25.7333 101.997 24.7867 101.997 23.72C101.997 22.6533 102.217 21.7133 102.657 20.9C103.097 20.0733 103.683 19.4267 104.417 18.96C105.163 18.48 105.997 18.24 106.917 18.24ZM107.217 20.08C106.563 20.08 105.99 20.24 105.497 20.56C105.003 20.88 104.617 21.3133 104.337 21.86C104.057 22.4067 103.917 23.0267 103.917 23.72C103.917 24.4133 104.057 25.0333 104.337 25.58C104.617 26.1267 105.003 26.56 105.497 26.88C105.99 27.2 106.563 27.36 107.217 27.36C107.87 27.36 108.443 27.2067 108.937 26.9C109.43 26.58 109.817 26.1467 110.097 25.6C110.377 25.04 110.517 24.4133 110.517 23.72C110.517 23.0267 110.377 22.4067 110.097 21.86C109.817 21.3 109.43 20.8667 108.937 20.56C108.443 20.24 107.87 20.08 107.217 20.08ZM114.378 27.36C114.258 27.1733 114.204 26.96 114.218 26.72C114.231 26.4667 114.371 26.2533 114.638 26.08C114.824 25.96 115.018 25.9133 115.218 25.94C115.431 25.9533 115.631 26.0533 115.818 26.24C116.191 26.6533 116.604 26.98 117.058 27.22C117.524 27.46 118.084 27.58 118.738 27.58C119.004 27.5667 119.278 27.5267 119.558 27.46C119.838 27.38 120.078 27.2467 120.278 27.06C120.478 26.86 120.578 26.5733 120.578 26.2C120.578 25.8667 120.471 25.6 120.258 25.4C120.044 25.2 119.764 25.04 119.418 24.92C119.071 24.7867 118.698 24.6667 118.298 24.56C117.871 24.44 117.438 24.3067 116.998 24.16C116.571 24.0133 116.184 23.8267 115.838 23.6C115.491 23.36 115.204 23.0533 114.978 22.68C114.764 22.3067 114.658 21.8467 114.658 21.3C114.658 20.6733 114.831 20.1333 115.178 19.68C115.538 19.2267 115.998 18.8733 116.558 18.62C117.131 18.3667 117.751 18.24 118.418 18.24C118.804 18.24 119.211 18.2933 119.638 18.4C120.064 18.4933 120.478 18.6467 120.878 18.86C121.278 19.0733 121.624 19.3533 121.918 19.7C122.051 19.8733 122.124 20.08 122.138 20.32C122.164 20.56 122.058 20.7733 121.818 20.96C121.658 21.0933 121.464 21.1533 121.238 21.14C121.011 21.1267 120.824 21.0533 120.678 20.92C120.424 20.6 120.098 20.3533 119.698 20.18C119.298 19.9933 118.844 19.9 118.338 19.9C118.084 19.9 117.818 19.94 117.538 20.02C117.271 20.0867 117.044 20.2133 116.858 20.4C116.671 20.5867 116.578 20.86 116.578 21.22C116.578 21.5533 116.684 21.82 116.898 22.02C117.124 22.22 117.418 22.3867 117.778 22.52C118.138 22.6533 118.531 22.7733 118.958 22.88C119.371 22.9867 119.778 23.1133 120.178 23.26C120.591 23.4067 120.958 23.6 121.278 23.84C121.611 24.0667 121.878 24.3667 122.078 24.74C122.291 25.1 122.398 25.56 122.398 26.12C122.398 26.7733 122.204 27.3333 121.818 27.8C121.444 28.2533 120.964 28.6 120.378 28.84C119.804 29.08 119.198 29.2 118.558 29.2C117.798 29.2 117.038 29.0667 116.278 28.8C115.531 28.52 114.898 28.04 114.378 27.36Z" fill="black"/>
</svg>
