<svg width="35" height="35" viewBox="0 0 35 35" fill="none" xmlns="http://www.w3.org/2000/svg">
<path d="M32.1403 18.6548C31.8548 18.3355 31.6973 17.925 31.6973 17.5C31.6973 17.075 31.8548 16.6645 32.1403 16.3452L34.4204 13.8255C34.6716 13.5502 34.8276 13.2038 34.866 12.836C34.9044 12.4682 34.8232 12.0979 34.6341 11.7783L31.0716 5.7241C30.8844 5.40481 30.5993 5.15171 30.2571 5.0009C29.9148 4.85009 29.5329 4.80925 29.1656 4.88422L25.8168 5.54913C25.3907 5.63561 24.9471 5.5659 24.5697 5.35315C24.1923 5.1404 23.9073 4.79932 23.7683 4.39428L22.6818 1.19222C22.5623 0.844678 22.3346 0.54282 22.0309 0.329309C21.7273 0.115797 21.363 0.0014327 20.9896 0.0023796H13.8645C13.476 -0.0175363 13.0916 0.0879891 12.77 0.302838C12.4483 0.517688 12.2071 0.83005 12.0832 1.19222L11.0857 4.39428C10.9467 4.79932 10.6617 5.1404 10.2843 5.35315C9.90692 5.5659 9.46332 5.63561 9.0372 5.54913L5.59935 4.88422C5.2512 4.83589 4.89628 4.88985 4.5793 5.03931C4.26231 5.18877 3.99745 5.42704 3.81807 5.7241L0.255525 11.7783C0.0616517 12.0944 -0.0255202 12.4626 0.00647234 12.8303C0.0384649 13.198 0.187984 13.5463 0.433653 13.8255L2.69587 16.3452C2.98144 16.6645 3.13893 17.075 3.13893 17.5C3.13893 17.925 2.98144 18.3355 2.69587 18.6548L0.433653 21.1745C0.187984 21.4537 0.0384649 21.802 0.00647234 22.1697C-0.0255202 22.5374 0.0616517 22.9056 0.255525 23.2217L3.81807 29.2759C4.00528 29.5952 4.29032 29.8483 4.63256 29.9991C4.97481 30.1499 5.35678 30.1907 5.72404 30.1158L9.07283 29.4509C9.49894 29.3644 9.94254 29.4341 10.3199 29.6468C10.6973 29.8596 10.9824 30.2007 11.1213 30.6057L12.2079 33.8078C12.3318 34.1699 12.573 34.4823 12.8947 34.6972C13.2163 34.912 13.6007 35.0175 13.9891 34.9976H21.1142C21.4877 34.9986 21.852 34.8842 22.1556 34.6707C22.4593 34.4572 22.687 34.1553 22.8065 33.8078L23.893 30.6057C24.032 30.2007 24.317 29.8596 24.6944 29.6468C25.0718 29.4341 25.5154 29.3644 25.9415 29.4509L29.2903 30.1158C29.6575 30.1907 30.0395 30.1499 30.3818 29.9991C30.724 29.8483 31.009 29.5952 31.1963 29.2759L34.7588 23.2217C34.9479 22.9021 35.0291 22.5318 34.9907 22.164C34.9523 21.7962 34.7963 21.4498 34.545 21.1745L32.1403 18.6548ZM29.4862 20.9995L30.9112 22.5743L28.6312 26.4588L26.5293 26.0388C25.2464 25.7812 23.9119 25.9953 22.779 26.6404C21.6462 27.2855 20.7939 28.3167 20.3839 29.5384L19.707 31.4981H15.147L14.5057 29.5034C14.0958 28.2818 13.2435 27.2505 12.1106 26.6054C10.9778 25.9603 9.64323 25.7462 8.36032 26.0038L6.25842 26.4238L3.94276 22.5568L5.36778 20.982C6.24409 20.0196 6.72855 18.7737 6.72855 17.4825C6.72855 16.1913 6.24409 14.9454 5.36778 13.983L3.94276 12.4082L6.22279 8.55872L8.3247 8.97866C9.60761 9.23626 10.9421 9.02219 12.075 8.37709C13.2078 7.73198 14.0601 6.70075 14.4701 5.47914L15.147 3.5019H19.707L20.3839 5.49663C20.7939 6.71824 21.6462 7.74948 22.779 8.39459C23.9119 9.03969 25.2464 9.25376 26.5293 8.99616L28.6312 8.57621L30.9112 12.4607L29.4862 14.0355C28.6198 14.9957 28.1413 16.2344 28.1413 17.5175C28.1413 18.8006 28.6198 20.0393 29.4862 20.9995ZM17.427 10.501C16.0178 10.501 14.6402 10.9114 13.4685 11.6805C12.2968 12.4496 11.3836 13.5427 10.8443 14.8216C10.305 16.1005 10.1639 17.5078 10.4388 18.8654C10.7137 20.2231 11.3923 21.4702 12.3888 22.4491C13.3853 23.4279 14.6548 24.0945 16.037 24.3646C17.4191 24.6346 18.8517 24.496 20.1537 23.9663C21.4556 23.4365 22.5684 22.5394 23.3513 21.3885C24.1342 20.2375 24.5521 18.8843 24.5521 17.5C24.5521 15.6437 23.8014 13.8635 22.4652 12.5509C21.129 11.2383 19.3167 10.501 17.427 10.501ZM17.427 20.9995C16.7224 20.9995 16.0336 20.7943 15.4478 20.4097C14.8619 20.0252 14.4053 19.4787 14.1356 18.8392C13.866 18.1998 13.7954 17.4961 13.9329 16.8173C14.0704 16.1384 14.4097 15.5149 14.9079 15.0255C15.4061 14.536 16.0409 14.2027 16.732 14.0677C17.4231 13.9327 18.1394 14.002 18.7903 14.2669C19.4413 14.5317 19.9977 14.9803 20.3892 15.5558C20.7806 16.1313 20.9896 16.8079 20.9896 17.5C20.9896 18.4281 20.6142 19.3182 19.9461 19.9745C19.278 20.6308 18.3719 20.9995 17.427 20.9995Z" fill="white"/>
</svg>
