<svg width="237" height="66" viewBox="0 0 237 66" fill="none" xmlns="http://www.w3.org/2000/svg">
<rect x="1" y="1" width="235" height="64" rx="4" fill="white" stroke="black" stroke-width="2"/>
<path d="M87.6 45.32C86.1067 45.32 84.7627 45.1387 83.568 44.776C82.3733 44.392 81.232 43.7307 80.144 42.792C79.8667 42.5573 79.6533 42.2907 79.504 41.992C79.3547 41.6933 79.28 41.3947 79.28 41.096C79.28 40.6053 79.4507 40.1787 79.792 39.816C80.1547 39.432 80.6027 39.24 81.136 39.24C81.5413 39.24 81.904 39.368 82.224 39.624C83.0347 40.2853 83.8347 40.7867 84.624 41.128C85.4347 41.4693 86.4267 41.64 87.6 41.64C88.3893 41.64 89.1147 41.5227 89.776 41.288C90.4373 41.032 90.9707 40.7013 91.376 40.296C91.7813 39.8693 91.984 39.3893 91.984 38.856C91.984 38.216 91.792 37.672 91.408 37.224C91.024 36.776 90.4373 36.4027 89.648 36.104C88.8587 35.784 87.856 35.5387 86.64 35.368C85.488 35.1973 84.4747 34.9413 83.6 34.6C82.7253 34.2373 81.9893 33.7893 81.392 33.256C80.816 32.7013 80.3787 32.0613 80.08 31.336C79.7813 30.5893 79.632 29.7573 79.632 28.84C79.632 27.4533 79.984 26.2693 80.688 25.288C81.4133 24.3067 82.384 23.56 83.6 23.048C84.816 22.536 86.16 22.28 87.632 22.28C89.0187 22.28 90.2987 22.4933 91.472 22.92C92.6667 23.3253 93.6373 23.848 94.384 24.488C95.0027 24.9787 95.312 25.544 95.312 26.184C95.312 26.6533 95.1307 27.08 94.768 27.464C94.4053 27.848 93.9787 28.04 93.488 28.04C93.168 28.04 92.88 27.944 92.624 27.752C92.2827 27.4533 91.824 27.176 91.248 26.92C90.672 26.6427 90.064 26.4187 89.424 26.248C88.784 26.056 88.1867 25.96 87.632 25.96C86.7147 25.96 85.936 26.0773 85.296 26.312C84.6773 26.5467 84.208 26.8667 83.888 27.272C83.568 27.6773 83.408 28.1467 83.408 28.68C83.408 29.32 83.5893 29.8533 83.952 30.28C84.336 30.6853 84.88 31.016 85.584 31.272C86.288 31.5067 87.1307 31.72 88.112 31.912C89.392 32.1467 90.512 32.424 91.472 32.744C92.4533 33.064 93.264 33.48 93.904 33.992C94.544 34.4827 95.024 35.112 95.344 35.88C95.664 36.6267 95.824 37.544 95.824 38.632C95.824 40.0187 95.44 41.2133 94.672 42.216C93.904 43.2187 92.8907 43.9867 91.632 44.52C90.3947 45.0533 89.0507 45.32 87.6 45.32ZM99.3658 28.2H106.95C107.462 28.2 107.888 28.3707 108.23 28.712C108.571 29.0533 108.742 29.48 108.742 29.992C108.742 30.4827 108.571 30.8987 108.23 31.24C107.888 31.56 107.462 31.72 106.95 31.72H99.3658C98.8538 31.72 98.4271 31.5493 98.0858 31.208C97.7444 30.8667 97.5738 30.44 97.5738 29.928C97.5738 29.4373 97.7444 29.032 98.0858 28.712C98.4271 28.3707 98.8538 28.2 99.3658 28.2ZM102.79 24.2C103.344 24.2 103.792 24.392 104.134 24.776C104.496 25.1387 104.678 25.5973 104.678 26.152V40.392C104.678 40.6907 104.731 40.936 104.838 41.128C104.966 41.32 105.126 41.4587 105.318 41.544C105.531 41.6293 105.755 41.672 105.99 41.672C106.246 41.672 106.48 41.6293 106.694 41.544C106.907 41.4373 107.152 41.384 107.43 41.384C107.728 41.384 107.995 41.5227 108.23 41.8C108.486 42.0773 108.614 42.4613 108.614 42.952C108.614 43.5493 108.283 44.04 107.622 44.424C106.982 44.808 106.288 45 105.542 45C105.094 45 104.592 44.968 104.038 44.904C103.504 44.8187 102.992 44.6373 102.502 44.36C102.032 44.0613 101.638 43.6133 101.318 43.016C100.998 42.4187 100.838 41.5973 100.838 40.552V26.152C100.838 25.5973 101.019 25.1387 101.382 24.776C101.766 24.392 102.235 24.2 102.79 24.2ZM124.972 27.88C125.526 27.88 125.985 28.072 126.347 28.456C126.71 28.8187 126.892 29.2773 126.892 29.832V37.96C126.892 40.2213 126.262 42.0133 125.004 43.336C123.745 44.6587 121.932 45.32 119.564 45.32C117.196 45.32 115.382 44.6587 114.124 43.336C112.886 42.0133 112.268 40.2213 112.268 37.96V29.832C112.268 29.2773 112.449 28.8187 112.812 28.456C113.174 28.072 113.633 27.88 114.188 27.88C114.742 27.88 115.201 28.072 115.564 28.456C115.926 28.8187 116.108 29.2773 116.108 29.832V37.96C116.108 39.2613 116.396 40.232 116.972 40.872C117.548 41.4907 118.412 41.8 119.564 41.8C120.737 41.8 121.612 41.4907 122.188 40.872C122.764 40.232 123.052 39.2613 123.052 37.96V29.832C123.052 29.2773 123.233 28.8187 123.596 28.456C123.958 28.072 124.417 27.88 124.972 27.88ZM145.065 21.32C145.619 21.32 146.078 21.5013 146.441 21.864C146.803 22.2267 146.985 22.696 146.985 23.272V43.048C146.985 43.6027 146.803 44.072 146.441 44.456C146.078 44.8187 145.619 45 145.065 45C144.51 45 144.051 44.8187 143.689 44.456C143.326 44.072 143.145 43.6027 143.145 43.048V41.48L143.849 41.768C143.849 42.0453 143.699 42.3867 143.401 42.792C143.102 43.176 142.697 43.56 142.185 43.944C141.673 44.328 141.065 44.6587 140.361 44.936C139.678 45.192 138.931 45.32 138.121 45.32C136.649 45.32 135.315 44.9467 134.121 44.2C132.926 43.432 131.977 42.3867 131.273 41.064C130.59 39.72 130.249 38.184 130.249 36.456C130.249 34.7067 130.59 33.1707 131.273 31.848C131.977 30.504 132.915 29.4587 134.089 28.712C135.262 27.944 136.563 27.56 137.993 27.56C138.91 27.56 139.753 27.6987 140.521 27.976C141.289 28.2533 141.95 28.6053 142.505 29.032C143.081 29.4587 143.518 29.896 143.817 30.344C144.137 30.7707 144.297 31.1333 144.297 31.432L143.145 31.848V23.272C143.145 22.7173 143.326 22.2587 143.689 21.896C144.051 21.512 144.51 21.32 145.065 21.32ZM138.601 41.8C139.539 41.8 140.361 41.5653 141.065 41.096C141.769 40.6267 142.313 39.9867 142.697 39.176C143.102 38.3653 143.305 37.4587 143.305 36.456C143.305 35.432 143.102 34.5147 142.697 33.704C142.313 32.8933 141.769 32.2533 141.065 31.784C140.361 31.3147 139.539 31.08 138.601 31.08C137.683 31.08 136.873 31.3147 136.169 31.784C135.465 32.2533 134.91 32.8933 134.505 33.704C134.121 34.5147 133.929 35.432 133.929 36.456C133.929 37.4587 134.121 38.3653 134.505 39.176C134.91 39.9867 135.465 40.6267 136.169 41.096C136.873 41.5653 137.683 41.8 138.601 41.8ZM159.207 45.32C157.393 45.32 155.815 44.9467 154.471 44.2C153.148 43.432 152.124 42.3973 151.399 41.096C150.695 39.7947 150.343 38.3227 150.343 36.68C150.343 34.76 150.727 33.128 151.495 31.784C152.284 30.4187 153.308 29.3733 154.567 28.648C155.825 27.9227 157.159 27.56 158.567 27.56C159.655 27.56 160.679 27.784 161.639 28.232C162.62 28.68 163.484 29.2987 164.231 30.088C164.977 30.856 165.564 31.752 165.991 32.776C166.439 33.8 166.663 34.888 166.663 36.04C166.641 36.552 166.439 36.968 166.055 37.288C165.671 37.608 165.223 37.768 164.711 37.768H152.487L151.527 34.568H163.271L162.567 35.208V34.344C162.524 33.7253 162.3 33.1707 161.895 32.68C161.511 32.1893 161.02 31.8053 160.423 31.528C159.847 31.2293 159.228 31.08 158.567 31.08C157.927 31.08 157.329 31.1653 156.775 31.336C156.22 31.5067 155.74 31.7947 155.335 32.2C154.929 32.6053 154.609 33.1493 154.375 33.832C154.14 34.5147 154.023 35.3787 154.023 36.424C154.023 37.576 154.257 38.5573 154.727 39.368C155.217 40.1573 155.836 40.7653 156.583 41.192C157.351 41.5973 158.161 41.8 159.015 41.8C159.804 41.8 160.433 41.736 160.903 41.608C161.372 41.48 161.745 41.3307 162.023 41.16C162.321 40.968 162.588 40.808 162.823 40.68C163.207 40.488 163.569 40.392 163.911 40.392C164.38 40.392 164.764 40.552 165.062 40.872C165.383 41.192 165.543 41.5653 165.543 41.992C165.543 42.568 165.244 43.0907 164.647 43.56C164.092 44.0293 163.313 44.4453 162.311 44.808C161.308 45.1493 160.273 45.32 159.207 45.32ZM179.17 27.56C180.748 27.56 181.943 27.8907 182.754 28.552C183.586 29.2133 184.151 30.0987 184.45 31.208C184.77 32.296 184.93 33.512 184.93 34.856V43.048C184.93 43.6027 184.748 44.072 184.385 44.456C184.023 44.8187 183.564 45 183.01 45C182.455 45 181.996 44.8187 181.634 44.456C181.271 44.072 181.09 43.6027 181.09 43.048V34.856C181.09 34.152 180.994 33.5227 180.802 32.968C180.631 32.392 180.311 31.9333 179.842 31.592C179.372 31.2507 178.7 31.08 177.826 31.08C176.972 31.08 176.247 31.2507 175.65 31.592C175.074 31.9333 174.626 32.392 174.306 32.968C174.007 33.5227 173.858 34.152 173.858 34.856V43.048C173.858 43.6027 173.676 44.072 173.314 44.456C172.951 44.8187 172.492 45 171.938 45C171.383 45 170.924 44.8187 170.562 44.456C170.199 44.072 170.018 43.6027 170.018 43.048V29.832C170.018 29.2773 170.199 28.8187 170.562 28.456C170.924 28.072 171.383 27.88 171.938 27.88C172.492 27.88 172.951 28.072 173.314 28.456C173.676 28.8187 173.858 29.2773 173.858 29.832V31.208L173.378 31.112C173.57 30.7493 173.847 30.3653 174.21 29.96C174.572 29.5333 174.999 29.1387 175.49 28.776C175.98 28.4133 176.535 28.1253 177.154 27.912C177.772 27.6773 178.444 27.56 179.17 27.56ZM189.272 28.2H196.856C197.368 28.2 197.795 28.3707 198.136 28.712C198.477 29.0533 198.648 29.48 198.648 29.992C198.648 30.4827 198.477 30.8987 198.136 31.24C197.795 31.56 197.368 31.72 196.856 31.72H189.272C188.76 31.72 188.333 31.5493 187.992 31.208C187.651 30.8667 187.48 30.44 187.48 29.928C187.48 29.4373 187.651 29.032 187.992 28.712C188.333 28.3707 188.76 28.2 189.272 28.2ZM192.696 24.2C193.251 24.2 193.699 24.392 194.04 24.776C194.403 25.1387 194.584 25.5973 194.584 26.152V40.392C194.584 40.6907 194.637 40.936 194.744 41.128C194.872 41.32 195.032 41.4587 195.224 41.544C195.437 41.6293 195.661 41.672 195.896 41.672C196.152 41.672 196.387 41.6293 196.6 41.544C196.813 41.4373 197.059 41.384 197.336 41.384C197.635 41.384 197.901 41.5227 198.136 41.8C198.392 42.0773 198.52 42.4613 198.52 42.952C198.52 43.5493 198.189 44.04 197.528 44.424C196.888 44.808 196.195 45 195.448 45C195 45 194.499 44.968 193.944 44.904C193.411 44.8187 192.899 44.6373 192.408 44.36C191.939 44.0613 191.544 43.6133 191.224 43.016C190.904 42.4187 190.744 41.5973 190.744 40.552V26.152C190.744 25.5973 190.925 25.1387 191.288 24.776C191.672 24.392 192.141 24.2 192.696 24.2ZM201.807 42.344C201.593 42.0453 201.497 41.6613 201.519 41.192C201.54 40.7227 201.817 40.3173 202.351 39.976C202.692 39.7627 203.055 39.6773 203.439 39.72C203.823 39.7413 204.196 39.9333 204.559 40.296C205.177 40.9147 205.828 41.3947 206.511 41.736C207.193 42.0773 208.047 42.248 209.071 42.248C209.391 42.2267 209.743 42.184 210.127 42.12C210.511 42.0347 210.841 41.864 211.119 41.608C211.417 41.3307 211.567 40.9147 211.567 40.36C211.567 39.8907 211.407 39.5173 211.087 39.24C210.767 38.9627 210.34 38.728 209.807 38.536C209.295 38.344 208.719 38.1627 208.079 37.992C207.417 37.8 206.735 37.5867 206.031 37.352C205.348 37.1173 204.719 36.8187 204.143 36.456C203.567 36.072 203.097 35.5707 202.735 34.952C202.372 34.3333 202.191 33.5547 202.191 32.616C202.191 31.5493 202.489 30.6427 203.087 29.896C203.684 29.1493 204.452 28.5733 205.391 28.168C206.351 27.7627 207.353 27.56 208.399 27.56C209.06 27.56 209.753 27.6453 210.479 27.816C211.204 27.9653 211.897 28.2213 212.559 28.584C213.22 28.9253 213.775 29.384 214.223 29.96C214.457 30.28 214.596 30.664 214.639 31.112C214.681 31.56 214.479 31.9653 214.031 32.328C213.711 32.584 213.337 32.7013 212.911 32.68C212.484 32.6373 212.132 32.488 211.855 32.232C211.492 31.7627 211.001 31.3893 210.383 31.112C209.785 30.8347 209.092 30.696 208.303 30.696C207.983 30.696 207.631 30.7387 207.247 30.824C206.884 30.888 206.564 31.048 206.287 31.304C206.009 31.5387 205.871 31.9227 205.871 32.456C205.871 32.9467 206.031 33.3413 206.351 33.64C206.671 33.9173 207.097 34.152 207.631 34.344C208.185 34.5147 208.772 34.6853 209.391 34.856C210.031 35.0267 210.681 35.2293 211.343 35.464C212.004 35.6987 212.612 36.008 213.167 36.392C213.721 36.776 214.169 37.2773 214.511 37.896C214.852 38.4933 215.023 39.2613 215.023 40.2C215.023 41.288 214.703 42.216 214.063 42.984C213.423 43.752 212.623 44.3387 211.663 44.744C210.703 45.128 209.721 45.32 208.719 45.32C207.46 45.32 206.201 45.1067 204.943 44.68C203.684 44.232 202.639 43.4533 201.807 42.344Z" fill="#545FDF"/>
<path d="M35 7C29.8577 7 24.8309 8.52487 20.5552 11.3818C16.2795 14.2387 12.947 18.2993 10.9791 23.0502C9.01127 27.8011 8.49638 33.0288 9.49959 38.0723C10.5028 43.1158 12.9791 47.7486 16.6152 51.3848C20.2514 55.0209 24.8842 57.4972 29.9277 58.5004C34.9712 59.5036 40.1989 58.9887 44.9498 57.0209C49.7007 55.053 53.7613 51.7205 56.6182 47.4448C59.4751 43.1691 61 38.1423 61 33C61 29.5856 60.3275 26.2047 59.0209 23.0502C57.7142 19.8958 55.7991 17.0295 53.3848 14.6152C50.9705 12.2009 48.1042 10.2858 44.9498 8.97913C41.7953 7.67251 38.4144 7 35 7ZM35 53.8C30.8862 53.8 26.8647 52.5801 23.4441 50.2946C20.0236 48.009 17.3576 44.7605 15.7833 40.9598C14.209 37.1591 13.7971 32.9769 14.5997 28.9421C15.4022 24.9073 17.3833 21.2011 20.2922 18.2922C23.2011 15.3832 26.9073 13.4022 30.9421 12.5997C34.9769 11.7971 39.1591 12.209 42.9598 13.7833C46.7605 15.3576 50.009 18.0236 52.2946 21.4441C54.5801 24.8647 55.8 28.8861 55.8 33C55.8 38.5165 53.6086 43.8071 49.7078 47.7078C45.8071 51.6086 40.5165 53.8 35 53.8ZM45.4 30.4H37.6V22.6C37.6 21.9104 37.3261 21.2491 36.8385 20.7615C36.3509 20.2739 35.6896 20 35 20C34.3104 20 33.6491 20.2739 33.1615 20.7615C32.6739 21.2491 32.4 21.9104 32.4 22.6V30.4H24.6C23.9104 30.4 23.2491 30.6739 22.7615 31.1615C22.2739 31.6491 22 32.3104 22 33C22 33.6896 22.2739 34.3509 22.7615 34.8385C23.2491 35.3261 23.9104 35.6 24.6 35.6H32.4V43.4C32.4 44.0896 32.6739 44.7509 33.1615 45.2385C33.6491 45.7261 34.3104 46 35 46C35.6896 46 36.3509 45.7261 36.8385 45.2385C37.3261 44.7509 37.6 44.0896 37.6 43.4V35.6H45.4C46.0896 35.6 46.7509 35.3261 47.2385 34.8385C47.7261 34.3509 48 33.6896 48 33C48 32.3104 47.7261 31.6491 47.2385 31.1615C46.7509 30.6739 46.0896 30.4 45.4 30.4Z" fill="#545FDF"/>
</svg>
