<svg width="35" height="35" viewBox="0 0 35 35" fill="none" xmlns="http://www.w3.org/2000/svg">
<path d="M34.9413 13.2329C34.8309 12.8983 34.6302 12.6044 34.3634 12.3869C34.0966 12.1694 33.7753 12.0375 33.4383 12.0073L23.4944 10.4891L19.0379 1.03189C18.8948 0.722621 18.6714 0.461795 18.3932 0.279295C18.115 0.0967942 17.7934 0 17.4651 0C17.1368 0 16.8151 0.0967942 16.5369 0.279295C16.2588 0.461795 16.0353 0.722621 15.8922 1.03189L11.4358 10.4708L1.49182 12.0073C1.16838 12.0555 0.864293 12.1975 0.614079 12.4174C0.363865 12.6372 0.17754 12.9261 0.0762483 13.2512C-0.0164718 13.5689 -0.0247923 13.907 0.0521797 14.2293C0.129152 14.5516 0.28851 14.8458 0.513154 15.0805L7.73083 22.3974L5.98321 32.7875C5.91265 33.1322 5.93874 33.4908 6.05833 33.8204C6.17792 34.1499 6.38592 34.4362 6.65732 34.6449C6.92871 34.8536 7.25193 34.9758 7.5881 34.9968C7.92427 35.0177 8.25906 34.9366 8.55221 34.7631L17.4651 29.879L26.378 34.7631C26.6232 34.9079 26.9002 34.9836 27.1819 34.9826C27.552 34.984 27.9131 34.8623 28.213 34.635C28.4841 34.4317 28.694 34.1515 28.8179 33.8273C28.9417 33.5032 28.9744 33.1487 28.912 32.8058L27.1644 22.4157L34.3821 15.0988C34.6344 14.875 34.8209 14.5809 34.9199 14.2506C35.0189 13.9203 35.0263 13.5674 34.9413 13.2329ZM24.1934 20.5499C23.9911 20.7555 23.8394 21.0093 23.7512 21.2896C23.6629 21.5699 23.6408 21.8684 23.6866 22.1596L24.9449 29.8424L18.3738 26.1839C18.1185 26.0517 17.8374 25.9829 17.5525 25.9829C17.2675 25.9829 16.9865 26.0517 16.7311 26.1839L10.16 29.8424L11.4183 22.1596C11.4642 21.8684 11.442 21.5699 11.3538 21.2896C11.2655 21.0093 11.1138 20.7555 10.9115 20.5499L5.66864 15.0622L13.0261 13.9463C13.3092 13.9051 13.5784 13.7918 13.8099 13.6164C14.0415 13.441 14.2284 13.2088 14.3543 12.9402L17.4651 5.97084L20.7506 12.9585C20.8765 13.2271 21.0634 13.4593 21.295 13.6347C21.5266 13.8101 21.7957 13.9234 22.0788 13.9646L29.4363 15.0805L24.1934 20.5499Z" fill="white" fill-opacity="0.7"/>
</svg>
