<svg width="242" height="67" viewBox="0 0 242 67" fill="none" xmlns="http://www.w3.org/2000/svg">
<rect x="1" y="1" width="240" height="65" rx="20" fill="#545FDF" stroke="black" stroke-width="2"/>
<path d="M71.7563 45.32C70.2629 45.32 68.9189 45.1387 67.7243 44.776C66.5296 44.392 65.3883 43.7307 64.3003 42.792C64.0229 42.5573 63.8096 42.2907 63.6603 41.992C63.5109 41.6933 63.4363 41.3947 63.4363 41.096C63.4363 40.6053 63.6069 40.1787 63.9483 39.816C64.3109 39.432 64.7589 39.24 65.2923 39.24C65.6976 39.24 66.0603 39.368 66.3802 39.624C67.1909 40.2853 67.9909 40.7867 68.7803 41.128C69.5909 41.4693 70.5829 41.64 71.7563 41.64C72.5456 41.64 73.2709 41.5227 73.9323 41.288C74.5936 41.032 75.1269 40.7013 75.5323 40.296C75.9376 39.8693 76.1403 39.3893 76.1403 38.856C76.1403 38.216 75.9483 37.672 75.5643 37.224C75.1803 36.776 74.5936 36.4027 73.8043 36.104C73.0149 35.784 72.0123 35.5387 70.7963 35.368C69.6443 35.1973 68.6309 34.9413 67.7563 34.6C66.8816 34.2373 66.1456 33.7893 65.5483 33.256C64.9723 32.7013 64.5349 32.0613 64.2363 31.336C63.9376 30.5893 63.7883 29.7573 63.7883 28.84C63.7883 27.4533 64.1403 26.2693 64.8443 25.288C65.5696 24.3067 66.5403 23.56 67.7563 23.048C68.9723 22.536 70.3163 22.28 71.7883 22.28C73.1749 22.28 74.4549 22.4933 75.6283 22.92C76.8229 23.3253 77.7936 23.848 78.5403 24.488C79.1589 24.9787 79.4683 25.544 79.4683 26.184C79.4683 26.6533 79.2869 27.08 78.9243 27.464C78.5616 27.848 78.1349 28.04 77.6443 28.04C77.3243 28.04 77.0363 27.944 76.7803 27.752C76.4389 27.4533 75.9803 27.176 75.4043 26.92C74.8283 26.6427 74.2203 26.4187 73.5803 26.248C72.9403 26.056 72.3429 25.96 71.7883 25.96C70.8709 25.96 70.0923 26.0773 69.4523 26.312C68.8336 26.5467 68.3643 26.8667 68.0443 27.272C67.7243 27.6773 67.5643 28.1467 67.5643 28.68C67.5643 29.32 67.7456 29.8533 68.1083 30.28C68.4923 30.6853 69.0363 31.016 69.7403 31.272C70.4443 31.5067 71.2869 31.72 72.2683 31.912C73.5483 32.1467 74.6683 32.424 75.6283 32.744C76.6096 33.064 77.4203 33.48 78.0603 33.992C78.7003 34.4827 79.1803 35.112 79.5003 35.88C79.8203 36.6267 79.9803 37.544 79.9803 38.632C79.9803 40.0187 79.5963 41.2133 78.8283 42.216C78.0603 43.2187 77.0469 43.9867 75.7883 44.52C74.5509 45.0533 73.2069 45.32 71.7563 45.32ZM99.554 22.568C100.109 22.568 100.557 22.76 100.898 23.144C101.239 23.5067 101.41 23.9653 101.41 24.52V36.104C101.41 37.8747 101.026 39.4427 100.258 40.808C99.5113 42.1733 98.4767 43.24 97.154 44.008C95.8313 44.776 94.2953 45.16 92.546 45.16C90.7967 45.16 89.25 44.776 87.906 44.008C86.5833 43.24 85.538 42.1733 84.77 40.808C84.0233 39.4427 83.65 37.8747 83.65 36.104V24.52C83.65 23.9653 83.842 23.5067 84.226 23.144C84.61 22.76 85.1007 22.568 85.698 22.568C86.1887 22.568 86.626 22.76 87.01 23.144C87.4153 23.5067 87.618 23.9653 87.618 24.52V36.104C87.618 37.1707 87.842 38.0987 88.29 38.888C88.7593 39.656 89.3673 40.2533 90.114 40.68C90.882 41.1067 91.6927 41.32 92.546 41.32C93.4633 41.32 94.3167 41.1067 95.106 40.68C95.8953 40.2533 96.5353 39.656 97.026 38.888C97.5167 38.0987 97.762 37.1707 97.762 36.104V24.52C97.762 23.9653 97.922 23.5067 98.242 23.144C98.562 22.76 98.9993 22.568 99.554 22.568ZM116.229 22.6C118.277 22.6 119.802 23.08 120.805 24.04C121.807 25 122.309 26.4187 122.309 28.296C122.309 29.2987 122.063 30.184 121.573 30.952C121.082 31.6987 120.357 32.2853 119.397 32.712C118.437 33.1173 117.253 33.32 115.845 33.32L115.973 31.88C116.634 31.88 117.391 31.976 118.245 32.168C119.098 32.3387 119.919 32.6587 120.708 33.128C121.519 33.576 122.181 34.216 122.693 35.048C123.226 35.8587 123.493 36.904 123.493 38.184C123.493 39.592 123.258 40.744 122.789 41.64C122.341 42.536 121.743 43.2293 120.997 43.72C120.25 44.2107 119.45 44.552 118.597 44.744C117.743 44.9147 116.922 45 116.133 45H108.165C107.61 45 107.141 44.8187 106.757 44.456C106.394 44.072 106.213 43.6027 106.213 43.048V24.552C106.213 23.9973 106.394 23.5387 106.757 23.176C107.141 22.792 107.61 22.6 108.165 22.6H116.229ZM115.653 26.376H109.957L110.373 25.864V31.656L109.989 31.368H115.749C116.367 31.368 116.922 31.1653 117.413 30.76C117.903 30.3547 118.149 29.768 118.149 29C118.149 28.0827 117.914 27.4213 117.445 27.016C116.997 26.5893 116.399 26.376 115.653 26.376ZM115.909 35.144H110.085L110.373 34.888V41.64L110.053 41.32H116.133C117.114 41.32 117.893 41.064 118.469 40.552C119.045 40.0187 119.333 39.2293 119.333 38.184C119.333 37.224 119.141 36.5307 118.757 36.104C118.373 35.6773 117.914 35.4107 117.381 35.304C116.847 35.1973 116.357 35.144 115.909 35.144ZM129.197 22.568C129.496 22.568 129.805 22.6533 130.125 22.824C130.467 22.9733 130.723 23.176 130.893 23.432L138.669 35.4L137.069 35.336L145.037 23.432C145.443 22.856 145.965 22.568 146.605 22.568C147.117 22.568 147.576 22.7493 147.981 23.112C148.387 23.4747 148.589 23.944 148.589 24.52V43.048C148.589 43.6027 148.408 44.072 148.045 44.456C147.683 44.8187 147.203 45 146.605 45C146.008 45 145.517 44.8187 145.133 44.456C144.771 44.072 144.589 43.6027 144.589 43.048V27.976L145.837 28.264L139.309 38.216C139.117 38.4507 138.872 38.6533 138.573 38.824C138.296 38.9947 138.008 39.0693 137.709 39.048C137.432 39.0693 137.144 38.9947 136.845 38.824C136.568 38.6533 136.333 38.4507 136.141 38.216L130.029 28.552L130.861 26.856V43.048C130.861 43.6027 130.691 44.072 130.349 44.456C130.008 44.8187 129.56 45 129.005 45C128.472 45 128.035 44.8187 127.693 44.456C127.352 44.072 127.181 43.6027 127.181 43.048V24.52C127.181 23.9867 127.373 23.528 127.757 23.144C128.163 22.76 128.643 22.568 129.197 22.568ZM157.4 43.048C157.4 43.6027 157.197 44.072 156.792 44.456C156.387 44.8187 155.917 45 155.384 45C154.787 45 154.307 44.8187 153.944 44.456C153.581 44.072 153.4 43.6027 153.4 43.048V24.552C153.4 23.9973 153.592 23.5387 153.976 23.176C154.36 22.792 154.851 22.6 155.448 22.6C155.96 22.6 156.408 22.792 156.792 23.176C157.197 23.5387 157.4 23.9973 157.4 24.552V43.048ZM169.797 45C169.199 45 168.709 44.8187 168.325 44.456C167.941 44.072 167.749 43.6027 167.749 43.048V24.488H171.909V43.048C171.909 43.6027 171.706 44.072 171.301 44.456C170.917 44.8187 170.415 45 169.797 45ZM162.725 26.28C162.17 26.28 161.701 26.1093 161.317 25.768C160.954 25.4267 160.773 24.9787 160.773 24.424C160.773 23.8693 160.954 23.432 161.317 23.112C161.701 22.7707 162.17 22.6 162.725 22.6H176.933C177.487 22.6 177.946 22.7707 178.309 23.112C178.693 23.4533 178.885 23.9013 178.885 24.456C178.885 25.0107 178.693 25.4587 178.309 25.8C177.946 26.12 177.487 26.28 176.933 26.28H162.725Z" fill="white"/>
</svg>
