<svg width="385" height="106" viewBox="0 0 385 106" fill="none" xmlns="http://www.w3.org/2000/svg">
<rect x="1" y="1" width="383" height="104" rx="10" fill="#F5453D" stroke="black" stroke-width="2"/>
<path d="M86.6719 19.4844C87.1823 19.4948 87.6042 19.6719 87.9375 20.0156C88.2812 20.349 88.4635 20.7708 88.4844 21.2812C88.4948 21.7292 88.5 22.2083 88.5 22.7188C88.5417 24.5938 88.5365 26.6823 88.4844 28.9844C88.4427 31.2865 88.2604 33.5312 87.9375 35.7188C87.75 36.9271 87.4792 38.0938 87.125 39.2188C86.7708 40.3438 86.3021 41.3594 85.7188 42.2656C85.1146 43.224 84.3438 43.9948 83.4062 44.5781C82.4792 45.1719 81.3802 45.4792 80.1094 45.5C78.7135 45.4792 77.526 45.1198 76.5469 44.4219C75.5677 43.724 74.7812 42.8385 74.1875 41.7656C73.6042 40.7344 73.1406 39.5938 72.7969 38.3438C72.4635 37.0833 72.2083 35.8021 72.0312 34.5C71.7708 32.4375 71.6198 30.4115 71.5781 28.4219C71.5365 26.4219 71.526 24.7135 71.5469 23.2969C71.5573 22.5052 71.5573 21.8698 71.5469 21.3906C71.5573 20.8802 71.724 20.4531 72.0469 20.1094C72.3802 19.7656 72.8021 19.5833 73.3125 19.5625C73.8229 19.5625 74.25 19.7292 74.5938 20.0625C74.9375 20.3958 75.125 20.8177 75.1562 21.3281C75.1562 21.8906 75.151 22.599 75.1406 23.4531C75.1198 24.8698 75.1302 26.5104 75.1719 28.375C75.2135 30.2292 75.3542 32.1042 75.5938 34C75.9167 36.4896 76.4844 38.4792 77.2969 39.9688C78.0469 41.2917 78.974 41.9323 80.0781 41.8906C81.151 41.901 82.026 41.3698 82.7031 40.2969C83.4635 39.099 84.0208 37.3802 84.375 35.1406C84.6771 33.1615 84.849 31.0885 84.8906 28.9219C84.9427 26.7552 84.9479 24.7031 84.9062 22.7656C84.8958 22.2656 84.8906 21.7812 84.8906 21.3125C84.901 20.8021 85.0729 20.375 85.4062 20.0312C85.7396 19.6875 86.1615 19.5052 86.6719 19.4844ZM104.062 19.875C104.76 20.1354 105.391 20.5208 105.953 21.0312C106.516 21.5312 106.953 22.1771 107.266 22.9688C107.818 24.5104 107.776 26.3125 107.141 28.375C106.672 29.9062 105.99 31.2917 105.094 32.5312C104.198 33.7604 103.224 34.8073 102.172 35.6719C101.443 36.276 100.656 36.8073 99.8125 37.2656C98.9792 37.724 98.151 38.0365 97.3281 38.2031L96.9844 38.2344L96.9688 39.0938C96.9479 41.25 96.9167 42.8906 96.875 44.0156C96.8438 44.5156 96.651 44.9271 96.2969 45.25C95.9427 45.5833 95.5104 45.7448 95 45.7344C94.5 45.7031 94.0833 45.5104 93.75 45.1562C93.4271 44.8125 93.2708 44.3854 93.2812 43.875C93.3229 42.6146 93.3542 40.724 93.375 38.2031C93.4062 35.6823 93.4323 33.0573 93.4531 30.3281C93.474 28.224 93.4896 26.3438 93.5 24.6875C93.5208 23.0208 93.5417 21.8125 93.5625 21.0625C93.5938 20.5938 93.7604 20.1979 94.0625 19.875C94.375 19.5521 94.7656 19.3698 95.2344 19.3281C95.2865 19.3281 95.3385 19.3229 95.3906 19.3125C96.7656 19.1979 98.2292 19.1458 99.7812 19.1562C101.344 19.1667 102.771 19.4062 104.062 19.875ZM103.688 27.3594C103.927 26.526 104.047 25.8594 104.047 25.3594C104.057 24.8594 104.01 24.4896 103.906 24.25C103.781 23.8333 103.396 23.4948 102.75 23.2344C101.594 22.8177 99.9375 22.6719 97.7812 22.7969L97.125 22.8281V22.875C97.1042 24.6979 97.0833 27.0417 97.0625 29.9062C97.0521 30.6562 97.0469 31.4115 97.0469 32.1719L97.0156 34.5625L97.0625 34.5469C97.2083 34.5052 97.3698 34.4427 97.5469 34.3594C98.2552 34.0573 99.0312 33.5677 99.875 32.8906C100.719 32.1927 101.479 31.375 102.156 30.4375C102.844 29.4896 103.354 28.4635 103.688 27.3594ZM128.609 33.3438C129.078 33.5938 129.458 33.9531 129.75 34.4219C130.052 34.8802 130.198 35.4375 130.188 36.0938C130.146 37 129.943 37.974 129.578 39.0156C129.224 40.0573 128.698 41.0573 128 42.0156C127.281 42.9948 126.359 43.8177 125.234 44.4844C124.12 45.1615 122.792 45.526 121.25 45.5781C120 45.6094 118.823 45.3698 117.719 44.8594C116.625 44.349 115.693 43.4948 114.922 42.2969C113.505 40.0365 112.943 36.6146 113.234 32.0312C113.318 30.5104 113.521 29.0208 113.844 27.5625C114.177 26.1042 114.651 24.7656 115.266 23.5469C115.891 22.3073 116.734 21.2708 117.797 20.4375C118.87 19.6042 120.167 19.1823 121.688 19.1719C123.26 19.224 124.526 19.6146 125.484 20.3438C126.453 21.0625 127.182 21.9375 127.672 22.9688C128.109 23.9167 128.401 24.8438 128.547 25.75C128.703 26.6562 128.786 27.3906 128.797 27.9531C128.807 28.4635 128.651 28.8958 128.328 29.25C128.016 29.6042 127.604 29.8021 127.094 29.8438C126.583 29.8542 126.151 29.6979 125.797 29.375C125.443 29.0521 125.245 28.6354 125.203 28.125C125.193 27.625 125.13 27.0573 125.016 26.4219C124.911 25.776 124.719 25.1562 124.438 24.5625C124.198 24.0417 123.859 23.6198 123.422 23.2969C122.995 22.9635 122.401 22.7865 121.641 22.7656C120.422 22.7135 119.359 23.5312 118.453 25.2188C117.526 27.0833 116.979 29.4219 116.812 32.2344C116.698 34.401 116.755 36.1406 116.984 37.4531C117.214 38.7656 117.542 39.7396 117.969 40.375C118.667 41.5 119.74 42.0312 121.188 41.9688C122.052 41.9479 122.807 41.7448 123.453 41.3594C124.109 40.974 124.667 40.4688 125.125 39.8438C125.833 38.8333 126.286 37.8281 126.484 36.8281L126.547 36.4219L126.391 36.3906C126.109 36.349 125.667 36.3385 125.062 36.3594C124.406 36.3906 123.755 36.4375 123.109 36.5C122.745 36.5312 122.401 36.5625 122.078 36.5938C121.568 36.6146 121.13 36.4688 120.766 36.1562C120.411 35.8333 120.208 35.4167 120.156 34.9062C120.135 34.3958 120.281 33.9635 120.594 33.6094C120.906 33.2448 121.318 33.0365 121.828 32.9844C122.078 32.974 122.375 32.9531 122.719 32.9219C123.417 32.849 124.156 32.7917 124.938 32.75C125.469 32.7188 126.062 32.7344 126.719 32.7969C127.385 32.8594 128.016 33.0417 128.609 33.3438ZM148.125 41.5156C148.583 41.7344 148.896 42.0677 149.062 42.5156C149.229 42.9635 149.208 43.4271 149 43.9062C148.781 44.3646 148.448 44.6771 148 44.8438C147.552 45.0104 147.094 44.9896 146.625 44.7812C145.135 44.0938 143.792 43.349 142.594 42.5469C141.396 41.7344 140.323 40.9531 139.375 40.2031L138.547 39.5625V39.9062C138.547 41.7083 138.536 43.0938 138.516 44.0625C138.495 44.5625 138.307 44.9792 137.953 45.3125C137.609 45.6458 137.182 45.8125 136.672 45.8125C136.161 45.7812 135.74 45.5938 135.406 45.25C135.083 44.9062 134.922 44.4792 134.922 43.9688C134.953 42.7083 134.964 40.8177 134.953 38.2969C134.953 35.776 134.943 33.151 134.922 30.4219C134.911 28.3177 134.901 26.4323 134.891 24.7656C134.891 23.099 134.901 21.8958 134.922 21.1562C134.932 20.6875 135.089 20.2917 135.391 19.9688C135.703 19.6354 136.094 19.4427 136.562 19.3906C136.615 19.3906 136.667 19.3906 136.719 19.3906C138.083 19.2448 139.542 19.1719 141.094 19.1719C142.656 19.1615 144.089 19.3802 145.391 19.8281C146.089 20.0885 146.724 20.4688 147.297 20.9688C147.87 21.4583 148.318 22.099 148.641 22.8906C149.214 24.4219 149.193 26.2188 148.578 28.2812C148.13 29.8229 147.464 31.2188 146.578 32.4688C145.703 33.7083 144.745 34.7656 143.703 35.6406C143.224 36.0469 142.719 36.4271 142.188 36.7812L141.422 37.2344L142.562 38.1094C144.125 39.3385 145.979 40.474 148.125 41.5156ZM139.078 34.4062C139.776 34.0938 140.542 33.5885 141.375 32.8906C142.208 32.1927 142.958 31.3698 143.625 30.4219C144.302 29.4635 144.802 28.4271 145.125 27.3125C145.344 26.4792 145.453 25.8125 145.453 25.3125C145.453 24.8125 145.401 24.4479 145.297 24.2188C145.172 23.8021 144.781 23.4635 144.125 23.2031C142.969 22.8073 141.312 22.6823 139.156 22.8281L138.5 22.875V22.9219C138.5 24.849 138.51 27.3281 138.531 30.3594C138.531 30.974 138.531 31.5938 138.531 32.2188L138.547 34.6094L138.578 34.5938C138.724 34.5521 138.891 34.4896 139.078 34.4062ZM171.312 23.0312C171.854 24.0417 172.292 25.1615 172.625 26.3906C172.958 27.6198 173.219 28.8854 173.406 30.1875C173.656 31.9792 173.828 33.776 173.922 35.5781C174.016 37.3698 174.083 39.0208 174.125 40.5312C174.156 41.9271 174.203 43.0625 174.266 43.9375C174.286 44.4479 174.141 44.8854 173.828 45.25C173.526 45.6146 173.12 45.8229 172.609 45.875C172.099 45.9062 171.661 45.7656 171.297 45.4531C170.932 45.1406 170.724 44.7292 170.672 44.2188C170.609 43.2396 170.557 42.026 170.516 40.5781C170.495 39.7552 170.469 38.8906 170.438 37.9844C170.219 37.9427 169.958 37.901 169.656 37.8594C169.229 37.8073 168.745 37.7656 168.203 37.7344C167.099 37.6719 165.911 37.6615 164.641 37.7031C163.38 37.7344 162.203 37.8125 161.109 37.9375C160.995 37.9479 160.885 37.9583 160.781 37.9688C160.625 40.9271 160.573 43.151 160.625 44.6406C160.615 45.151 160.443 45.5781 160.109 45.9219C159.776 46.2656 159.354 46.4479 158.844 46.4688C158.333 46.4688 157.906 46.3021 157.562 45.9688C157.219 45.6354 157.036 45.2135 157.016 44.7031C156.984 43.3698 157.021 41.3906 157.125 38.7656C156.74 38.901 156.438 39.026 156.219 39.1406C155.771 39.3802 155.318 39.4323 154.859 39.2969C154.401 39.1615 154.042 38.875 153.781 38.4375C153.542 37.9896 153.49 37.5365 153.625 37.0781C153.76 36.6094 154.047 36.2448 154.484 35.9844C155.026 35.7031 155.573 35.474 156.125 35.2969C156.562 35.1615 156.99 35.0365 157.406 34.9219C157.531 33.599 157.703 32.2708 157.922 30.9375C158.151 29.5833 158.448 28.2656 158.812 26.9844C159.177 25.7031 159.635 24.5312 160.188 23.4688C160.74 22.3854 161.464 21.4635 162.359 20.7031C163.255 19.9323 164.354 19.5104 165.656 19.4375C167 19.4167 168.135 19.75 169.062 20.4375C170 21.125 170.75 21.9896 171.312 23.0312ZM168.406 34.125C169.042 34.1667 169.651 34.224 170.234 34.2969C170.141 33.0781 170.01 31.8802 169.844 30.7031C169.49 28.2031 168.932 26.2292 168.172 24.7812C167.797 24.125 167.417 23.6667 167.031 23.4062C166.646 23.1354 166.224 23.0104 165.766 23.0312C165.391 23.0312 165 23.1875 164.594 23.5C164.198 23.8125 163.786 24.3646 163.359 25.1562C162.526 26.8021 161.896 28.9323 161.469 31.5469C161.323 32.4635 161.198 33.3854 161.094 34.3125C162.188 34.2083 163.333 34.1354 164.531 34.0938C165.875 34.0521 167.167 34.0625 168.406 34.125ZM188.281 20.0625C189.115 20.375 189.917 20.8229 190.688 21.4062C191.469 21.9792 192.167 22.7188 192.781 23.625C194 25.4375 194.615 27.8802 194.625 30.9531C194.583 33.651 194.099 35.9688 193.172 37.9062C192.245 39.8333 191.062 41.3906 189.625 42.5781C188.406 43.599 187.125 44.3594 185.781 44.8594C184.448 45.3698 183.182 45.625 181.984 45.625L181.094 45.5781L180.938 45.6094C180.438 45.6198 180.01 45.4635 179.656 45.1406C179.302 44.8177 179.104 44.401 179.062 43.8906C179.01 42.5469 178.984 40.3229 178.984 37.2188C178.984 34.1042 178.995 30.9896 179.016 27.875C179.047 24.75 179.083 22.5052 179.125 21.1406C179.146 20.6719 179.307 20.276 179.609 19.9531C179.911 19.6302 180.292 19.4427 180.75 19.3906C180.812 19.3906 180.88 19.3854 180.953 19.375C181.557 19.2812 182.547 19.2396 183.922 19.25C185.297 19.2604 186.75 19.5312 188.281 20.0625ZM187.297 39.8281C188.339 38.9844 189.208 37.8385 189.906 36.3906C190.615 34.9323 190.99 33.1146 191.031 30.9375C191.031 29.6667 190.911 28.599 190.672 27.7344C190.432 26.8594 190.13 26.151 189.766 25.6094C189.026 24.5469 188.104 23.8229 187 23.4375C186.302 23.1771 185.599 23.0104 184.891 22.9375C184.193 22.8542 183.536 22.8281 182.922 22.8594H182.688L182.672 23.125C182.641 25.6667 182.615 28.8177 182.594 32.5781C182.573 36.3281 182.578 39.4427 182.609 41.9219L182.625 41.9844C183.323 41.901 184.078 41.6875 184.891 41.3438C185.703 40.9896 186.505 40.4844 187.297 39.8281ZM211.75 41.75C212.167 41.6875 212.557 41.7552 212.922 41.9531C213.286 42.1406 213.557 42.4427 213.734 42.8594C213.911 43.3385 213.906 43.7969 213.719 44.2344C213.531 44.6719 213.208 44.9948 212.75 45.2031C212.594 45.2656 212.453 45.3073 212.328 45.3281C212.016 45.401 211.646 45.4479 211.219 45.4688C210.792 45.5 210.375 45.5208 209.969 45.5312C209.104 45.5417 208.161 45.5417 207.141 45.5312C207.047 45.5312 206.953 45.5312 206.859 45.5312C205.745 45.5208 204.688 45.526 203.688 45.5469C202.677 45.5677 201.932 45.6198 201.453 45.7031C200.932 45.7865 200.469 45.6771 200.062 45.375C199.667 45.0833 199.427 44.6719 199.344 44.1406C199.344 44.099 199.344 44.0625 199.344 44.0312C199.344 44 199.344 43.974 199.344 43.9531C199.333 43.7552 199.328 43.3906 199.328 42.8594C199.339 42.3177 199.349 41.6198 199.359 40.7656C199.37 40.3385 199.375 39.875 199.375 39.375C199.396 37.9167 199.417 36.2969 199.438 34.5156C199.479 32.0781 199.505 29.6562 199.516 27.25C199.526 24.8438 199.521 22.8125 199.5 21.1562C199.5 20.6875 199.646 20.2865 199.938 19.9531C200.229 19.6094 200.609 19.401 201.078 19.3281C202.026 19.224 203.073 19.1719 204.219 19.1719C205.365 19.1615 206.51 19.1719 207.656 19.2031C209 19.2344 210.198 19.2396 211.25 19.2188C211.76 19.2188 212.188 19.3854 212.531 19.7188C212.885 20.0417 213.078 20.4583 213.109 20.9688C213.109 21.4792 212.943 21.9115 212.609 22.2656C212.286 22.6094 211.87 22.7969 211.359 22.8281C210.182 22.849 208.891 22.8385 207.484 22.7969C206.193 22.7656 204.943 22.7604 203.734 22.7812L203.109 22.7969V23.1406C203.12 25.4115 203.109 27.9427 203.078 30.7344C203.359 30.724 203.635 30.7135 203.906 30.7031C204.771 30.7031 205.583 30.724 206.344 30.7656C206.406 30.7656 206.469 30.7708 206.531 30.7812C206.854 30.7917 207.172 30.8021 207.484 30.8125C207.859 30.8229 208.224 30.8281 208.578 30.8281C209.286 30.8385 209.974 30.7917 210.641 30.6875C211.151 30.6146 211.599 30.7188 211.984 31C212.37 31.2812 212.609 31.6771 212.703 32.1875C212.766 32.6875 212.656 33.1354 212.375 33.5312C212.094 33.9167 211.703 34.1562 211.203 34.25C210.297 34.3854 209.422 34.4479 208.578 34.4375C208.161 34.4375 207.755 34.4323 207.359 34.4219C206.984 34.401 206.615 34.3854 206.25 34.375C206.229 34.3646 206.208 34.3594 206.188 34.3594C205.417 34.3177 204.672 34.3021 203.953 34.3125C203.651 34.3125 203.349 34.3229 203.047 34.3438C203.047 34.4167 203.047 34.4896 203.047 34.5625C203.026 35.9792 203.005 37.2969 202.984 38.5156C202.974 39.3594 202.964 40.125 202.953 40.8125C202.953 41.0312 202.953 41.2292 202.953 41.4062C202.953 41.4896 202.953 41.5677 202.953 41.6406L202.938 41.9688L203.672 41.9375C204.724 41.9167 205.74 41.9115 206.719 41.9219C206.771 41.9219 206.828 41.9219 206.891 41.9219C206.995 41.9219 207.104 41.9219 207.219 41.9219C208.219 41.9323 209.115 41.9323 209.906 41.9219C210.458 41.9115 210.854 41.8958 211.094 41.875C211.333 41.8542 211.469 41.8385 211.5 41.8281L211.75 41.75ZM245.156 20.6094C245.167 20.6823 245.172 20.7448 245.172 20.7969C245.182 20.8385 245.188 20.8698 245.188 20.8906C245.188 20.9844 245.188 21.0573 245.188 21.1094C245.188 21.1615 245.182 21.2188 245.172 21.2812L245.141 21.7188C245.12 22.3125 245.083 23.1615 245.031 24.2656C244.979 25.3698 244.922 26.5729 244.859 27.875C244.807 28.8021 244.755 29.7969 244.703 30.8594C244.651 31.9115 244.604 32.849 244.562 33.6719C244.521 34.4844 244.49 34.9948 244.469 35.2031L244.453 35.3125V35.3438L244.344 36.2969C243.885 38.9948 242.818 41.1927 241.141 42.8906C239.464 44.5885 237.391 45.5 234.922 45.625C233.443 45.6458 232.214 45.4375 231.234 45C230.255 44.5625 229.438 43.9844 228.781 43.2656C228.125 42.5469 227.542 41.7812 227.031 40.9688C226.771 40.5417 226.688 40.0938 226.781 39.625C226.875 39.1562 227.13 38.776 227.547 38.4844C227.974 38.2135 228.422 38.125 228.891 38.2188C229.359 38.3125 229.74 38.5677 230.031 38.9844C230.719 40.0677 231.365 40.8385 231.969 41.2969C232.26 41.526 232.63 41.7083 233.078 41.8438C233.526 41.9688 234.104 42.026 234.812 42.0156C236.354 41.9635 237.693 41.3333 238.828 40.125C239.974 38.9062 240.656 37.1771 240.875 34.9375L240.906 34.7656C240.927 34.4219 240.969 33.6354 241.031 32.4062L241.078 31.4375L240.422 32.1562C239.734 32.8229 238.943 33.401 238.047 33.8906C237.151 34.3802 236.135 34.7292 235 34.9375C233.021 35.2917 231.339 34.9427 229.953 33.8906C229.307 33.3698 228.786 32.7604 228.391 32.0625C227.995 31.3646 227.688 30.6406 227.469 29.8906C227.052 28.3698 226.823 26.7448 226.781 25.0156C226.74 23.276 226.786 21.6406 226.922 20.1094C226.974 19.599 227.182 19.1875 227.547 18.875C227.911 18.5625 228.349 18.4219 228.859 18.4531C229.359 18.5052 229.766 18.7135 230.078 19.0781C230.391 19.4427 230.536 19.8802 230.516 20.3906C230.391 21.9115 230.344 23.4167 230.375 24.9062C230.417 26.3854 230.599 27.7031 230.922 28.8594C231.266 29.9635 231.677 30.6927 232.156 31.0469C232.354 31.2135 232.625 31.3385 232.969 31.4219C233.323 31.4948 233.786 31.4844 234.359 31.3906C235.797 31.1094 236.984 30.5 237.922 29.5625C238.87 28.6146 239.62 27.5104 240.172 26.25C240.714 24.9792 241.089 23.8281 241.297 22.7969C241.432 22.1615 241.516 21.6771 241.547 21.3438L241.578 21.0625C241.578 21 241.578 20.9531 241.578 20.9219C241.578 20.8906 241.583 20.8698 241.594 20.8594C241.635 20.3385 241.839 19.9167 242.203 19.5938C242.578 19.2708 243.021 19.125 243.531 19.1562C243.875 19.1979 244.151 19.2917 244.359 19.4375C244.568 19.5833 244.719 19.7292 244.812 19.875C244.917 20.0208 244.979 20.1198 245 20.1719C245.052 20.276 245.089 20.3698 245.109 20.4531C245.13 20.526 245.146 20.5781 245.156 20.6094ZM266.469 24.5C266.969 25.7812 267.292 27.0521 267.438 28.3125C267.583 29.5729 267.656 30.5938 267.656 31.375L267.641 31.6094V31.6875C267.703 33.0417 267.604 34.474 267.344 35.9844C267.094 37.4948 266.656 38.9427 266.031 40.3281C265.396 41.7344 264.49 42.9531 263.312 43.9844C262.146 45.0052 260.677 45.5729 258.906 45.6875C257.062 45.7292 255.526 45.3125 254.297 44.4375C253.068 43.5625 252.12 42.3906 251.453 40.9219C250.839 39.5469 250.422 38.0312 250.203 36.375C249.995 34.7188 249.932 33.0365 250.016 31.3281C250.078 29.776 250.286 28.2969 250.641 26.8906C250.995 25.474 251.536 24.2083 252.266 23.0938C253.047 21.9271 254.036 21.0208 255.234 20.375C256.432 19.7292 257.828 19.4062 259.422 19.4062C261.328 19.4688 262.849 20 263.984 21C265.12 21.9896 265.948 23.1562 266.469 24.5ZM264.047 31.8438L264.078 31.4844L264.062 31.375C264.062 30.6771 264 29.8229 263.875 28.8125C263.75 27.8021 263.505 26.8229 263.141 25.875C262.797 25 262.328 24.3073 261.734 23.7969C261.141 23.2865 260.359 23.026 259.391 23.0156C258.411 23.0156 257.583 23.1979 256.906 23.5625C256.24 23.9271 255.693 24.4427 255.266 25.1094C254.297 26.5573 253.745 28.6823 253.609 31.4844C253.453 34.7135 253.823 37.3542 254.719 39.4062C255.125 40.3125 255.651 40.9948 256.297 41.4531C256.953 41.9115 257.771 42.1198 258.75 42.0781C260.469 41.9844 261.812 40.8906 262.781 38.7969C263.26 37.7344 263.604 36.5938 263.812 35.375C264.021 34.1458 264.099 32.9688 264.047 31.8438ZM287.578 19.4844C288.089 19.4948 288.51 19.6719 288.844 20.0156C289.188 20.349 289.37 20.7708 289.391 21.2812C289.401 21.7292 289.406 22.2083 289.406 22.7188C289.448 24.5938 289.443 26.6823 289.391 28.9844C289.349 31.2865 289.167 33.5312 288.844 35.7188C288.656 36.9271 288.385 38.0938 288.031 39.2188C287.677 40.3438 287.208 41.3594 286.625 42.2656C286.021 43.224 285.25 43.9948 284.312 44.5781C283.385 45.1719 282.286 45.4792 281.016 45.5C279.62 45.4792 278.432 45.1198 277.453 44.4219C276.474 43.724 275.688 42.8385 275.094 41.7656C274.51 40.7344 274.047 39.5938 273.703 38.3438C273.37 37.0833 273.115 35.8021 272.938 34.5C272.677 32.4375 272.526 30.4115 272.484 28.4219C272.443 26.4219 272.432 24.7135 272.453 23.2969C272.464 22.5052 272.464 21.8698 272.453 21.3906C272.464 20.8802 272.63 20.4531 272.953 20.1094C273.286 19.7656 273.708 19.5833 274.219 19.5625C274.729 19.5625 275.156 19.7292 275.5 20.0625C275.844 20.3958 276.031 20.8177 276.062 21.3281C276.062 21.8906 276.057 22.599 276.047 23.4531C276.026 24.8698 276.036 26.5104 276.078 28.375C276.12 30.2292 276.26 32.1042 276.5 34C276.823 36.4896 277.391 38.4792 278.203 39.9688C278.953 41.2917 279.88 41.9323 280.984 41.8906C282.057 41.901 282.932 41.3698 283.609 40.2969C284.37 39.099 284.927 37.3802 285.281 35.1406C285.583 33.1615 285.755 31.0885 285.797 28.9219C285.849 26.7552 285.854 24.7031 285.812 22.7656C285.802 22.2656 285.797 21.7812 285.797 21.3125C285.807 20.8021 285.979 20.375 286.312 20.0312C286.646 19.6875 287.068 19.5052 287.578 19.4844ZM307.406 41.5156C307.865 41.7344 308.177 42.0677 308.344 42.5156C308.51 42.9635 308.49 43.4271 308.281 43.9062C308.062 44.3646 307.729 44.6771 307.281 44.8438C306.833 45.0104 306.375 44.9896 305.906 44.7812C304.417 44.0938 303.073 43.349 301.875 42.5469C300.677 41.7344 299.604 40.9531 298.656 40.2031L297.828 39.5625V39.9062C297.828 41.7083 297.818 43.0938 297.797 44.0625C297.776 44.5625 297.589 44.9792 297.234 45.3125C296.891 45.6458 296.464 45.8125 295.953 45.8125C295.443 45.7812 295.021 45.5938 294.688 45.25C294.365 44.9062 294.203 44.4792 294.203 43.9688C294.234 42.7083 294.245 40.8177 294.234 38.2969C294.234 35.776 294.224 33.151 294.203 30.4219C294.193 28.3177 294.182 26.4323 294.172 24.7656C294.172 23.099 294.182 21.8958 294.203 21.1562C294.214 20.6875 294.37 20.2917 294.672 19.9688C294.984 19.6354 295.375 19.4427 295.844 19.3906C295.896 19.3906 295.948 19.3906 296 19.3906C297.365 19.2448 298.823 19.1719 300.375 19.1719C301.938 19.1615 303.37 19.3802 304.672 19.8281C305.37 20.0885 306.005 20.4688 306.578 20.9688C307.151 21.4583 307.599 22.099 307.922 22.8906C308.495 24.4219 308.474 26.2188 307.859 28.2812C307.411 29.8229 306.745 31.2188 305.859 32.4688C304.984 33.7083 304.026 34.7656 302.984 35.6406C302.505 36.0469 302 36.4271 301.469 36.7812L300.703 37.2344L301.844 38.1094C303.406 39.3385 305.26 40.474 307.406 41.5156ZM298.359 34.4062C299.057 34.0938 299.823 33.5885 300.656 32.8906C301.49 32.1927 302.24 31.3698 302.906 30.4219C303.583 29.4635 304.083 28.4271 304.406 27.3125C304.625 26.4792 304.734 25.8125 304.734 25.3125C304.734 24.8125 304.682 24.4479 304.578 24.2188C304.453 23.8021 304.062 23.4635 303.406 23.2031C302.25 22.8073 300.594 22.6823 298.438 22.8281L297.781 22.875V22.9219C297.781 24.849 297.792 27.3281 297.812 30.3594C297.812 30.974 297.812 31.5938 297.812 32.2188L297.828 34.6094L297.859 34.5938C298.005 34.5521 298.172 34.4896 298.359 34.4062ZM40.9219 63.6719C40.6302 63.8802 40.3854 64.1771 40.1875 64.5625C39.9896 64.9375 39.8854 65.4427 39.875 66.0781C39.875 66.6719 39.9688 67.1719 40.1562 67.5781C40.3542 67.9844 40.6198 68.3438 40.9531 68.6562C41.6927 69.3229 42.7344 69.9948 44.0781 70.6719C44.099 70.6823 44.1146 70.6927 44.125 70.7031C44.7708 71.0365 45.4427 71.4323 46.1406 71.8906C46.849 72.3385 47.5 72.875 48.0938 73.5C48.7396 74.1771 49.2344 74.9688 49.5781 75.875C49.9323 76.7812 50.0938 77.8281 50.0625 79.0156C49.9479 81.099 49.3073 82.7135 48.1406 83.8594C46.9844 84.9948 45.6198 85.5729 44.0469 85.5938C42.026 85.5625 40.3385 85.0677 38.9844 84.1094C37.6302 83.1615 36.5885 82.0573 35.8594 80.7969C35.6094 80.3594 35.5417 79.9062 35.6562 79.4375C35.7708 78.9688 36.0417 78.599 36.4688 78.3281C36.9062 78.0781 37.3542 78.0104 37.8125 78.125C38.2812 78.2396 38.6562 78.5104 38.9375 78.9375C39.4375 79.8021 40.1042 80.526 40.9375 81.1094C41.7812 81.6823 42.8073 81.9792 44.0156 82C44.5573 82.0104 45.0833 81.7812 45.5938 81.3125C46.1146 80.8438 46.4062 80.0365 46.4688 78.8906C46.4896 78.2031 46.4062 77.625 46.2188 77.1562C46.0312 76.6875 45.7812 76.2865 45.4688 75.9531C44.75 75.2344 43.7292 74.5417 42.4062 73.875C42.3229 73.8333 42.2396 73.7865 42.1562 73.7344C41.5833 73.4323 40.9635 73.0781 40.2969 72.6719C39.6406 72.2552 39.026 71.7812 38.4531 71.25C37.7969 70.6354 37.2708 69.9062 36.875 69.0625C36.4896 68.2083 36.2917 67.2135 36.2812 66.0781C36.2917 64.8906 36.5156 63.8542 36.9531 62.9688C37.401 62.0833 38.0052 61.3542 38.7656 60.7812C39.5052 60.25 40.2865 59.875 41.1094 59.6562C41.9323 59.4271 42.7344 59.3125 43.5156 59.3125C44.3281 59.3125 45.1302 59.4219 45.9219 59.6406C46.7135 59.8594 47.4427 60.2135 48.1094 60.7031C49.526 61.776 50.3125 63.3177 50.4688 65.3281C50.4896 65.8385 50.3385 66.276 50.0156 66.6406C49.7031 66.9948 49.2917 67.1927 48.7812 67.2344C48.2708 67.2552 47.8385 67.1094 47.4844 66.7969C47.1302 66.474 46.9271 66.0573 46.875 65.5469C46.8438 65.0469 46.7396 64.6406 46.5625 64.3281C46.3958 64.0052 46.1927 63.7604 45.9531 63.5938C45.4115 63.1667 44.599 62.9427 43.5156 62.9219C42.5156 62.9219 41.651 63.1719 40.9219 63.6719ZM70.3594 59.4844C70.8698 59.4948 71.2917 59.6719 71.625 60.0156C71.9688 60.349 72.151 60.7708 72.1719 61.2812C72.1823 61.7292 72.1875 62.2083 72.1875 62.7188C72.2292 64.5938 72.224 66.6823 72.1719 68.9844C72.1302 71.2865 71.9479 73.5312 71.625 75.7188C71.4375 76.9271 71.1667 78.0938 70.8125 79.2188C70.4583 80.3438 69.9896 81.3594 69.4062 82.2656C68.8021 83.224 68.0312 83.9948 67.0938 84.5781C66.1667 85.1719 65.0677 85.4792 63.7969 85.5C62.401 85.4792 61.2135 85.1198 60.2344 84.4219C59.2552 83.724 58.4688 82.8385 57.875 81.7656C57.2917 80.7344 56.8281 79.5938 56.4844 78.3438C56.151 77.0833 55.8958 75.8021 55.7188 74.5C55.4583 72.4375 55.3073 70.4115 55.2656 68.4219C55.224 66.4219 55.2135 64.7135 55.2344 63.2969C55.2448 62.5052 55.2448 61.8698 55.2344 61.3906C55.2448 60.8802 55.4115 60.4531 55.7344 60.1094C56.0677 59.7656 56.4896 59.5833 57 59.5625C57.5104 59.5625 57.9375 59.7292 58.2812 60.0625C58.625 60.3958 58.8125 60.8177 58.8438 61.3281C58.8438 61.8906 58.8385 62.599 58.8281 63.4531C58.8073 64.8698 58.8177 66.5104 58.8594 68.375C58.901 70.2292 59.0417 72.1042 59.2812 74C59.6042 76.4896 60.1719 78.4792 60.9844 79.9688C61.7344 81.2917 62.6615 81.9323 63.7656 81.8906C64.8385 81.901 65.7135 81.3698 66.3906 80.2969C67.151 79.099 67.7083 77.3802 68.0625 75.1406C68.3646 73.1615 68.5365 71.0885 68.5781 68.9219C68.6302 66.7552 68.6354 64.7031 68.5938 62.7656C68.5833 62.2656 68.5781 61.7812 68.5781 61.3125C68.5885 60.8021 68.7604 60.375 69.0938 60.0312C69.4271 59.6875 69.849 59.5052 70.3594 59.4844ZM89.2344 74.6562C89.9427 75.0312 90.5365 75.5469 91.0156 76.2031C91.5052 76.849 91.8073 77.651 91.9219 78.6094C92.099 80.2135 91.776 81.6094 90.9531 82.7969C90.5365 83.3594 90.0469 83.8229 89.4844 84.1875C88.9219 84.5521 88.3229 84.8333 87.6875 85.0312C86.7708 85.3333 85.7656 85.526 84.6719 85.6094C83.5781 85.7031 82.4531 85.724 81.2969 85.6719L79.1875 85.5312L79.1406 85.5469C78.6302 85.5573 78.1979 85.401 77.8438 85.0781C77.4896 84.7552 77.2917 84.3438 77.25 83.8438C77.2188 83.1771 77.1979 81.8594 77.1875 79.8906C77.1771 78.6719 77.1667 77.3177 77.1562 75.8281C77.1562 74.9531 77.151 74.0677 77.1406 73.1719C77.1302 70.6406 77.1094 68.3177 77.0781 66.2031C77.0573 64.0885 77.0208 62.6042 76.9688 61.75C76.9583 61.2917 77.0781 60.8906 77.3281 60.5469C77.5885 60.2031 77.9427 59.9792 78.3906 59.875C78.401 59.875 78.4167 59.875 78.4375 59.875C78.6979 59.7812 79.3958 59.651 80.5312 59.4844C81.6667 59.3177 82.9479 59.3229 84.375 59.5C85.4479 59.6667 86.474 60.0312 87.4531 60.5938C88.4323 61.1562 89.2448 61.9844 89.8906 63.0781C90.5469 64.1719 90.9219 65.5833 91.0156 67.3125C91.0677 68.8438 90.8281 70.1771 90.2969 71.3125C89.7656 72.4375 89.0729 73.3906 88.2188 74.1719L88.1562 74.2188L88.2188 74.2344C88.5625 74.349 88.901 74.4896 89.2344 74.6562ZM80.8594 63.0781L80.625 63.1094L80.6406 63.3906C80.6927 66.026 80.724 69.276 80.7344 73.1406L80.75 74.1094L81.0312 74.0156C81.9792 73.7552 82.9792 73.3438 84.0312 72.7812C85 72.2604 85.8125 71.5729 86.4688 70.7188C87.1354 69.8646 87.4531 68.7812 87.4219 67.4688C87.3177 65.8854 86.9167 64.7812 86.2188 64.1562C85.5312 63.5312 84.724 63.1667 83.7969 63.0625C82.724 62.9271 81.7448 62.9323 80.8594 63.0781ZM88.0312 80.6875C88.2917 80.4167 88.3958 79.8542 88.3438 79C88.2812 78.4479 88.0208 78.0677 87.5625 77.8594C86.9688 77.5469 86.1146 77.3802 85 77.3594C83.5521 77.3802 82.2865 77.5104 81.2031 77.75L80.7656 77.8438V78.3594C80.7656 78.5677 80.7656 78.776 80.7656 78.9844C80.776 79.2865 80.7812 79.5781 80.7812 79.8594C80.7812 80.599 80.7865 81.2448 80.7969 81.7969V82.0312C80.7448 82.0312 80.6927 82.0312 80.6406 82.0312C80.5781 82.0312 80.5156 82.026 80.4531 82.0156L80.7969 82.0469V82.0312C83.224 82.1875 85.1406 82.0469 86.5469 81.6094C87.3177 81.3385 87.8125 81.0312 88.0312 80.6875ZM102.328 63.6719C102.036 63.8802 101.792 64.1771 101.594 64.5625C101.396 64.9375 101.292 65.4427 101.281 66.0781C101.281 66.6719 101.375 67.1719 101.562 67.5781C101.76 67.9844 102.026 68.3438 102.359 68.6562C103.099 69.3229 104.141 69.9948 105.484 70.6719C105.505 70.6823 105.521 70.6927 105.531 70.7031C106.177 71.0365 106.849 71.4323 107.547 71.8906C108.255 72.3385 108.906 72.875 109.5 73.5C110.146 74.1771 110.641 74.9688 110.984 75.875C111.339 76.7812 111.5 77.8281 111.469 79.0156C111.354 81.099 110.714 82.7135 109.547 83.8594C108.391 84.9948 107.026 85.5729 105.453 85.5938C103.432 85.5625 101.745 85.0677 100.391 84.1094C99.0365 83.1615 97.9948 82.0573 97.2656 80.7969C97.0156 80.3594 96.9479 79.9062 97.0625 79.4375C97.1771 78.9688 97.4479 78.599 97.875 78.3281C98.3125 78.0781 98.7604 78.0104 99.2188 78.125C99.6875 78.2396 100.062 78.5104 100.344 78.9375C100.844 79.8021 101.51 80.526 102.344 81.1094C103.188 81.6823 104.214 81.9792 105.422 82C105.964 82.0104 106.49 81.7812 107 81.3125C107.521 80.8438 107.812 80.0365 107.875 78.8906C107.896 78.2031 107.812 77.625 107.625 77.1562C107.438 76.6875 107.188 76.2865 106.875 75.9531C106.156 75.2344 105.135 74.5417 103.812 73.875C103.729 73.8333 103.646 73.7865 103.562 73.7344C102.99 73.4323 102.37 73.0781 101.703 72.6719C101.047 72.2552 100.432 71.7812 99.8594 71.25C99.2031 70.6354 98.6771 69.9062 98.2812 69.0625C97.8958 68.2083 97.6979 67.2135 97.6875 66.0781C97.6979 64.8906 97.9219 63.8542 98.3594 62.9688C98.8073 62.0833 99.4115 61.3542 100.172 60.7812C100.911 60.25 101.693 59.875 102.516 59.6562C103.339 59.4271 104.141 59.3125 104.922 59.3125C105.734 59.3125 106.536 59.4219 107.328 59.6406C108.12 59.8594 108.849 60.2135 109.516 60.7031C110.932 61.776 111.719 63.3177 111.875 65.3281C111.896 65.8385 111.745 66.276 111.422 66.6406C111.109 66.9948 110.698 67.1927 110.188 67.2344C109.677 67.2552 109.245 67.1094 108.891 66.7969C108.536 66.474 108.333 66.0573 108.281 65.5469C108.25 65.0469 108.146 64.6406 107.969 64.3281C107.802 64.0052 107.599 63.7604 107.359 63.5938C106.818 63.1667 106.005 62.9427 104.922 62.9219C103.922 62.9219 103.057 63.1719 102.328 63.6719ZM132.047 78.3594C132.474 78.6302 132.745 79 132.859 79.4688C132.974 79.9271 132.906 80.3802 132.656 80.8281C131.958 81.9635 131.083 82.9375 130.031 83.75C128.99 84.5521 127.844 85.099 126.594 85.3906C125.344 85.6823 124.078 85.625 122.797 85.2188C120.828 84.5521 119.297 83.0729 118.203 80.7812C117.141 78.5417 116.656 75.4896 116.75 71.625C116.844 68.75 117.245 66.4375 117.953 64.6875C118.672 62.9271 119.63 61.625 120.828 60.7812C121.943 60.0417 123.031 59.6146 124.094 59.5C125.167 59.3854 126.016 59.3594 126.641 59.4219C126.714 59.4323 126.781 59.4375 126.844 59.4375C127.688 59.4896 128.474 59.7292 129.203 60.1562C129.943 60.5833 130.562 61.125 131.062 61.7812C131.604 62.4583 131.969 63.25 132.156 64.1562C132.354 65.0521 132.266 66 131.891 67C131.693 67.4792 131.375 67.8177 130.938 68.0156C130.5 68.2031 130.042 68.2083 129.562 68.0312C129.094 67.8333 128.76 67.5156 128.562 67.0781C128.375 66.6406 128.37 66.1823 128.547 65.7031C128.766 65.1198 128.656 64.5469 128.219 63.9844C127.979 63.6823 127.714 63.4531 127.422 63.2969C127.141 63.1302 126.885 63.0417 126.656 63.0312C126.01 62.9792 125.37 62.9844 124.734 63.0469C124.099 63.099 123.495 63.3177 122.922 63.7031C122.568 63.9427 122.203 64.3542 121.828 64.9375C121.453 65.5208 121.125 66.3594 120.844 67.4531C120.573 68.5469 120.406 69.9688 120.344 71.7188C120.292 74.9896 120.63 77.4167 121.359 79C122.089 80.5833 122.948 81.5156 123.938 81.7969C124.844 82.0781 125.823 81.974 126.875 81.4844C127.927 80.9948 128.828 80.1562 129.578 78.9688C129.849 78.5312 130.214 78.2552 130.672 78.1406C131.141 78.026 131.599 78.099 132.047 78.3594ZM150.969 81.5156C151.427 81.7344 151.74 82.0677 151.906 82.5156C152.073 82.9635 152.052 83.4271 151.844 83.9062C151.625 84.3646 151.292 84.6771 150.844 84.8438C150.396 85.0104 149.938 84.9896 149.469 84.7812C147.979 84.0938 146.635 83.349 145.438 82.5469C144.24 81.7344 143.167 80.9531 142.219 80.2031L141.391 79.5625V79.9062C141.391 81.7083 141.38 83.0938 141.359 84.0625C141.339 84.5625 141.151 84.9792 140.797 85.3125C140.453 85.6458 140.026 85.8125 139.516 85.8125C139.005 85.7812 138.583 85.5938 138.25 85.25C137.927 84.9062 137.766 84.4792 137.766 83.9688C137.797 82.7083 137.807 80.8177 137.797 78.2969C137.797 75.776 137.786 73.151 137.766 70.4219C137.755 68.3177 137.745 66.4323 137.734 64.7656C137.734 63.099 137.745 61.8958 137.766 61.1562C137.776 60.6875 137.932 60.2917 138.234 59.9688C138.547 59.6354 138.938 59.4427 139.406 59.3906C139.458 59.3906 139.51 59.3906 139.562 59.3906C140.927 59.2448 142.385 59.1719 143.938 59.1719C145.5 59.1615 146.932 59.3802 148.234 59.8281C148.932 60.0885 149.568 60.4688 150.141 60.9688C150.714 61.4583 151.161 62.099 151.484 62.8906C152.057 64.4219 152.036 66.2188 151.422 68.2812C150.974 69.8229 150.307 71.2188 149.422 72.4688C148.547 73.7083 147.589 74.7656 146.547 75.6406C146.068 76.0469 145.562 76.4271 145.031 76.7812L144.266 77.2344L145.406 78.1094C146.969 79.3385 148.823 80.474 150.969 81.5156ZM141.922 74.4062C142.62 74.0938 143.385 73.5885 144.219 72.8906C145.052 72.1927 145.802 71.3698 146.469 70.4219C147.146 69.4635 147.646 68.4271 147.969 67.3125C148.188 66.4792 148.297 65.8125 148.297 65.3125C148.297 64.8125 148.245 64.4479 148.141 64.2188C148.016 63.8021 147.625 63.4635 146.969 63.2031C145.812 62.8073 144.156 62.6823 142 62.8281L141.344 62.875V62.9219C141.344 64.849 141.354 67.3281 141.375 70.3594C141.375 70.974 141.375 71.5938 141.375 72.2188L141.391 74.6094L141.422 74.5938C141.568 74.5521 141.734 74.4896 141.922 74.4062ZM160.703 60.9844C160.693 63.4427 160.682 66.5521 160.672 70.3125C160.661 71.5938 160.656 72.8594 160.656 74.1094C160.646 76.599 160.641 78.7083 160.641 80.4375C160.641 81.3021 160.641 82.026 160.641 82.6094C160.641 82.849 160.646 83.0573 160.656 83.2344C160.656 83.2656 160.656 83.2969 160.656 83.3281C160.656 83.5156 160.656 83.6458 160.656 83.7188C160.667 84.2292 160.51 84.6615 160.188 85.0156C159.865 85.3698 159.448 85.5625 158.938 85.5938C158.427 85.6042 157.995 85.4479 157.641 85.125C157.297 84.8021 157.104 84.3854 157.062 83.875C157.062 83.7396 157.057 83.5729 157.047 83.375C157.047 83.3438 157.047 83.3125 157.047 83.2812C157.047 83.0938 157.047 82.875 157.047 82.625C157.047 82.0312 157.047 81.3021 157.047 80.4375C157.047 78.6979 157.052 76.5833 157.062 74.0938C157.062 72.8229 157.068 71.5365 157.078 70.2344C157.089 66.4948 157.094 63.4115 157.094 60.9844C157.094 60.4844 157.271 60.0573 157.625 59.7031C157.979 59.349 158.401 59.1719 158.891 59.1719C159.391 59.1719 159.818 59.349 160.172 59.7031C160.526 60.0573 160.703 60.4844 160.703 60.9844ZM176.188 59.875C176.885 60.1354 177.516 60.5208 178.078 61.0312C178.641 61.5312 179.078 62.1771 179.391 62.9688C179.943 64.5104 179.901 66.3125 179.266 68.375C178.797 69.9062 178.115 71.2917 177.219 72.5312C176.323 73.7604 175.349 74.8073 174.297 75.6719C173.568 76.276 172.781 76.8073 171.938 77.2656C171.104 77.724 170.276 78.0365 169.453 78.2031L169.109 78.2344L169.094 79.0938C169.073 81.25 169.042 82.8906 169 84.0156C168.969 84.5156 168.776 84.9271 168.422 85.25C168.068 85.5833 167.635 85.7448 167.125 85.7344C166.625 85.7031 166.208 85.5104 165.875 85.1562C165.552 84.8125 165.396 84.3854 165.406 83.875C165.448 82.6146 165.479 80.724 165.5 78.2031C165.531 75.6823 165.557 73.0573 165.578 70.3281C165.599 68.224 165.615 66.3438 165.625 64.6875C165.646 63.0208 165.667 61.8125 165.688 61.0625C165.719 60.5938 165.885 60.1979 166.188 59.875C166.5 59.5521 166.891 59.3698 167.359 59.3281C167.411 59.3281 167.464 59.3229 167.516 59.3125C168.891 59.1979 170.354 59.1458 171.906 59.1562C173.469 59.1667 174.896 59.4062 176.188 59.875ZM175.812 67.3594C176.052 66.526 176.172 65.8594 176.172 65.3594C176.182 64.8594 176.135 64.4896 176.031 64.25C175.906 63.8333 175.521 63.4948 174.875 63.2344C173.719 62.8177 172.062 62.6719 169.906 62.7969L169.25 62.8281V62.875C169.229 64.6979 169.208 67.0417 169.188 69.9062C169.177 70.6562 169.172 71.4115 169.172 72.1719L169.141 74.5625L169.188 74.5469C169.333 74.5052 169.495 74.4427 169.672 74.3594C170.38 74.0573 171.156 73.5677 172 72.8906C172.844 72.1927 173.604 71.375 174.281 70.4375C174.969 69.4896 175.479 68.4635 175.812 67.3594ZM202.453 59.4062C202.964 59.4271 203.385 59.6094 203.719 59.9531C204.052 60.2969 204.219 60.724 204.219 61.2344C204.198 61.7448 204.016 62.1667 203.672 62.5C203.328 62.8333 202.901 63 202.391 63C200.318 62.9792 198.26 62.9688 196.219 62.9688C196.219 63.6875 196.224 64.5312 196.234 65.5C196.234 67.4062 196.245 69.5156 196.266 71.8281C196.266 71.9531 196.266 72.0781 196.266 72.2031C196.276 74.724 196.281 77.0312 196.281 79.125C196.281 81.2083 196.271 82.8542 196.25 84.0625C196.219 84.5625 196.031 84.9792 195.688 85.3125C195.344 85.6458 194.917 85.8125 194.406 85.8125C193.896 85.7812 193.474 85.5938 193.141 85.25C192.818 84.9062 192.656 84.4792 192.656 83.9688C192.677 82.8333 192.688 81.2188 192.688 79.125C192.688 77.0417 192.677 74.7396 192.656 72.2188C192.656 71.4167 192.656 70.6198 192.656 69.8281C192.646 68.2656 192.641 66.8281 192.641 65.5156C192.63 64.5469 192.625 63.7031 192.625 62.9844C190.688 62.9948 188.714 62.9844 186.703 62.9531C186.193 62.9323 185.771 62.75 185.438 62.4062C185.104 62.0521 184.932 61.625 184.922 61.125C184.953 60.6146 185.141 60.1927 185.484 59.8594C185.828 59.526 186.25 59.3542 186.75 59.3438C189.427 59.375 192.057 59.3854 194.641 59.375C197.203 59.3542 199.807 59.3646 202.453 59.4062ZM212.578 60.9844C212.568 63.4427 212.557 66.5521 212.547 70.3125C212.536 71.5938 212.531 72.8594 212.531 74.1094C212.521 76.599 212.516 78.7083 212.516 80.4375C212.516 81.3021 212.516 82.026 212.516 82.6094C212.516 82.849 212.521 83.0573 212.531 83.2344C212.531 83.2656 212.531 83.2969 212.531 83.3281C212.531 83.5156 212.531 83.6458 212.531 83.7188C212.542 84.2292 212.385 84.6615 212.062 85.0156C211.74 85.3698 211.323 85.5625 210.812 85.5938C210.302 85.6042 209.87 85.4479 209.516 85.125C209.172 84.8021 208.979 84.3854 208.938 83.875C208.938 83.7396 208.932 83.5729 208.922 83.375C208.922 83.3438 208.922 83.3125 208.922 83.2812C208.922 83.0938 208.922 82.875 208.922 82.625C208.922 82.0312 208.922 81.3021 208.922 80.4375C208.922 78.6979 208.927 76.5833 208.938 74.0938C208.938 72.8229 208.943 71.5365 208.953 70.2344C208.964 66.4948 208.969 63.4115 208.969 60.9844C208.969 60.4844 209.146 60.0573 209.5 59.7031C209.854 59.349 210.276 59.1719 210.766 59.1719C211.266 59.1719 211.693 59.349 212.047 59.7031C212.401 60.0573 212.578 60.4844 212.578 60.9844ZM233.844 64.5C234.344 65.7812 234.667 67.0521 234.812 68.3125C234.958 69.5729 235.031 70.5938 235.031 71.375L235.016 71.6094V71.6875C235.078 73.0417 234.979 74.474 234.719 75.9844C234.469 77.4948 234.031 78.9427 233.406 80.3281C232.771 81.7344 231.865 82.9531 230.688 83.9844C229.521 85.0052 228.052 85.5729 226.281 85.6875C224.438 85.7292 222.901 85.3125 221.672 84.4375C220.443 83.5625 219.495 82.3906 218.828 80.9219C218.214 79.5469 217.797 78.0312 217.578 76.375C217.37 74.7188 217.307 73.0365 217.391 71.3281C217.453 69.776 217.661 68.2969 218.016 66.8906C218.37 65.474 218.911 64.2083 219.641 63.0938C220.422 61.9271 221.411 61.0208 222.609 60.375C223.807 59.7292 225.203 59.4062 226.797 59.4062C228.703 59.4688 230.224 60 231.359 61C232.495 61.9896 233.323 63.1562 233.844 64.5ZM231.422 71.8438L231.453 71.4844L231.438 71.375C231.438 70.6771 231.375 69.8229 231.25 68.8125C231.125 67.8021 230.88 66.8229 230.516 65.875C230.172 65 229.703 64.3073 229.109 63.7969C228.516 63.2865 227.734 63.026 226.766 63.0156C225.786 63.0156 224.958 63.1979 224.281 63.5625C223.615 63.9271 223.068 64.4427 222.641 65.1094C221.672 66.5573 221.12 68.6823 220.984 71.4844C220.828 74.7135 221.198 77.3542 222.094 79.4062C222.5 80.3125 223.026 80.9948 223.672 81.4531C224.328 81.9115 225.146 82.1198 226.125 82.0781C227.844 81.9844 229.188 80.8906 230.156 78.7969C230.635 77.7344 230.979 76.5938 231.188 75.375C231.396 74.1458 231.474 72.9688 231.422 71.8438ZM258.078 60.8281C258.12 61.2031 258.146 61.8021 258.156 62.625C258.177 63.4375 258.188 64.2031 258.188 64.9219C258.208 67.0365 258.214 69.4323 258.203 72.1094C258.193 74.7865 258.177 77.2604 258.156 79.5312C258.135 81.7917 258.109 83.3333 258.078 84.1562C258.026 84.7396 257.797 85.1823 257.391 85.4844C256.995 85.7865 256.547 85.9115 256.047 85.8594C255.547 85.8177 255.125 85.5573 254.781 85.0781C254.625 84.8281 253.839 83.6094 252.422 81.4219C251.016 79.224 249.396 76.6927 247.562 73.8281C246.198 71.7135 244.922 69.724 243.734 67.8594L243.438 67.4062L243.453 68.625C243.453 69.1771 243.458 69.7344 243.469 70.2969C243.5 73.0469 243.521 75.6979 243.531 78.25C243.552 80.7917 243.552 82.7031 243.531 83.9844C243.51 84.4948 243.328 84.9115 242.984 85.2344C242.641 85.5677 242.214 85.7396 241.703 85.75C241.193 85.7188 240.771 85.5312 240.438 85.1875C240.104 84.8438 239.938 84.4167 239.938 83.9062C239.958 82.6458 239.958 80.7604 239.938 78.25C239.917 75.7396 239.896 73.1198 239.875 70.3906C239.854 68.2969 239.833 66.4167 239.812 64.75C239.802 63.0729 239.802 61.8542 239.812 61.0938C239.844 60.4583 240.068 59.9948 240.484 59.7031C240.911 59.401 241.38 59.2865 241.891 59.3594C242.411 59.4219 242.823 59.6823 243.125 60.1406L243.281 60.4219C243.604 60.9531 244.396 62.2083 245.656 64.1875C247.104 66.4583 248.745 69.026 250.578 71.8906C251.943 74.0052 253.208 75.974 254.375 77.7969L254.578 78.1094V77.7812C254.589 75.9792 254.599 74.0885 254.609 72.1094C254.62 69.4323 254.615 67.0469 254.594 64.9531C254.583 63.9427 254.573 63.1042 254.562 62.4375C254.542 61.75 254.526 61.3594 254.516 61.2656C254.464 60.7552 254.583 60.3125 254.875 59.9375C255.167 59.5625 255.568 59.3333 256.078 59.25C256.578 59.2083 257.016 59.3385 257.391 59.6406C257.776 59.9323 258.005 60.3281 258.078 60.8281ZM289.141 60.8281C289.182 61.2031 289.208 61.8021 289.219 62.625C289.24 63.4375 289.25 64.2031 289.25 64.9219C289.271 67.0365 289.276 69.4323 289.266 72.1094C289.255 74.7865 289.24 77.2604 289.219 79.5312C289.198 81.7917 289.172 83.3333 289.141 84.1562C289.089 84.7396 288.859 85.1823 288.453 85.4844C288.057 85.7865 287.609 85.9115 287.109 85.8594C286.609 85.8177 286.188 85.5573 285.844 85.0781C285.688 84.8281 284.901 83.6094 283.484 81.4219C282.078 79.224 280.458 76.6927 278.625 73.8281C277.26 71.7135 275.984 69.724 274.797 67.8594L274.5 67.4062L274.516 68.625C274.516 69.1771 274.521 69.7344 274.531 70.2969C274.562 73.0469 274.583 75.6979 274.594 78.25C274.615 80.7917 274.615 82.7031 274.594 83.9844C274.573 84.4948 274.391 84.9115 274.047 85.2344C273.703 85.5677 273.276 85.7396 272.766 85.75C272.255 85.7188 271.833 85.5312 271.5 85.1875C271.167 84.8438 271 84.4167 271 83.9062C271.021 82.6458 271.021 80.7604 271 78.25C270.979 75.7396 270.958 73.1198 270.938 70.3906C270.917 68.2969 270.896 66.4167 270.875 64.75C270.865 63.0729 270.865 61.8542 270.875 61.0938C270.906 60.4583 271.13 59.9948 271.547 59.7031C271.974 59.401 272.443 59.2865 272.953 59.3594C273.474 59.4219 273.885 59.6823 274.188 60.1406L274.344 60.4219C274.667 60.9531 275.458 62.2083 276.719 64.1875C278.167 66.4583 279.807 69.026 281.641 71.8906C283.005 74.0052 284.271 75.974 285.438 77.7969L285.641 78.1094V77.7812C285.651 75.9792 285.661 74.0885 285.672 72.1094C285.682 69.4323 285.677 67.0469 285.656 64.9531C285.646 63.9427 285.635 63.1042 285.625 62.4375C285.604 61.75 285.589 61.3594 285.578 61.2656C285.526 60.7552 285.646 60.3125 285.938 59.9375C286.229 59.5625 286.63 59.3333 287.141 59.25C287.641 59.2083 288.078 59.3385 288.453 59.6406C288.839 59.9323 289.068 60.3281 289.141 60.8281ZM310.562 64.5C311.062 65.7812 311.385 67.0521 311.531 68.3125C311.677 69.5729 311.75 70.5938 311.75 71.375L311.734 71.6094V71.6875C311.797 73.0417 311.698 74.474 311.438 75.9844C311.188 77.4948 310.75 78.9427 310.125 80.3281C309.49 81.7344 308.583 82.9531 307.406 83.9844C306.24 85.0052 304.771 85.5729 303 85.6875C301.156 85.7292 299.62 85.3125 298.391 84.4375C297.161 83.5625 296.214 82.3906 295.547 80.9219C294.932 79.5469 294.516 78.0312 294.297 76.375C294.089 74.7188 294.026 73.0365 294.109 71.3281C294.172 69.776 294.38 68.2969 294.734 66.8906C295.089 65.474 295.63 64.2083 296.359 63.0938C297.141 61.9271 298.13 61.0208 299.328 60.375C300.526 59.7292 301.922 59.4062 303.516 59.4062C305.422 59.4688 306.943 60 308.078 61C309.214 61.9896 310.042 63.1562 310.562 64.5ZM308.141 71.8438L308.172 71.4844L308.156 71.375C308.156 70.6771 308.094 69.8229 307.969 68.8125C307.844 67.8021 307.599 66.8229 307.234 65.875C306.891 65 306.422 64.3073 305.828 63.7969C305.234 63.2865 304.453 63.026 303.484 63.0156C302.505 63.0156 301.677 63.1979 301 63.5625C300.333 63.9271 299.786 64.4427 299.359 65.1094C298.391 66.5573 297.839 68.6823 297.703 71.4844C297.547 74.7135 297.917 77.3542 298.812 79.4062C299.219 80.3125 299.745 80.9948 300.391 81.4531C301.047 81.9115 301.865 82.1198 302.844 82.0781C304.562 81.9844 305.906 80.8906 306.875 78.7969C307.354 77.7344 307.698 76.5938 307.906 75.375C308.115 74.1458 308.193 72.9688 308.141 71.8438ZM343.031 59.2188C343.521 59.2188 343.943 59.3958 344.297 59.75C344.651 60.1042 344.828 60.526 344.828 61.0156C344.828 62.151 344.766 63.9688 344.641 66.4688C344.526 68.9583 344.271 71.5521 343.875 74.25C343.479 76.9479 342.854 79.3438 342 81.4375C341.594 82.4167 341.01 83.3125 340.25 84.125C339.5 84.9479 338.51 85.3906 337.281 85.4531C336.031 85.4323 334.964 84.9688 334.078 84.0625C333.203 83.1562 332.479 82.0938 331.906 80.875C331.344 79.6562 330.911 78.5625 330.609 77.5938L330.562 77.4531L330.531 77.5781C330.24 78.5677 329.818 79.6771 329.266 80.9062C328.724 82.1354 328.021 83.2083 327.156 84.125C326.292 85.0417 325.229 85.526 323.969 85.5781C322.635 85.5365 321.562 85.0833 320.75 84.2188C319.938 83.3542 319.312 82.3698 318.875 81.2656C318.427 80.1719 318.062 78.9583 317.781 77.625C317.5 76.2917 317.276 74.9375 317.109 73.5625C316.849 71.25 316.688 69.0521 316.625 66.9688C316.562 64.8854 316.531 63.276 316.531 62.1406C316.531 61.6823 316.526 61.3542 316.516 61.1562C316.516 60.6458 316.677 60.2188 317 59.875C317.323 59.5208 317.74 59.3281 318.25 59.2969C318.76 59.2865 319.188 59.4479 319.531 59.7812C319.885 60.1042 320.078 60.5208 320.109 61.0312C320.12 61.3021 320.125 61.7188 320.125 62.2812C320.125 63.4583 320.156 65.0208 320.219 66.9688C320.292 68.9167 320.448 70.9688 320.688 73.125C321 75.8438 321.505 78.0938 322.203 79.875C322.589 80.7604 322.938 81.3385 323.25 81.6094C323.562 81.8802 323.802 82 323.969 81.9688C324.01 81.9688 324.089 81.9479 324.203 81.9062C324.318 81.8542 324.464 81.7396 324.641 81.5625C324.828 81.375 325.047 81.0938 325.297 80.7188C325.974 79.6146 326.573 78.2083 327.094 76.5C327.604 74.7917 327.99 73.2552 328.25 71.8906C328.51 70.526 328.651 69.7396 328.672 69.5312C328.766 68.8021 329.083 68.3177 329.625 68.0781C330.167 67.8281 330.714 67.8229 331.266 68.0625C331.818 68.2917 332.146 68.7708 332.25 69.5C332.271 69.7083 332.427 70.4948 332.719 71.8594C333.021 73.2135 333.453 74.7396 334.016 76.4375C334.568 78.125 335.198 79.5208 335.906 80.625C336.156 80.9896 336.375 81.2604 336.562 81.4375C336.75 81.6146 336.901 81.7292 337.016 81.7812C337.13 81.8333 337.203 81.8594 337.234 81.8594C337.276 81.8594 337.365 81.8177 337.5 81.7344C337.646 81.651 337.818 81.4792 338.016 81.2188C338.224 80.9479 338.453 80.5365 338.703 79.9844C339.391 78.3594 339.927 76.2656 340.312 73.7031C340.688 71.1406 340.932 68.6615 341.047 66.2656C341.172 63.8594 341.234 62.1094 341.234 61.0156C341.234 60.526 341.406 60.1042 341.75 59.75C342.104 59.3958 342.531 59.2188 343.031 59.2188Z" fill="white"/>
</svg>
