<svg width="478" height="43" viewBox="0 0 478 43" fill="none" xmlns="http://www.w3.org/2000/svg">
<rect x="1" y="1" width="476" height="41" rx="9" fill="#F29446" stroke="black" stroke-width="2" stroke-linejoin="round"/>
<path d="M144.489 15.98C144.835 15.98 145.115 16.1 145.329 16.34C145.542 16.5667 145.649 16.8533 145.649 17.2V24.44C145.649 25.5467 145.409 26.5267 144.929 27.38C144.462 28.2333 143.815 28.9 142.989 29.38C142.162 29.86 141.202 30.1 140.109 30.1C139.015 30.1 138.049 29.86 137.209 29.38C136.382 28.9 135.729 28.2333 135.249 27.38C134.782 26.5267 134.549 25.5467 134.549 24.44V17.2C134.549 16.8533 134.669 16.5667 134.909 16.34C135.149 16.1 135.455 15.98 135.829 15.98C136.135 15.98 136.409 16.1 136.649 16.34C136.902 16.5667 137.029 16.8533 137.029 17.2V24.44C137.029 25.1067 137.169 25.6867 137.449 26.18C137.742 26.66 138.122 27.0333 138.589 27.3C139.069 27.5667 139.575 27.7 140.109 27.7C140.682 27.7 141.215 27.5667 141.709 27.3C142.202 27.0333 142.602 26.66 142.909 26.18C143.215 25.6867 143.369 25.1067 143.369 24.44V17.2C143.369 16.8533 143.469 16.5667 143.669 16.34C143.869 16.1 144.142 15.98 144.489 15.98ZM153.99 19.1C154.924 19.1 155.757 19.34 156.49 19.82C157.237 20.2867 157.824 20.9333 158.25 21.76C158.69 22.5867 158.91 23.5467 158.91 24.64C158.91 25.7333 158.69 26.7 158.25 27.54C157.824 28.3667 157.244 29.02 156.51 29.5C155.79 29.9667 154.977 30.2 154.07 30.2C153.537 30.2 153.037 30.1133 152.57 29.94C152.104 29.7667 151.69 29.5467 151.33 29.28C150.984 29.0133 150.71 28.7467 150.51 28.48C150.324 28.2 150.23 27.9667 150.23 27.78L150.85 27.52V32.78C150.85 33.1267 150.737 33.4133 150.51 33.64C150.284 33.88 149.997 34 149.65 34C149.304 34 149.017 33.8867 148.79 33.66C148.564 33.4333 148.45 33.14 148.45 32.78V20.52C148.45 20.1733 148.564 19.8867 148.79 19.66C149.017 19.42 149.304 19.3 149.65 19.3C149.997 19.3 150.284 19.42 150.51 19.66C150.737 19.8867 150.85 20.1733 150.85 20.52V21.5L150.51 21.32C150.51 21.1467 150.604 20.94 150.79 20.7C150.977 20.4467 151.23 20.2 151.55 19.96C151.87 19.7067 152.237 19.5 152.65 19.34C153.077 19.18 153.524 19.1 153.99 19.1ZM153.69 21.3C153.104 21.3 152.59 21.4467 152.15 21.74C151.71 22.0333 151.364 22.4333 151.11 22.94C150.87 23.4333 150.75 24 150.75 24.64C150.75 25.2667 150.87 25.84 151.11 26.36C151.364 26.8667 151.71 27.2667 152.15 27.56C152.59 27.8533 153.104 28 153.69 28C154.277 28 154.784 27.8533 155.21 27.56C155.65 27.2667 155.99 26.8667 156.23 26.36C156.484 25.84 156.61 25.2667 156.61 24.64C156.61 24 156.484 23.4333 156.23 22.94C155.99 22.4333 155.65 22.0333 155.21 21.74C154.784 21.4467 154.277 21.3 153.69 21.3ZM165.449 19.1C166.009 19.1 166.522 19.1867 166.989 19.36C167.456 19.5333 167.856 19.7533 168.189 20.02C168.536 20.2867 168.802 20.56 168.989 20.84C169.189 21.1067 169.289 21.3333 169.289 21.52L168.769 21.78V20.32C168.769 19.9733 168.882 19.6867 169.109 19.46C169.336 19.22 169.622 19.1 169.969 19.1C170.316 19.1 170.602 19.2133 170.829 19.44C171.056 19.6667 171.169 19.96 171.169 20.32V29.22C171.169 30.38 170.916 31.3067 170.409 32C169.916 32.7067 169.262 33.2133 168.449 33.52C167.636 33.84 166.762 34 165.829 34C165.562 34 165.216 33.9667 164.789 33.9C164.362 33.8333 163.956 33.7533 163.569 33.66C163.182 33.5667 162.889 33.48 162.689 33.4C162.289 33.2267 162.009 33.0067 161.849 32.74C161.702 32.4867 161.676 32.2133 161.769 31.92C161.889 31.5333 162.082 31.2667 162.349 31.12C162.616 30.9867 162.896 30.9733 163.189 31.08C163.322 31.12 163.542 31.2 163.849 31.32C164.156 31.44 164.489 31.5467 164.849 31.64C165.222 31.7467 165.549 31.8 165.829 31.8C166.829 31.8 167.569 31.6 168.049 31.2C168.529 30.8 168.769 30.2467 168.769 29.54V27.8L169.009 27.98C169.009 28.1533 168.916 28.3667 168.729 28.62C168.556 28.86 168.309 29.1 167.989 29.34C167.682 29.58 167.316 29.7867 166.889 29.96C166.462 30.12 166.009 30.2 165.529 30.2C164.582 30.2 163.729 29.9667 162.969 29.5C162.209 29.02 161.609 28.3667 161.169 27.54C160.729 26.7 160.509 25.74 160.509 24.66C160.509 23.5667 160.729 22.6067 161.169 21.78C161.609 20.94 162.202 20.2867 162.949 19.82C163.696 19.34 164.529 19.1 165.449 19.1ZM165.829 21.3C165.229 21.3 164.702 21.4467 164.249 21.74C163.796 22.0333 163.442 22.4333 163.189 22.94C162.936 23.4467 162.809 24.02 162.809 24.66C162.809 25.2867 162.936 25.8533 163.189 26.36C163.442 26.8667 163.796 27.2667 164.249 27.56C164.702 27.8533 165.229 28 165.829 28C166.442 28 166.976 27.8533 167.429 27.56C167.882 27.2667 168.236 26.8667 168.489 26.36C168.742 25.8533 168.869 25.2867 168.869 24.66C168.869 24.02 168.742 23.4467 168.489 22.94C168.236 22.4333 167.882 22.0333 167.429 21.74C166.976 21.4467 166.442 21.3 165.829 21.3ZM174.963 30C174.616 30 174.33 29.8867 174.103 29.66C173.876 29.42 173.763 29.1267 173.763 28.78V20.52C173.763 20.1733 173.876 19.8867 174.103 19.66C174.33 19.42 174.616 19.3 174.963 19.3C175.31 19.3 175.596 19.42 175.823 19.66C176.05 19.8867 176.163 20.1733 176.163 20.52V22.4L176.023 21.06C176.17 20.74 176.356 20.46 176.583 20.22C176.823 19.9667 177.09 19.76 177.383 19.6C177.676 19.4267 177.99 19.3 178.323 19.22C178.656 19.14 178.99 19.1 179.323 19.1C179.723 19.1 180.056 19.2133 180.323 19.44C180.603 19.6667 180.743 19.9333 180.743 20.24C180.743 20.68 180.63 21 180.403 21.2C180.176 21.3867 179.93 21.48 179.663 21.48C179.41 21.48 179.176 21.4333 178.963 21.34C178.763 21.2467 178.53 21.2 178.263 21.2C178.023 21.2 177.776 21.26 177.523 21.38C177.283 21.4867 177.056 21.66 176.843 21.9C176.643 22.14 176.476 22.44 176.343 22.8C176.223 23.1467 176.163 23.56 176.163 24.04V28.78C176.163 29.1267 176.05 29.42 175.823 29.66C175.596 29.8867 175.31 30 174.963 30ZM190.96 19.1C191.307 19.1 191.594 19.2133 191.82 19.44C192.047 19.6667 192.16 19.96 192.16 20.32V28.78C192.16 29.1267 192.047 29.42 191.82 29.66C191.594 29.8867 191.307 30 190.96 30C190.614 30 190.327 29.8867 190.1 29.66C189.874 29.42 189.76 29.1267 189.76 28.78V27.8L190.2 27.98C190.2 28.1533 190.107 28.3667 189.92 28.62C189.734 28.86 189.48 29.1 189.16 29.34C188.84 29.58 188.46 29.7867 188.02 29.96C187.594 30.12 187.127 30.2 186.62 30.2C185.7 30.2 184.867 29.9667 184.12 29.5C183.374 29.02 182.78 28.3667 182.34 27.54C181.914 26.7 181.7 25.74 181.7 24.66C181.7 23.5667 181.914 22.6067 182.34 21.78C182.78 20.94 183.367 20.2867 184.1 19.82C184.834 19.34 185.647 19.1 186.54 19.1C187.114 19.1 187.64 19.1867 188.12 19.36C188.6 19.5333 189.014 19.7533 189.36 20.02C189.72 20.2867 189.994 20.56 190.18 20.84C190.38 21.1067 190.48 21.3333 190.48 21.52L189.76 21.78V20.32C189.76 19.9733 189.874 19.6867 190.1 19.46C190.327 19.22 190.614 19.1 190.96 19.1ZM186.92 28C187.507 28 188.02 27.8533 188.46 27.56C188.9 27.2667 189.24 26.8667 189.48 26.36C189.734 25.8533 189.86 25.2867 189.86 24.66C189.86 24.02 189.734 23.4467 189.48 22.94C189.24 22.4333 188.9 22.0333 188.46 21.74C188.02 21.4467 187.507 21.3 186.92 21.3C186.347 21.3 185.84 21.4467 185.4 21.74C184.96 22.0333 184.614 22.4333 184.36 22.94C184.12 23.4467 184 24.02 184 24.66C184 25.2867 184.12 25.8533 184.36 26.36C184.614 26.8667 184.96 27.2667 185.4 27.56C185.84 27.8533 186.347 28 186.92 28ZM203.519 15.2C203.866 15.2 204.152 15.3133 204.379 15.54C204.606 15.7667 204.719 16.06 204.719 16.42V28.78C204.719 29.1267 204.606 29.42 204.379 29.66C204.152 29.8867 203.866 30 203.519 30C203.172 30 202.886 29.8867 202.659 29.66C202.432 29.42 202.319 29.1267 202.319 28.78V27.8L202.759 27.98C202.759 28.1533 202.666 28.3667 202.479 28.62C202.292 28.86 202.039 29.1 201.719 29.34C201.399 29.58 201.019 29.7867 200.579 29.96C200.152 30.12 199.686 30.2 199.179 30.2C198.259 30.2 197.426 29.9667 196.679 29.5C195.932 29.02 195.339 28.3667 194.899 27.54C194.472 26.7 194.259 25.74 194.259 24.66C194.259 23.5667 194.472 22.6067 194.899 21.78C195.339 20.94 195.926 20.2867 196.659 19.82C197.392 19.34 198.206 19.1 199.099 19.1C199.672 19.1 200.199 19.1867 200.679 19.36C201.159 19.5333 201.572 19.7533 201.919 20.02C202.279 20.2867 202.552 20.56 202.739 20.84C202.939 21.1067 203.039 21.3333 203.039 21.52L202.319 21.78V16.42C202.319 16.0733 202.432 15.7867 202.659 15.56C202.886 15.32 203.172 15.2 203.519 15.2ZM199.479 28C200.066 28 200.579 27.8533 201.019 27.56C201.459 27.2667 201.799 26.8667 202.039 26.36C202.292 25.8533 202.419 25.2867 202.419 24.66C202.419 24.02 202.292 23.4467 202.039 22.94C201.799 22.4333 201.459 22.0333 201.019 21.74C200.579 21.4467 200.066 21.3 199.479 21.3C198.906 21.3 198.399 21.4467 197.959 21.74C197.519 22.0333 197.172 22.4333 196.919 22.94C196.679 23.4467 196.559 24.02 196.559 24.66C196.559 25.2867 196.679 25.8533 196.919 26.36C197.172 26.8667 197.519 27.2667 197.959 27.56C198.399 27.8533 198.906 28 199.479 28ZM212.358 30.2C211.224 30.2 210.238 29.9667 209.398 29.5C208.571 29.02 207.931 28.3733 207.478 27.56C207.038 26.7467 206.818 25.8267 206.818 24.8C206.818 23.6 207.058 22.58 207.538 21.74C208.031 20.8867 208.671 20.2333 209.458 19.78C210.244 19.3267 211.078 19.1 211.958 19.1C212.638 19.1 213.278 19.24 213.878 19.52C214.491 19.8 215.031 20.1867 215.498 20.68C215.964 21.16 216.331 21.72 216.598 22.36C216.878 23 217.018 23.68 217.018 24.4C217.004 24.72 216.878 24.98 216.638 25.18C216.398 25.38 216.118 25.48 215.798 25.48H208.158L207.558 23.48H214.898L214.458 23.88V23.34C214.431 22.9533 214.291 22.6067 214.038 22.3C213.798 21.9933 213.491 21.7533 213.118 21.58C212.758 21.3933 212.371 21.3 211.958 21.3C211.558 21.3 211.184 21.3533 210.838 21.46C210.491 21.5667 210.191 21.7467 209.938 22C209.684 22.2533 209.484 22.5933 209.338 23.02C209.191 23.4467 209.118 23.9867 209.118 24.64C209.118 25.36 209.264 25.9733 209.558 26.48C209.864 26.9733 210.251 27.3533 210.718 27.62C211.198 27.8733 211.704 28 212.238 28C212.731 28 213.124 27.96 213.418 27.88C213.711 27.8 213.944 27.7067 214.118 27.6C214.304 27.48 214.471 27.38 214.618 27.3C214.858 27.18 215.084 27.12 215.298 27.12C215.591 27.12 215.831 27.22 216.018 27.42C216.218 27.62 216.318 27.8533 216.318 28.12C216.318 28.48 216.131 28.8067 215.758 29.1C215.411 29.3933 214.924 29.6533 214.298 29.88C213.671 30.0933 213.024 30.2 212.358 30.2ZM229.42 30.2C228.487 30.2 227.647 30.0867 226.9 29.86C226.153 29.62 225.44 29.2067 224.76 28.62C224.587 28.4733 224.453 28.3067 224.36 28.12C224.267 27.9333 224.22 27.7467 224.22 27.56C224.22 27.2533 224.327 26.9867 224.54 26.76C224.767 26.52 225.047 26.4 225.38 26.4C225.633 26.4 225.86 26.48 226.06 26.64C226.567 27.0533 227.067 27.3667 227.56 27.58C228.067 27.7933 228.687 27.9 229.42 27.9C229.913 27.9 230.367 27.8267 230.78 27.68C231.193 27.52 231.527 27.3133 231.78 27.06C232.033 26.7933 232.16 26.4933 232.16 26.16C232.16 25.76 232.04 25.42 231.8 25.14C231.56 24.86 231.193 24.6267 230.7 24.44C230.207 24.24 229.58 24.0867 228.82 23.98C228.1 23.8733 227.467 23.7133 226.92 23.5C226.373 23.2733 225.913 22.9933 225.54 22.66C225.18 22.3133 224.907 21.9133 224.72 21.46C224.533 20.9933 224.44 20.4733 224.44 19.9C224.44 19.0333 224.66 18.2933 225.1 17.68C225.553 17.0667 226.16 16.6 226.92 16.28C227.68 15.96 228.52 15.8 229.44 15.8C230.307 15.8 231.107 15.9333 231.84 16.2C232.587 16.4533 233.193 16.78 233.66 17.18C234.047 17.4867 234.24 17.84 234.24 18.24C234.24 18.5333 234.127 18.8 233.9 19.04C233.673 19.28 233.407 19.4 233.1 19.4C232.9 19.4 232.72 19.34 232.56 19.22C232.347 19.0333 232.06 18.86 231.7 18.7C231.34 18.5267 230.96 18.3867 230.56 18.28C230.16 18.16 229.787 18.1 229.44 18.1C228.867 18.1 228.38 18.1733 227.98 18.32C227.593 18.4667 227.3 18.6667 227.1 18.92C226.9 19.1733 226.8 19.4667 226.8 19.8C226.8 20.2 226.913 20.5333 227.14 20.8C227.38 21.0533 227.72 21.26 228.16 21.42C228.6 21.5667 229.127 21.7 229.74 21.82C230.54 21.9667 231.24 22.14 231.84 22.34C232.453 22.54 232.96 22.8 233.36 23.12C233.76 23.4267 234.06 23.82 234.26 24.3C234.46 24.7667 234.56 25.34 234.56 26.02C234.56 26.8867 234.32 27.6333 233.84 28.26C233.36 28.8867 232.727 29.3667 231.94 29.7C231.167 30.0333 230.327 30.2 229.42 30.2ZM244.594 19.3C244.94 19.3 245.227 19.42 245.454 19.66C245.68 19.8867 245.794 20.1733 245.794 20.52V25.6C245.794 27.0133 245.4 28.1333 244.614 28.96C243.827 29.7867 242.694 30.2 241.214 30.2C239.734 30.2 238.6 29.7867 237.814 28.96C237.04 28.1333 236.654 27.0133 236.654 25.6V20.52C236.654 20.1733 236.767 19.8867 236.994 19.66C237.22 19.42 237.507 19.3 237.854 19.3C238.2 19.3 238.487 19.42 238.714 19.66C238.94 19.8867 239.054 20.1733 239.054 20.52V25.6C239.054 26.4133 239.234 27.02 239.594 27.42C239.954 27.8067 240.494 28 241.214 28C241.947 28 242.494 27.8067 242.854 27.42C243.214 27.02 243.394 26.4133 243.394 25.6V20.52C243.394 20.1733 243.507 19.8867 243.734 19.66C243.96 19.42 244.247 19.3 244.594 19.3ZM253.932 19.1C254.865 19.1 255.698 19.34 256.432 19.82C257.178 20.2867 257.765 20.9333 258.192 21.76C258.632 22.5867 258.852 23.5467 258.852 24.64C258.852 25.7333 258.632 26.7 258.192 27.54C257.765 28.3667 257.185 29.02 256.452 29.5C255.732 29.9667 254.918 30.2 254.012 30.2C253.478 30.2 252.978 30.1133 252.512 29.94C252.045 29.7667 251.632 29.5467 251.272 29.28C250.925 29.0133 250.652 28.7467 250.452 28.48C250.265 28.2 250.172 27.9667 250.172 27.78L250.792 27.52V28.98C250.792 29.3267 250.678 29.62 250.452 29.86C250.225 30.0867 249.938 30.2 249.592 30.2C249.245 30.2 248.958 30.0867 248.732 29.86C248.505 29.6333 248.392 29.34 248.392 28.98V16.42C248.392 16.0733 248.505 15.7867 248.732 15.56C248.958 15.32 249.245 15.2 249.592 15.2C249.938 15.2 250.225 15.32 250.452 15.56C250.678 15.7867 250.792 16.0733 250.792 16.42V21.5L250.452 21.32C250.452 21.1467 250.545 20.94 250.732 20.7C250.918 20.4467 251.172 20.2 251.492 19.96C251.812 19.7067 252.178 19.5 252.592 19.34C253.018 19.18 253.465 19.1 253.932 19.1ZM253.632 21.3C253.045 21.3 252.532 21.4467 252.092 21.74C251.652 22.0333 251.305 22.4333 251.052 22.94C250.812 23.4333 250.692 24 250.692 24.64C250.692 25.2667 250.812 25.84 251.052 26.36C251.305 26.8667 251.652 27.2667 252.092 27.56C252.532 27.8533 253.045 28 253.632 28C254.218 28 254.725 27.8533 255.152 27.56C255.592 27.2667 255.932 26.8667 256.172 26.36C256.425 25.84 256.552 25.2667 256.552 24.64C256.552 24 256.425 23.4333 256.172 22.94C255.932 22.4333 255.592 22.0333 255.152 21.74C254.725 21.4467 254.218 21.3 253.632 21.3ZM260.33 28.34C260.197 28.1533 260.137 27.9133 260.15 27.62C260.164 27.3267 260.337 27.0733 260.67 26.86C260.884 26.7267 261.11 26.6733 261.35 26.7C261.59 26.7133 261.824 26.8333 262.05 27.06C262.437 27.4467 262.844 27.7467 263.27 27.96C263.697 28.1733 264.23 28.28 264.87 28.28C265.07 28.2667 265.29 28.24 265.53 28.2C265.77 28.1467 265.977 28.04 266.15 27.88C266.337 27.7067 266.43 27.4467 266.43 27.1C266.43 26.8067 266.33 26.5733 266.13 26.4C265.93 26.2267 265.664 26.08 265.33 25.96C265.01 25.84 264.65 25.7267 264.25 25.62C263.837 25.5 263.41 25.3667 262.97 25.22C262.544 25.0733 262.15 24.8867 261.79 24.66C261.43 24.42 261.137 24.1067 260.91 23.72C260.684 23.3333 260.57 22.8467 260.57 22.26C260.57 21.5933 260.757 21.0267 261.13 20.56C261.504 20.0933 261.984 19.7333 262.57 19.48C263.17 19.2267 263.797 19.1 264.45 19.1C264.864 19.1 265.297 19.1533 265.75 19.26C266.204 19.3533 266.637 19.5133 267.05 19.74C267.464 19.9533 267.81 20.24 268.09 20.6C268.237 20.8 268.324 21.04 268.35 21.32C268.377 21.6 268.25 21.8533 267.97 22.08C267.77 22.24 267.537 22.3133 267.27 22.3C267.004 22.2733 266.784 22.18 266.61 22.02C266.384 21.7267 266.077 21.4933 265.69 21.32C265.317 21.1467 264.884 21.06 264.39 21.06C264.19 21.06 263.97 21.0867 263.73 21.14C263.504 21.18 263.304 21.28 263.13 21.44C262.957 21.5867 262.87 21.8267 262.87 22.16C262.87 22.4667 262.97 22.7133 263.17 22.9C263.37 23.0733 263.637 23.22 263.97 23.34C264.317 23.4467 264.684 23.5533 265.07 23.66C265.47 23.7667 265.877 23.8933 266.29 24.04C266.704 24.1867 267.084 24.38 267.43 24.62C267.777 24.86 268.057 25.1733 268.27 25.56C268.484 25.9333 268.59 26.4133 268.59 27C268.59 27.68 268.39 28.26 267.99 28.74C267.59 29.22 267.09 29.5867 266.49 29.84C265.89 30.08 265.277 30.2 264.65 30.2C263.864 30.2 263.077 30.0667 262.29 29.8C261.504 29.52 260.85 29.0333 260.33 28.34ZM275.359 19.1C276.119 19.1 276.779 19.18 277.339 19.34C277.912 19.5 278.352 19.7267 278.659 20.02C278.979 20.3 279.139 20.64 279.139 21.04C279.139 21.3067 279.059 21.56 278.899 21.8C278.739 22.0267 278.505 22.14 278.199 22.14C277.985 22.14 277.805 22.1133 277.659 22.06C277.525 21.9933 277.405 21.9133 277.299 21.82C277.192 21.7267 277.065 21.64 276.919 21.56C276.785 21.48 276.579 21.42 276.299 21.38C276.032 21.3267 275.832 21.3 275.699 21.3C275.019 21.3 274.439 21.4467 273.959 21.74C273.492 22.0333 273.132 22.4333 272.879 22.94C272.625 23.4333 272.499 24.0067 272.499 24.66C272.499 25.3 272.625 25.8733 272.879 26.38C273.145 26.8733 273.505 27.2667 273.959 27.56C274.425 27.8533 274.959 28 275.559 28C275.892 28 276.179 27.98 276.419 27.94C276.659 27.9 276.859 27.84 277.019 27.76C277.205 27.6533 277.372 27.54 277.519 27.42C277.665 27.3 277.885 27.24 278.179 27.24C278.525 27.24 278.792 27.3533 278.979 27.58C279.165 27.7933 279.259 28.06 279.259 28.38C279.259 28.7133 279.072 29.02 278.699 29.3C278.325 29.5667 277.832 29.7867 277.219 29.96C276.619 30.12 275.965 30.2 275.259 30.2C274.205 30.2 273.292 29.96 272.519 29.48C271.745 28.9867 271.145 28.32 270.719 27.48C270.305 26.64 270.099 25.7 270.099 24.66C270.099 23.5667 270.319 22.6067 270.759 21.78C271.212 20.94 271.832 20.2867 272.619 19.82C273.419 19.34 274.332 19.1 275.359 19.1ZM282.189 30C281.843 30 281.556 29.8867 281.329 29.66C281.103 29.42 280.989 29.1267 280.989 28.78V20.52C280.989 20.1733 281.103 19.8867 281.329 19.66C281.556 19.42 281.843 19.3 282.189 19.3C282.536 19.3 282.823 19.42 283.049 19.66C283.276 19.8867 283.389 20.1733 283.389 20.52V22.4L283.249 21.06C283.396 20.74 283.583 20.46 283.809 20.22C284.049 19.9667 284.316 19.76 284.609 19.6C284.903 19.4267 285.216 19.3 285.549 19.22C285.883 19.14 286.216 19.1 286.549 19.1C286.949 19.1 287.283 19.2133 287.549 19.44C287.829 19.6667 287.969 19.9333 287.969 20.24C287.969 20.68 287.856 21 287.629 21.2C287.403 21.3867 287.156 21.48 286.889 21.48C286.636 21.48 286.403 21.4333 286.189 21.34C285.989 21.2467 285.756 21.2 285.489 21.2C285.249 21.2 285.003 21.26 284.749 21.38C284.509 21.4867 284.283 21.66 284.069 21.9C283.869 22.14 283.703 22.44 283.569 22.8C283.449 23.1467 283.389 23.56 283.389 24.04V28.78C283.389 29.1267 283.276 29.42 283.049 29.66C282.823 29.8867 282.536 30 282.189 30ZM291.921 28.78C291.921 29.1267 291.808 29.42 291.581 29.66C291.355 29.8867 291.068 30 290.721 30C290.375 30 290.088 29.8867 289.861 29.66C289.635 29.42 289.521 29.1267 289.521 28.78V20.52C289.521 20.1733 289.635 19.8867 289.861 19.66C290.088 19.42 290.375 19.3 290.721 19.3C291.068 19.3 291.355 19.42 291.581 19.66C291.808 19.8867 291.921 20.1733 291.921 20.52V28.78ZM290.701 18C290.248 18 289.928 17.9267 289.741 17.78C289.555 17.6333 289.461 17.3733 289.461 17V16.62C289.461 16.2333 289.561 15.9733 289.761 15.84C289.975 15.6933 290.295 15.62 290.721 15.62C291.188 15.62 291.515 15.6933 291.701 15.84C291.888 15.9867 291.981 16.2467 291.981 16.62V17C291.981 17.3867 291.881 17.6533 291.681 17.8C291.481 17.9333 291.155 18 290.701 18ZM299.928 19.1C300.861 19.1 301.695 19.34 302.428 19.82C303.175 20.2867 303.761 20.9333 304.188 21.76C304.628 22.5867 304.848 23.5467 304.848 24.64C304.848 25.7333 304.628 26.7 304.188 27.54C303.761 28.3667 303.181 29.02 302.448 29.5C301.728 29.9667 300.915 30.2 300.008 30.2C299.475 30.2 298.975 30.1133 298.508 29.94C298.041 29.7667 297.628 29.5467 297.268 29.28C296.921 29.0133 296.648 28.7467 296.448 28.48C296.261 28.2 296.168 27.9667 296.168 27.78L296.788 27.52V32.78C296.788 33.1267 296.675 33.4133 296.448 33.64C296.221 33.88 295.935 34 295.588 34C295.241 34 294.955 33.8867 294.728 33.66C294.501 33.4333 294.388 33.14 294.388 32.78V20.52C294.388 20.1733 294.501 19.8867 294.728 19.66C294.955 19.42 295.241 19.3 295.588 19.3C295.935 19.3 296.221 19.42 296.448 19.66C296.675 19.8867 296.788 20.1733 296.788 20.52V21.5L296.448 21.32C296.448 21.1467 296.541 20.94 296.728 20.7C296.915 20.4467 297.168 20.2 297.488 19.96C297.808 19.7067 298.175 19.5 298.588 19.34C299.015 19.18 299.461 19.1 299.928 19.1ZM299.628 21.3C299.041 21.3 298.528 21.4467 298.088 21.74C297.648 22.0333 297.301 22.4333 297.048 22.94C296.808 23.4333 296.688 24 296.688 24.64C296.688 25.2667 296.808 25.84 297.048 26.36C297.301 26.8667 297.648 27.2667 298.088 27.56C298.528 27.8533 299.041 28 299.628 28C300.215 28 300.721 27.8533 301.148 27.56C301.588 27.2667 301.928 26.8667 302.168 26.36C302.421 25.84 302.548 25.2667 302.548 24.64C302.548 24 302.421 23.4333 302.168 22.94C301.928 22.4333 301.588 22.0333 301.148 21.74C300.721 21.4467 300.215 21.3 299.628 21.3ZM307.066 19.5H311.806C312.126 19.5 312.393 19.6067 312.606 19.82C312.82 20.0333 312.926 20.3 312.926 20.62C312.926 20.9267 312.82 21.1867 312.606 21.4C312.393 21.6 312.126 21.7 311.806 21.7H307.066C306.746 21.7 306.48 21.5933 306.266 21.38C306.053 21.1667 305.946 20.9 305.946 20.58C305.946 20.2733 306.053 20.02 306.266 19.82C306.48 19.6067 306.746 19.5 307.066 19.5ZM309.206 17C309.553 17 309.833 17.12 310.046 17.36C310.273 17.5867 310.386 17.8733 310.386 18.22V27.12C310.386 27.3067 310.42 27.46 310.486 27.58C310.566 27.7 310.666 27.7867 310.786 27.84C310.92 27.8933 311.06 27.92 311.206 27.92C311.366 27.92 311.513 27.8933 311.646 27.84C311.78 27.7733 311.933 27.74 312.106 27.74C312.293 27.74 312.46 27.8267 312.606 28C312.766 28.1733 312.846 28.4133 312.846 28.72C312.846 29.0933 312.64 29.4 312.226 29.64C311.826 29.88 311.393 30 310.926 30C310.646 30 310.333 29.98 309.986 29.94C309.653 29.8867 309.333 29.7733 309.026 29.6C308.733 29.4133 308.486 29.1333 308.286 28.76C308.086 28.3867 307.986 27.8733 307.986 27.22V18.22C307.986 17.8733 308.1 17.5867 308.326 17.36C308.566 17.12 308.86 17 309.206 17ZM317.39 28.78C317.39 29.1267 317.277 29.42 317.05 29.66C316.823 29.8867 316.537 30 316.19 30C315.843 30 315.557 29.8867 315.33 29.66C315.103 29.42 314.99 29.1267 314.99 28.78V20.52C314.99 20.1733 315.103 19.8867 315.33 19.66C315.557 19.42 315.843 19.3 316.19 19.3C316.537 19.3 316.823 19.42 317.05 19.66C317.277 19.8867 317.39 20.1733 317.39 20.52V28.78ZM316.17 18C315.717 18 315.397 17.9267 315.21 17.78C315.023 17.6333 314.93 17.3733 314.93 17V16.62C314.93 16.2333 315.03 15.9733 315.23 15.84C315.443 15.6933 315.763 15.62 316.19 15.62C316.657 15.62 316.983 15.6933 317.17 15.84C317.357 15.9867 317.45 16.2467 317.45 16.62V17C317.45 17.3867 317.35 17.6533 317.15 17.8C316.95 17.9333 316.623 18 316.17 18ZM330.237 24.66C330.237 25.7533 329.99 26.72 329.497 27.56C329.017 28.3867 328.363 29.0333 327.537 29.5C326.723 29.9667 325.81 30.2 324.797 30.2C323.783 30.2 322.863 29.9667 322.037 29.5C321.223 29.0333 320.57 28.3867 320.077 27.56C319.597 26.72 319.357 25.7533 319.357 24.66C319.357 23.5667 319.597 22.6067 320.077 21.78C320.57 20.94 321.223 20.2867 322.037 19.82C322.863 19.34 323.783 19.1 324.797 19.1C325.81 19.1 326.723 19.34 327.537 19.82C328.363 20.2867 329.017 20.94 329.497 21.78C329.99 22.6067 330.237 23.5667 330.237 24.66ZM327.837 24.66C327.837 23.98 327.697 23.3933 327.417 22.9C327.15 22.3933 326.783 22 326.317 21.72C325.863 21.44 325.357 21.3 324.797 21.3C324.237 21.3 323.723 21.44 323.257 21.72C322.803 22 322.437 22.3933 322.157 22.9C321.89 23.3933 321.757 23.98 321.757 24.66C321.757 25.3267 321.89 25.9133 322.157 26.42C322.437 26.9133 322.803 27.3 323.257 27.58C323.723 27.86 324.237 28 324.797 28C325.357 28 325.863 27.86 326.317 27.58C326.783 27.3 327.15 26.9133 327.417 26.42C327.697 25.9133 327.837 25.3267 327.837 24.66ZM338.057 19.1C339.044 19.1 339.79 19.3067 340.297 19.72C340.817 20.1333 341.17 20.6867 341.357 21.38C341.557 22.06 341.657 22.82 341.657 23.66V28.78C341.657 29.1267 341.544 29.42 341.317 29.66C341.09 29.8867 340.804 30 340.457 30C340.11 30 339.824 29.8867 339.597 29.66C339.37 29.42 339.257 29.1267 339.257 28.78V23.66C339.257 23.22 339.197 22.8267 339.077 22.48C338.97 22.12 338.77 21.8333 338.477 21.62C338.184 21.4067 337.764 21.3 337.217 21.3C336.684 21.3 336.23 21.4067 335.857 21.62C335.497 21.8333 335.217 22.12 335.017 22.48C334.83 22.8267 334.737 23.22 334.737 23.66V28.78C334.737 29.1267 334.624 29.42 334.397 29.66C334.17 29.8867 333.884 30 333.537 30C333.19 30 332.904 29.8867 332.677 29.66C332.45 29.42 332.337 29.1267 332.337 28.78V20.52C332.337 20.1733 332.45 19.8867 332.677 19.66C332.904 19.42 333.19 19.3 333.537 19.3C333.884 19.3 334.17 19.42 334.397 19.66C334.624 19.8867 334.737 20.1733 334.737 20.52V21.38L334.437 21.32C334.557 21.0933 334.73 20.8533 334.957 20.6C335.184 20.3333 335.45 20.0867 335.757 19.86C336.064 19.6333 336.41 19.4533 336.797 19.32C337.184 19.1733 337.604 19.1 338.057 19.1Z" fill="white"/>
</svg>
