<svg width="32" height="21" viewBox="0 0 32 21" fill="none" xmlns="http://www.w3.org/2000/svg">
<path fill-rule="evenodd" clip-rule="evenodd" d="M16.0172 5.44983C13.2655 5.44983 11.0441 7.71648 11.0441 10.5008C11.0441 13.2852 13.2655 15.5518 16.0172 15.5518C18.7689 15.5518 20.9903 13.2852 20.9903 10.5008C20.9903 7.71648 18.7689 5.44983 16.0172 5.44983ZM13.8459 10.5008C13.8459 9.27319 14.8232 8.28747 16.0172 8.28747C17.2112 8.28747 18.1885 9.27319 18.1885 10.5008C18.1885 11.7285 17.2112 12.7142 16.0172 12.7142C14.8232 12.7142 13.8459 11.7285 13.8459 10.5008Z" fill="#5B5B5B"/>
<path fill-rule="evenodd" clip-rule="evenodd" d="M31.4916 9.74507C29.2582 6.15061 25.0107 1.70039 19.4827 0.382968C13.7668 -0.979228 7.17383 1.10841 0.623093 9.62909L0 10.4396L0.565673 11.2921C2.94264 14.8747 7.36028 19.3068 12.9228 20.6193C15.7438 21.2849 18.8304 21.1378 22.0103 19.6976C25.1722 18.2656 28.3449 15.5931 31.4342 11.3418L32 10.5632L31.4916 9.74507ZM13.5585 17.8557C9.3476 16.8621 5.72796 13.6041 3.4811 10.5525C9.32044 3.35546 14.6478 2.14587 18.841 3.14517C23.0051 4.13755 26.4814 7.39883 28.5895 10.4476C25.9091 13.9385 23.2956 16.007 20.8666 17.1071C18.2782 18.2794 15.8197 18.3892 13.5585 17.8557Z" fill="#5B5B5B"/>
</svg>
