<svg width="40" height="40" viewBox="0 0 40 40" fill="none" xmlns="http://www.w3.org/2000/svg">
<path d="M27.3299 12.6701C27.1463 12.4849 26.9277 12.3379 26.687 12.2376C26.4462 12.1373 26.188 12.0857 25.9272 12.0857C25.6663 12.0857 25.4081 12.1373 25.1673 12.2376C24.9266 12.3379 24.7081 12.4849 24.5244 12.6701L20 17.2142L15.4756 12.6701C15.1036 12.298 14.599 12.089 14.0728 12.089C13.5467 12.089 13.0421 12.298 12.6701 12.6701C12.298 13.0421 12.089 13.5467 12.089 14.0728C12.089 14.599 12.298 15.1036 12.6701 15.4756L17.2142 20L12.6701 24.5244C12.4849 24.7081 12.3379 24.9266 12.2376 25.1673C12.1373 25.4081 12.0857 25.6663 12.0857 25.9272C12.0857 26.188 12.1373 26.4462 12.2376 26.687C12.3379 26.9277 12.4849 27.1463 12.6701 27.3299C12.8537 27.5151 13.0723 27.6621 13.313 27.7624C13.5538 27.8627 13.812 27.9143 14.0728 27.9143C14.3337 27.9143 14.5919 27.8627 14.8326 27.7624C15.0734 27.6621 15.2919 27.5151 15.4756 27.3299L20 22.7858L24.5244 27.3299C24.7081 27.5151 24.9266 27.6621 25.1673 27.7624C25.4081 27.8627 25.6663 27.9143 25.9272 27.9143C26.188 27.9143 26.4462 27.8627 26.687 27.7624C26.9277 27.6621 27.1463 27.5151 27.3299 27.3299C27.5151 27.1463 27.6621 26.9277 27.7624 26.687C27.8627 26.4462 27.9143 26.188 27.9143 25.9272C27.9143 25.6663 27.8627 25.4081 27.7624 25.1673C27.6621 24.9266 27.5151 24.7081 27.3299 24.5244L22.7858 20L27.3299 15.4756C27.5151 15.2919 27.6621 15.0734 27.7624 14.8326C27.8627 14.5919 27.9143 14.3337 27.9143 14.0728C27.9143 13.812 27.8627 13.5538 27.7624 13.313C27.6621 13.0723 27.5151 12.8537 27.3299 12.6701ZM33.9684 6.03165C32.1458 4.14463 29.9657 2.63948 27.5552 1.60403C25.1448 0.56857 22.5522 0.0235422 19.9289 0.000745968C17.3055 -0.0220502 14.7039 0.477841 12.2758 1.47125C9.84774 2.46466 7.64181 3.9317 5.78676 5.78676C3.9317 7.64181 2.46466 9.84774 1.47125 12.2758C0.477841 14.7039 -0.0220502 17.3055 0.000745968 19.9289C0.0235422 22.5522 0.56857 25.1448 1.60403 27.5552C2.63948 29.9657 4.14463 32.1458 6.03165 33.9684C7.85419 35.8554 10.0343 37.3605 12.4447 38.396C14.8552 39.4314 17.4478 39.9765 20.0711 39.9993C22.6944 40.022 25.2961 39.5222 27.7242 38.5287C30.1523 37.5353 32.3582 36.0683 34.2132 34.2132C36.0683 32.3582 37.5353 30.1523 38.5287 27.7242C39.5222 25.2961 40.022 22.6944 39.9993 20.0711C39.9765 17.4478 39.4314 14.8552 38.396 12.4447C37.3605 10.0343 35.8554 7.85419 33.9684 6.03165ZM31.1826 31.1826C28.5984 33.7696 25.1972 35.3806 21.5584 35.7412C17.9197 36.1017 14.2684 35.1895 11.2268 33.1598C8.18526 31.1302 5.94147 28.1088 4.87777 24.6103C3.81407 21.1119 3.99627 17.3528 5.39332 13.9736C6.79037 10.5944 9.31584 7.80416 12.5395 6.0782C15.7631 4.35223 19.4854 3.79736 23.0723 4.50811C26.6591 5.21887 29.8886 7.15127 32.2104 9.9761C34.5323 12.8009 35.8029 16.3434 35.8058 20C35.8128 22.0771 35.4078 24.1349 34.6143 26.0544C33.8207 27.9739 32.6543 29.7169 31.1826 31.1826Z" fill="#F5453D"/>
</svg>
